<svg width="600" height="600" viewBox="0 0 600 600" fill="none" xmlns="http://www.w3.org/2000/svg">
<g filter="url(#filter0_d_7_43)">
<rect x="200" y="80" width="284" height="238" rx="16" fill="#F4F5F6"/>
</g>
<g filter="url(#filter1_d_7_43)">
<rect x="116" y="135" width="310" height="385" rx="16" fill="white"/>
<path d="M151.744 161.364V173H149.619L144.557 165.676H144.472V173H142.011V161.364H144.17L149.193 168.682H149.295V161.364H151.744ZM153.732 173V164.273H156.152V173H153.732ZM154.947 163.148C154.588 163.148 154.279 163.028 154.021 162.79C153.768 162.547 153.641 162.258 153.641 161.92C153.641 161.587 153.768 161.301 154.021 161.062C154.279 160.82 154.588 160.699 154.947 160.699C155.307 160.699 155.614 160.82 155.868 161.062C156.125 161.301 156.254 161.587 156.254 161.92C156.254 162.258 156.125 162.547 155.868 162.79C155.614 163.028 155.307 163.148 154.947 163.148ZM158.136 173V161.364H165.841V163.392H160.597V166.165H165.33V168.193H160.597V173H158.136ZM167.45 173V164.273H169.871V173H167.45ZM168.666 163.148C168.306 163.148 167.998 163.028 167.74 162.79C167.486 162.547 167.359 162.258 167.359 161.92C167.359 161.587 167.486 161.301 167.74 161.062C167.998 160.82 168.306 160.699 168.666 160.699C169.026 160.699 169.333 160.82 169.587 161.062C169.844 161.301 169.973 161.587 169.973 161.92C169.973 162.258 169.844 162.547 169.587 162.79C169.333 163.028 169.026 163.148 168.666 163.148ZM179.683 173H175.558V161.364H179.717C180.888 161.364 181.895 161.597 182.74 162.062C183.585 162.525 184.234 163.189 184.689 164.057C185.147 164.924 185.376 165.962 185.376 167.17C185.376 168.383 185.147 169.424 184.689 170.295C184.234 171.167 183.581 171.835 182.729 172.301C181.88 172.767 180.865 173 179.683 173ZM178.018 170.892H179.581C180.308 170.892 180.92 170.763 181.416 170.506C181.916 170.244 182.291 169.841 182.541 169.295C182.795 168.746 182.922 168.038 182.922 167.17C182.922 166.311 182.795 165.608 182.541 165.062C182.291 164.517 181.918 164.116 181.422 163.858C180.926 163.6 180.314 163.472 179.587 163.472H178.018V170.892ZM189.642 173.165C189.085 173.165 188.589 173.068 188.153 172.875C187.718 172.678 187.373 172.388 187.119 172.006C186.869 171.619 186.744 171.138 186.744 170.562C186.744 170.078 186.833 169.67 187.011 169.341C187.189 169.011 187.432 168.746 187.739 168.545C188.045 168.345 188.394 168.193 188.784 168.091C189.178 167.989 189.591 167.917 190.023 167.875C190.53 167.822 190.939 167.773 191.25 167.727C191.561 167.678 191.786 167.606 191.926 167.511C192.066 167.417 192.136 167.277 192.136 167.091V167.057C192.136 166.697 192.023 166.419 191.795 166.222C191.572 166.025 191.254 165.926 190.841 165.926C190.405 165.926 190.059 166.023 189.801 166.216C189.544 166.405 189.373 166.644 189.29 166.932L187.051 166.75C187.165 166.22 187.388 165.761 187.722 165.375C188.055 164.985 188.485 164.686 189.011 164.477C189.542 164.265 190.155 164.159 190.852 164.159C191.337 164.159 191.801 164.216 192.244 164.33C192.691 164.443 193.087 164.619 193.432 164.858C193.78 165.097 194.055 165.403 194.256 165.778C194.456 166.15 194.557 166.595 194.557 167.114V173H192.261V171.79H192.193C192.053 172.062 191.866 172.303 191.631 172.511C191.396 172.716 191.114 172.877 190.784 172.994C190.455 173.108 190.074 173.165 189.642 173.165ZM190.335 171.494C190.691 171.494 191.006 171.424 191.278 171.284C191.551 171.14 191.765 170.947 191.92 170.705C192.076 170.462 192.153 170.187 192.153 169.881V168.955C192.078 169.004 191.973 169.049 191.841 169.091C191.712 169.129 191.566 169.165 191.403 169.199C191.241 169.229 191.078 169.258 190.915 169.284C190.752 169.307 190.604 169.328 190.472 169.347C190.188 169.388 189.939 169.455 189.727 169.545C189.515 169.636 189.35 169.759 189.233 169.915C189.116 170.066 189.057 170.256 189.057 170.483C189.057 170.812 189.176 171.064 189.415 171.239C189.657 171.409 189.964 171.494 190.335 171.494ZM201.077 164.273V166.091H195.821V164.273H201.077ZM197.014 162.182H199.435V170.318C199.435 170.542 199.469 170.716 199.537 170.841C199.605 170.962 199.7 171.047 199.821 171.097C199.946 171.146 200.09 171.17 200.253 171.17C200.366 171.17 200.48 171.161 200.594 171.142C200.707 171.119 200.795 171.102 200.855 171.091L201.236 172.892C201.115 172.93 200.944 172.973 200.724 173.023C200.505 173.076 200.238 173.108 199.923 173.119C199.34 173.142 198.829 173.064 198.389 172.886C197.954 172.708 197.615 172.432 197.372 172.057C197.13 171.682 197.01 171.208 197.014 170.636V162.182ZM205.142 173.165C204.585 173.165 204.089 173.068 203.653 172.875C203.218 172.678 202.873 172.388 202.619 172.006C202.369 171.619 202.244 171.138 202.244 170.562C202.244 170.078 202.333 169.67 202.511 169.341C202.689 169.011 202.932 168.746 203.239 168.545C203.545 168.345 203.894 168.193 204.284 168.091C204.678 167.989 205.091 167.917 205.523 167.875C206.03 167.822 206.439 167.773 206.75 167.727C207.061 167.678 207.286 167.606 207.426 167.511C207.566 167.417 207.636 167.277 207.636 167.091V167.057C207.636 166.697 207.523 166.419 207.295 166.222C207.072 166.025 206.754 165.926 206.341 165.926C205.905 165.926 205.559 166.023 205.301 166.216C205.044 166.405 204.873 166.644 204.79 166.932L202.551 166.75C202.665 166.22 202.888 165.761 203.222 165.375C203.555 164.985 203.985 164.686 204.511 164.477C205.042 164.265 205.655 164.159 206.352 164.159C206.837 164.159 207.301 164.216 207.744 164.33C208.191 164.443 208.587 164.619 208.932 164.858C209.28 165.097 209.555 165.403 209.756 165.778C209.956 166.15 210.057 166.595 210.057 167.114V173H207.761V171.79H207.693C207.553 172.062 207.366 172.303 207.131 172.511C206.896 172.716 206.614 172.877 206.284 172.994C205.955 173.108 205.574 173.165 205.142 173.165ZM205.835 171.494C206.191 171.494 206.506 171.424 206.778 171.284C207.051 171.14 207.265 170.947 207.42 170.705C207.576 170.462 207.653 170.187 207.653 169.881V168.955C207.578 169.004 207.473 169.049 207.341 169.091C207.212 169.129 207.066 169.165 206.903 169.199C206.741 169.229 206.578 169.258 206.415 169.284C206.252 169.307 206.104 169.328 205.972 169.347C205.688 169.388 205.439 169.455 205.227 169.545C205.015 169.636 204.85 169.759 204.733 169.915C204.616 170.066 204.557 170.256 204.557 170.483C204.557 170.812 204.676 171.064 204.915 171.239C205.157 171.409 205.464 171.494 205.835 171.494ZM215.683 173V161.364H220.274C221.157 161.364 221.909 161.532 222.53 161.869C223.151 162.203 223.625 162.667 223.95 163.261C224.28 163.852 224.445 164.534 224.445 165.307C224.445 166.08 224.278 166.761 223.945 167.352C223.611 167.943 223.128 168.403 222.496 168.733C221.867 169.062 221.106 169.227 220.212 169.227H217.286V167.256H219.814C220.287 167.256 220.678 167.174 220.984 167.011C221.295 166.845 221.526 166.616 221.678 166.324C221.833 166.028 221.911 165.689 221.911 165.307C221.911 164.92 221.833 164.583 221.678 164.295C221.526 164.004 221.295 163.778 220.984 163.619C220.674 163.456 220.28 163.375 219.803 163.375H218.143V173H215.683ZM225.997 173V164.273H228.344V165.795H228.435C228.594 165.254 228.861 164.845 229.236 164.568C229.611 164.288 230.043 164.148 230.531 164.148C230.652 164.148 230.783 164.155 230.923 164.17C231.063 164.186 231.187 164.206 231.293 164.233V166.381C231.179 166.347 231.022 166.316 230.821 166.29C230.62 166.263 230.437 166.25 230.27 166.25C229.914 166.25 229.596 166.328 229.315 166.483C229.039 166.634 228.819 166.847 228.656 167.119C228.497 167.392 228.418 167.706 228.418 168.062V173H225.997ZM236.081 173.17C235.198 173.17 234.435 172.983 233.791 172.608C233.151 172.229 232.657 171.703 232.308 171.028C231.96 170.35 231.786 169.564 231.786 168.67C231.786 167.769 231.96 166.981 232.308 166.307C232.657 165.629 233.151 165.102 233.791 164.727C234.435 164.348 235.198 164.159 236.081 164.159C236.964 164.159 237.725 164.348 238.365 164.727C239.009 165.102 239.505 165.629 239.854 166.307C240.202 166.981 240.376 167.769 240.376 168.67C240.376 169.564 240.202 170.35 239.854 171.028C239.505 171.703 239.009 172.229 238.365 172.608C237.725 172.983 236.964 173.17 236.081 173.17ZM236.092 171.295C236.494 171.295 236.829 171.182 237.098 170.955C237.367 170.723 237.57 170.409 237.706 170.011C237.846 169.614 237.916 169.161 237.916 168.653C237.916 168.146 237.846 167.693 237.706 167.295C237.57 166.898 237.367 166.583 237.098 166.352C236.829 166.121 236.494 166.006 236.092 166.006C235.687 166.006 235.346 166.121 235.07 166.352C234.797 166.583 234.59 166.898 234.45 167.295C234.314 167.693 234.246 168.146 234.246 168.653C234.246 169.161 234.314 169.614 234.45 170.011C234.59 170.409 234.797 170.723 235.07 170.955C235.346 171.182 235.687 171.295 236.092 171.295ZM249.805 164.273L246.754 173H244.027L240.976 164.273H243.533L245.345 170.517H245.436L247.243 164.273H249.805ZM254.74 173.17C253.842 173.17 253.07 172.989 252.422 172.625C251.778 172.258 251.282 171.739 250.933 171.068C250.585 170.394 250.411 169.597 250.411 168.676C250.411 167.778 250.585 166.991 250.933 166.312C251.282 165.634 251.772 165.106 252.405 164.727C253.041 164.348 253.787 164.159 254.643 164.159C255.219 164.159 255.755 164.252 256.251 164.438C256.751 164.619 257.187 164.894 257.558 165.261C257.933 165.629 258.225 166.091 258.433 166.648C258.642 167.201 258.746 167.848 258.746 168.591V169.256H251.376V167.756H256.467C256.467 167.407 256.392 167.098 256.24 166.83C256.089 166.561 255.878 166.35 255.609 166.199C255.344 166.044 255.036 165.966 254.683 165.966C254.316 165.966 253.99 166.051 253.706 166.222C253.426 166.388 253.206 166.614 253.047 166.898C252.888 167.178 252.806 167.491 252.803 167.835V169.261C252.803 169.693 252.882 170.066 253.041 170.381C253.204 170.695 253.433 170.938 253.729 171.108C254.024 171.278 254.375 171.364 254.78 171.364C255.049 171.364 255.295 171.326 255.518 171.25C255.742 171.174 255.933 171.061 256.092 170.909C256.251 170.758 256.373 170.572 256.456 170.352L258.695 170.5C258.581 171.038 258.348 171.508 257.996 171.909C257.647 172.307 257.196 172.617 256.643 172.841C256.094 173.061 255.46 173.17 254.74 173.17ZM262.746 167.955V173H260.325V164.273H262.632V165.812H262.734C262.928 165.305 263.251 164.903 263.706 164.608C264.161 164.309 264.712 164.159 265.359 164.159C265.965 164.159 266.494 164.292 266.945 164.557C267.395 164.822 267.746 165.201 267.996 165.693C268.246 166.182 268.371 166.765 268.371 167.443V173H265.95V167.875C265.954 167.341 265.818 166.924 265.541 166.625C265.265 166.322 264.884 166.17 264.399 166.17C264.073 166.17 263.786 166.241 263.536 166.381C263.289 166.521 263.096 166.725 262.956 166.994C262.82 167.259 262.75 167.58 262.746 167.955ZM272.767 173.165C272.21 173.165 271.714 173.068 271.278 172.875C270.843 172.678 270.498 172.388 270.244 172.006C269.994 171.619 269.869 171.138 269.869 170.562C269.869 170.078 269.958 169.67 270.136 169.341C270.314 169.011 270.557 168.746 270.864 168.545C271.17 168.345 271.519 168.193 271.909 168.091C272.303 167.989 272.716 167.917 273.148 167.875C273.655 167.822 274.064 167.773 274.375 167.727C274.686 167.678 274.911 167.606 275.051 167.511C275.191 167.417 275.261 167.277 275.261 167.091V167.057C275.261 166.697 275.148 166.419 274.92 166.222C274.697 166.025 274.379 165.926 273.966 165.926C273.53 165.926 273.184 166.023 272.926 166.216C272.669 166.405 272.498 166.644 272.415 166.932L270.176 166.75C270.29 166.22 270.513 165.761 270.847 165.375C271.18 164.985 271.61 164.686 272.136 164.477C272.667 164.265 273.28 164.159 273.977 164.159C274.462 164.159 274.926 164.216 275.369 164.33C275.816 164.443 276.212 164.619 276.557 164.858C276.905 165.097 277.18 165.403 277.381 165.778C277.581 166.15 277.682 166.595 277.682 167.114V173H275.386V171.79H275.318C275.178 172.062 274.991 172.303 274.756 172.511C274.521 172.716 274.239 172.877 273.909 172.994C273.58 173.108 273.199 173.165 272.767 173.165ZM273.46 171.494C273.816 171.494 274.131 171.424 274.403 171.284C274.676 171.14 274.89 170.947 275.045 170.705C275.201 170.462 275.278 170.187 275.278 169.881V168.955C275.203 169.004 275.098 169.049 274.966 169.091C274.837 169.129 274.691 169.165 274.528 169.199C274.366 169.229 274.203 169.258 274.04 169.284C273.877 169.307 273.729 169.328 273.597 169.347C273.313 169.388 273.064 169.455 272.852 169.545C272.64 169.636 272.475 169.759 272.358 169.915C272.241 170.066 272.182 170.256 272.182 170.483C272.182 170.812 272.301 171.064 272.54 171.239C272.782 171.409 273.089 171.494 273.46 171.494ZM281.98 167.955V173H279.56V164.273H281.866V165.812H281.969C282.162 165.305 282.486 164.903 282.94 164.608C283.395 164.309 283.946 164.159 284.594 164.159C285.2 164.159 285.728 164.292 286.179 164.557C286.63 164.822 286.98 165.201 287.23 165.693C287.48 166.182 287.605 166.765 287.605 167.443V173H285.185V167.875C285.188 167.341 285.052 166.924 284.776 166.625C284.499 166.322 284.118 166.17 283.634 166.17C283.308 166.17 283.02 166.241 282.77 166.381C282.524 166.521 282.33 166.725 282.19 166.994C282.054 167.259 281.984 167.58 281.98 167.955ZM293.456 173.17C292.562 173.17 291.793 172.981 291.149 172.602C290.509 172.22 290.017 171.689 289.672 171.011C289.331 170.333 289.161 169.553 289.161 168.67C289.161 167.777 289.333 166.992 289.678 166.318C290.026 165.64 290.52 165.112 291.161 164.733C291.801 164.35 292.562 164.159 293.445 164.159C294.206 164.159 294.873 164.297 295.445 164.574C296.017 164.85 296.469 165.239 296.803 165.739C297.136 166.239 297.32 166.826 297.354 167.5H295.07C295.005 167.064 294.835 166.714 294.558 166.449C294.286 166.18 293.928 166.045 293.484 166.045C293.109 166.045 292.782 166.148 292.501 166.352C292.225 166.553 292.009 166.847 291.854 167.233C291.698 167.619 291.621 168.087 291.621 168.636C291.621 169.193 291.696 169.667 291.848 170.057C292.003 170.447 292.221 170.744 292.501 170.949C292.782 171.153 293.109 171.256 293.484 171.256C293.761 171.256 294.009 171.199 294.229 171.085C294.452 170.972 294.636 170.807 294.78 170.591C294.928 170.371 295.024 170.108 295.07 169.801H297.354C297.316 170.468 297.134 171.055 296.808 171.562C296.486 172.066 296.041 172.46 295.473 172.744C294.905 173.028 294.232 173.17 293.456 173.17ZM302.881 173.17C301.983 173.17 301.21 172.989 300.562 172.625C299.919 172.258 299.422 171.739 299.074 171.068C298.725 170.394 298.551 169.597 298.551 168.676C298.551 167.778 298.725 166.991 299.074 166.312C299.422 165.634 299.913 165.106 300.545 164.727C301.182 164.348 301.928 164.159 302.784 164.159C303.36 164.159 303.896 164.252 304.392 164.438C304.892 164.619 305.328 164.894 305.699 165.261C306.074 165.629 306.366 166.091 306.574 166.648C306.782 167.201 306.886 167.848 306.886 168.591V169.256H299.517V167.756H304.608C304.608 167.407 304.532 167.098 304.381 166.83C304.229 166.561 304.019 166.35 303.75 166.199C303.485 166.044 303.176 165.966 302.824 165.966C302.456 165.966 302.131 166.051 301.847 166.222C301.566 166.388 301.347 166.614 301.188 166.898C301.028 167.178 300.947 167.491 300.943 167.835V169.261C300.943 169.693 301.023 170.066 301.182 170.381C301.345 170.695 301.574 170.938 301.869 171.108C302.165 171.278 302.515 171.364 302.92 171.364C303.189 171.364 303.436 171.326 303.659 171.25C303.883 171.174 304.074 171.061 304.233 170.909C304.392 170.758 304.513 170.572 304.597 170.352L306.835 170.5C306.722 171.038 306.489 171.508 306.136 171.909C305.788 172.307 305.337 172.617 304.784 172.841C304.235 173.061 303.6 173.17 302.881 173.17Z" fill="#205E5F"/>
<path d="M286.959 208V199.273H290.07C290.746 199.273 291.307 199.389 291.753 199.622C292.202 199.855 292.537 200.178 292.759 200.589C292.98 200.999 293.091 201.472 293.091 202.009C293.091 202.543 292.979 203.013 292.754 203.419C292.533 203.822 292.197 204.136 291.749 204.361C291.303 204.585 290.741 204.697 290.065 204.697H287.709V203.564H289.946C290.372 203.564 290.719 203.503 290.986 203.381C291.256 203.259 291.453 203.081 291.578 202.848C291.703 202.615 291.766 202.335 291.766 202.009C291.766 201.679 291.702 201.393 291.574 201.152C291.449 200.911 291.251 200.726 290.982 200.598C290.714 200.467 290.364 200.402 289.929 200.402H288.276V208H286.959ZM291.267 204.062L293.423 208H291.923L289.81 204.062H291.267ZM294.693 208V199.273H300.165V200.406H296.01V203.065H299.879V204.195H296.01V206.866H300.216V208H294.693ZM309.172 202.111H307.843C307.792 201.827 307.696 201.577 307.557 201.361C307.418 201.145 307.248 200.962 307.046 200.811C306.844 200.661 306.618 200.547 306.368 200.47C306.121 200.393 305.858 200.355 305.58 200.355C305.077 200.355 304.627 200.482 304.229 200.734C303.834 200.987 303.522 201.358 303.292 201.847C303.064 202.335 302.951 202.932 302.951 203.636C302.951 204.347 303.064 204.946 303.292 205.435C303.522 205.923 303.836 206.293 304.233 206.543C304.631 206.793 305.078 206.918 305.576 206.918C305.851 206.918 306.113 206.881 306.36 206.807C306.61 206.73 306.836 206.618 307.037 206.47C307.239 206.322 307.409 206.142 307.549 205.929C307.691 205.713 307.789 205.466 307.843 205.188L309.172 205.192C309.101 205.621 308.963 206.016 308.759 206.376C308.557 206.734 308.297 207.044 307.979 207.305C307.664 207.564 307.303 207.764 306.897 207.906C306.49 208.048 306.047 208.119 305.567 208.119C304.811 208.119 304.138 207.94 303.547 207.582C302.956 207.222 302.49 206.706 302.15 206.036C301.811 205.365 301.642 204.565 301.642 203.636C301.642 202.705 301.813 201.905 302.154 201.237C302.495 200.567 302.961 200.053 303.551 199.695C304.142 199.334 304.814 199.153 305.567 199.153C306.03 199.153 306.462 199.22 306.863 199.354C307.266 199.484 307.628 199.678 307.949 199.933C308.27 200.186 308.536 200.496 308.746 200.862C308.956 201.226 309.098 201.642 309.172 202.111ZM310.748 208V199.273H316.219V200.406H312.065V203.065H315.934V204.195H312.065V206.866H316.271V208H310.748ZM319.295 199.273V208H317.978V199.273H319.295ZM321.975 199.273L324.404 206.381H324.502L326.931 199.273H328.355L325.214 208H323.693L320.552 199.273H321.975ZM329.615 208V199.273H335.087V200.406H330.932V203.065H334.801V204.195H330.932V206.866H335.138V208H329.615Z" fill="#191919"/>
<path d="M287.696 297H286.298L289.439 288.273H290.96L294.101 297H292.703L290.236 289.858H290.168L287.696 297ZM287.93 293.582H292.464V294.69H287.93V293.582ZM293.9 289.406V288.273H300.654V289.406H297.931V297H296.618V289.406H293.9ZM301.716 289.406V288.273H308.47V289.406H305.747V297H304.435V289.406H301.716ZM309.963 297V288.273H313.074C313.75 288.273 314.311 288.389 314.757 288.622C315.206 288.855 315.541 289.178 315.762 289.589C315.984 289.999 316.095 290.472 316.095 291.009C316.095 291.543 315.983 292.013 315.758 292.419C315.537 292.822 315.201 293.136 314.752 293.361C314.306 293.585 313.745 293.697 313.069 293.697H310.713V292.564H312.95C313.376 292.564 313.723 292.503 313.99 292.381C314.26 292.259 314.457 292.081 314.582 291.848C314.707 291.615 314.77 291.335 314.77 291.009C314.77 290.679 314.706 290.393 314.578 290.152C314.453 289.911 314.255 289.726 313.985 289.598C313.718 289.467 313.368 289.402 312.933 289.402H311.279V297H309.963ZM314.271 293.062L316.427 297H314.927L312.814 293.062H314.271ZM319.014 288.273V297H317.697V288.273H319.014ZM320.931 297V288.273H324.127C324.747 288.273 325.26 288.375 325.666 288.58C326.072 288.781 326.376 289.055 326.578 289.402C326.779 289.746 326.88 290.134 326.88 290.565C326.88 290.929 326.814 291.236 326.68 291.486C326.547 291.733 326.368 291.932 326.143 292.082C325.922 292.23 325.677 292.338 325.41 292.406V292.491C325.7 292.506 325.983 292.599 326.258 292.773C326.537 292.943 326.767 293.186 326.949 293.501C327.13 293.817 327.221 294.2 327.221 294.652C327.221 295.098 327.116 295.499 326.906 295.854C326.699 296.206 326.377 296.486 325.943 296.693C325.508 296.898 324.953 297 324.277 297H320.931ZM322.248 295.871H324.149C324.779 295.871 325.231 295.749 325.504 295.504C325.777 295.26 325.913 294.955 325.913 294.588C325.913 294.312 325.843 294.06 325.704 293.83C325.565 293.599 325.366 293.416 325.108 293.28C324.852 293.143 324.548 293.075 324.196 293.075H322.248V295.871ZM322.248 292.048H324.012C324.308 292.048 324.574 291.991 324.809 291.878C325.048 291.764 325.237 291.605 325.376 291.401C325.518 291.193 325.589 290.949 325.589 290.668C325.589 290.307 325.463 290.004 325.21 289.76C324.957 289.516 324.569 289.393 324.047 289.393H322.248V292.048ZM334.395 288.273H335.716V294.013C335.716 294.624 335.573 295.165 335.286 295.636C334.999 296.105 334.596 296.474 334.076 296.744C333.556 297.011 332.946 297.145 332.248 297.145C331.551 297.145 330.944 297.011 330.424 296.744C329.904 296.474 329.5 296.105 329.213 295.636C328.926 295.165 328.783 294.624 328.783 294.013V288.273H330.1V293.906C330.1 294.301 330.186 294.652 330.36 294.959C330.536 295.266 330.784 295.507 331.105 295.683C331.426 295.857 331.807 295.943 332.248 295.943C332.691 295.943 333.073 295.857 333.394 295.683C333.718 295.507 333.965 295.266 334.135 294.959C334.309 294.652 334.395 294.301 334.395 293.906V288.273ZM337.2 289.406V288.273H343.955V289.406H341.232V297H339.919V289.406H337.2ZM345.447 297V288.273H350.919V289.406H346.764V292.065H350.633V293.195H346.764V295.866H350.97V297H345.447ZM357.438 290.565C357.392 290.162 357.205 289.849 356.875 289.628C356.545 289.403 356.131 289.291 355.631 289.291C355.273 289.291 354.963 289.348 354.702 289.462C354.44 289.572 354.237 289.726 354.092 289.922C353.95 290.115 353.879 290.335 353.879 290.582C353.879 290.79 353.928 290.969 354.024 291.119C354.124 291.27 354.253 291.396 354.412 291.499C354.574 291.598 354.747 291.682 354.932 291.75C355.116 291.815 355.294 291.869 355.464 291.912L356.317 292.134C356.595 292.202 356.881 292.294 357.173 292.411C357.466 292.527 357.737 292.68 357.987 292.871C358.237 293.061 358.439 293.297 358.592 293.578C358.749 293.859 358.827 294.196 358.827 294.588C358.827 295.082 358.699 295.521 358.443 295.905C358.19 296.288 357.822 296.591 357.339 296.812C356.859 297.034 356.278 297.145 355.597 297.145C354.943 297.145 354.378 297.041 353.901 296.834C353.423 296.626 353.05 296.332 352.78 295.952C352.51 295.568 352.361 295.114 352.332 294.588H353.653C353.679 294.903 353.781 295.166 353.96 295.376C354.142 295.584 354.374 295.739 354.655 295.841C354.939 295.94 355.25 295.99 355.588 295.99C355.96 295.99 356.291 295.932 356.581 295.815C356.874 295.696 357.104 295.531 357.271 295.321C357.439 295.108 357.523 294.859 357.523 294.575C357.523 294.317 357.449 294.105 357.301 293.94C357.156 293.776 356.959 293.639 356.709 293.531C356.462 293.423 356.182 293.328 355.869 293.246L354.838 292.964C354.139 292.774 353.585 292.494 353.176 292.125C352.77 291.756 352.567 291.267 352.567 290.659C352.567 290.156 352.703 289.717 352.976 289.342C353.249 288.967 353.618 288.676 354.084 288.469C354.55 288.259 355.075 288.153 355.661 288.153C356.251 288.153 356.773 288.257 357.224 288.464C357.679 288.672 358.037 288.957 358.298 289.321C358.56 289.682 358.696 290.097 358.707 290.565H357.438ZM286.959 301.273H288.557L291.335 308.057H291.438L294.216 301.273H295.814V310H294.561V303.685H294.48L291.906 309.987H290.866L288.293 303.68H288.212V310H286.959V301.273ZM305.309 305.636C305.309 306.568 305.139 307.369 304.798 308.04C304.457 308.707 303.99 309.222 303.396 309.582C302.805 309.94 302.133 310.119 301.38 310.119C300.625 310.119 299.95 309.94 299.356 309.582C298.765 309.222 298.299 308.706 297.958 308.036C297.618 307.365 297.447 306.565 297.447 305.636C297.447 304.705 297.618 303.905 297.958 303.237C298.299 302.567 298.765 302.053 299.356 301.695C299.95 301.334 300.625 301.153 301.38 301.153C302.133 301.153 302.805 301.334 303.396 301.695C303.99 302.053 304.457 302.567 304.798 303.237C305.139 303.905 305.309 304.705 305.309 305.636ZM304.005 305.636C304.005 304.926 303.89 304.328 303.66 303.842C303.433 303.354 303.12 302.984 302.723 302.734C302.328 302.482 301.88 302.355 301.38 302.355C300.877 302.355 300.429 302.482 300.034 302.734C299.639 302.984 299.326 303.354 299.096 303.842C298.869 304.328 298.755 304.926 298.755 305.636C298.755 306.347 298.869 306.946 299.096 307.435C299.326 307.92 299.639 308.29 300.034 308.543C300.429 308.793 300.877 308.918 301.38 308.918C301.88 308.918 302.328 308.793 302.723 308.543C303.12 308.29 303.433 307.92 303.66 307.435C303.89 306.946 304.005 306.347 304.005 305.636ZM309.776 310H306.951V301.273H309.866C310.721 301.273 311.455 301.447 312.069 301.797C312.683 302.143 313.153 302.642 313.479 303.293C313.809 303.94 313.974 304.717 313.974 305.624C313.974 306.533 313.808 307.314 313.475 307.967C313.146 308.621 312.668 309.124 312.043 309.476C311.418 309.825 310.663 310 309.776 310ZM308.268 308.849H309.704C310.369 308.849 310.921 308.724 311.362 308.474C311.802 308.222 312.131 307.857 312.35 307.379C312.569 306.899 312.678 306.314 312.678 305.624C312.678 304.939 312.569 304.358 312.35 303.881C312.134 303.403 311.812 303.041 311.383 302.794C310.954 302.547 310.421 302.423 309.785 302.423H308.268V308.849ZM316.928 301.273V310H315.611V301.273H316.928ZM318.846 310V301.273H324.257V302.406H320.162V305.065H323.87V306.195H320.162V310H318.846ZM327.194 301.273V310H325.877V301.273H327.194ZM329.111 310V301.273H334.583V302.406H330.428V305.065H334.297V306.195H330.428V308.866H334.634V310H329.111ZM339.167 310H336.342V301.273H339.256C340.112 301.273 340.846 301.447 341.46 301.797C342.073 302.143 342.543 302.642 342.87 303.293C343.2 303.94 343.364 304.717 343.364 305.624C343.364 306.533 343.198 307.314 342.866 307.967C342.536 308.621 342.059 309.124 341.434 309.476C340.809 309.825 340.053 310 339.167 310ZM337.658 308.849H339.094C339.759 308.849 340.312 308.724 340.752 308.474C341.192 308.222 341.522 307.857 341.741 307.379C341.96 306.899 342.069 306.314 342.069 305.624C342.069 304.939 341.96 304.358 341.741 303.881C341.525 303.403 341.202 303.041 340.773 302.794C340.344 302.547 339.812 302.423 339.175 302.423H337.658V308.849Z" fill="#191919"/>
<path d="M284.959 345V336.273H290.371V337.406H286.276V340.065H289.983V341.195H286.276V345H284.959ZM299.571 340.636C299.571 341.568 299.401 342.369 299.06 343.04C298.719 343.707 298.251 344.222 297.658 344.582C297.067 344.94 296.395 345.119 295.642 345.119C294.886 345.119 294.212 344.94 293.618 344.582C293.027 344.222 292.561 343.706 292.22 343.036C291.879 342.365 291.709 341.565 291.709 340.636C291.709 339.705 291.879 338.905 292.22 338.237C292.561 337.567 293.027 337.053 293.618 336.695C294.212 336.334 294.886 336.153 295.642 336.153C296.395 336.153 297.067 336.334 297.658 336.695C298.251 337.053 298.719 337.567 299.06 338.237C299.401 338.905 299.571 339.705 299.571 340.636ZM298.267 340.636C298.267 339.926 298.152 339.328 297.922 338.842C297.695 338.354 297.382 337.984 296.984 337.734C296.589 337.482 296.142 337.355 295.642 337.355C295.139 337.355 294.69 337.482 294.295 337.734C293.901 337.984 293.588 338.354 293.358 338.842C293.131 339.328 293.017 339.926 293.017 340.636C293.017 341.347 293.131 341.946 293.358 342.435C293.588 342.92 293.901 343.29 294.295 343.543C294.69 343.793 295.139 343.918 295.642 343.918C296.142 343.918 296.589 343.793 296.984 343.543C297.382 343.29 297.695 342.92 297.922 342.435C298.152 341.946 298.267 341.347 298.267 340.636ZM301.213 345V336.273H304.324C305 336.273 305.561 336.389 306.007 336.622C306.456 336.855 306.791 337.178 307.012 337.589C307.234 337.999 307.345 338.472 307.345 339.009C307.345 339.543 307.233 340.013 307.008 340.419C306.787 340.822 306.451 341.136 306.002 341.361C305.556 341.585 304.995 341.697 304.319 341.697H301.963V340.564H304.2C304.626 340.564 304.973 340.503 305.24 340.381C305.51 340.259 305.707 340.081 305.832 339.848C305.957 339.615 306.02 339.335 306.02 339.009C306.02 338.679 305.956 338.393 305.828 338.152C305.703 337.911 305.505 337.726 305.235 337.598C304.968 337.467 304.618 337.402 304.183 337.402H302.529V345H301.213ZM305.521 341.062L307.677 345H306.177L304.064 341.062H305.521ZM308.947 345V336.273H310.264V340.44H310.37L314.031 336.273H315.689L312.169 340.202L315.701 345H314.116L311.295 341.101L310.264 342.286V345H308.947Z" fill="#191919"/>
<path d="M183.784 399H180.959V390.273H183.874C184.729 390.273 185.463 390.447 186.077 390.797C186.69 391.143 187.161 391.642 187.487 392.293C187.817 392.94 187.982 393.717 187.982 394.624C187.982 395.533 187.815 396.314 187.483 396.967C187.153 397.621 186.676 398.124 186.051 398.476C185.426 398.825 184.67 399 183.784 399ZM182.276 397.849H183.712C184.376 397.849 184.929 397.724 185.369 397.474C185.81 397.222 186.139 396.857 186.358 396.379C186.577 395.899 186.686 395.314 186.686 394.624C186.686 393.939 186.577 393.358 186.358 392.881C186.142 392.403 185.82 392.041 185.391 391.794C184.962 391.547 184.429 391.423 183.793 391.423H182.276V397.849ZM189.619 399V390.273H192.73C193.406 390.273 193.967 390.389 194.413 390.622C194.862 390.855 195.197 391.178 195.419 391.589C195.64 391.999 195.751 392.472 195.751 393.009C195.751 393.543 195.639 394.013 195.414 394.419C195.193 394.822 194.858 395.136 194.409 395.361C193.963 395.585 193.402 395.697 192.725 395.697H190.369V394.564H192.606C193.032 394.564 193.379 394.503 193.646 394.381C193.916 394.259 194.113 394.081 194.238 393.848C194.363 393.615 194.426 393.335 194.426 393.009C194.426 392.679 194.362 392.393 194.234 392.152C194.109 391.911 193.912 391.726 193.642 391.598C193.375 391.467 193.024 391.402 192.589 391.402H190.936V399H189.619ZM193.927 395.062L196.083 399H194.583L192.47 395.062H193.927ZM204.934 394.636C204.934 395.568 204.764 396.369 204.423 397.04C204.082 397.707 203.615 398.222 203.021 398.582C202.43 398.94 201.758 399.119 201.005 399.119C200.25 399.119 199.575 398.94 198.981 398.582C198.39 398.222 197.924 397.706 197.583 397.036C197.243 396.365 197.072 395.565 197.072 394.636C197.072 393.705 197.243 392.905 197.583 392.237C197.924 391.567 198.39 391.053 198.981 390.695C199.575 390.334 200.25 390.153 201.005 390.153C201.758 390.153 202.43 390.334 203.021 390.695C203.615 391.053 204.082 391.567 204.423 392.237C204.764 392.905 204.934 393.705 204.934 394.636ZM203.63 394.636C203.63 393.926 203.515 393.328 203.285 392.842C203.058 392.354 202.745 391.984 202.348 391.734C201.953 391.482 201.505 391.355 201.005 391.355C200.502 391.355 200.054 391.482 199.659 391.734C199.264 391.984 198.951 392.354 198.721 392.842C198.494 393.328 198.38 393.926 198.38 394.636C198.38 395.347 198.494 395.946 198.721 396.435C198.951 396.92 199.264 397.29 199.659 397.543C200.054 397.793 200.502 397.918 201.005 397.918C201.505 397.918 201.953 397.793 202.348 397.543C202.745 397.29 203.058 396.92 203.285 396.435C203.515 395.946 203.63 395.347 203.63 394.636ZM206.576 399V390.273H209.687C210.366 390.273 210.928 390.396 211.374 390.643C211.82 390.891 212.154 391.229 212.376 391.658C212.597 392.084 212.708 392.564 212.708 393.098C212.708 393.635 212.596 394.118 212.371 394.547C212.15 394.973 211.815 395.311 211.366 395.561C210.92 395.808 210.359 395.932 209.683 395.932H207.543V394.815H209.563C209.992 394.815 210.34 394.741 210.607 394.594C210.874 394.443 211.07 394.239 211.195 393.98C211.32 393.722 211.383 393.428 211.383 393.098C211.383 392.768 211.32 392.476 211.195 392.22C211.07 391.964 210.873 391.764 210.603 391.619C210.336 391.474 209.984 391.402 209.546 391.402H207.893V399H206.576Z" fill="#191919"/>
<path d="M319.959 450V441.273H323.07C323.746 441.273 324.307 441.389 324.753 441.622C325.202 441.855 325.537 442.178 325.759 442.589C325.98 442.999 326.091 443.472 326.091 444.009C326.091 444.543 325.979 445.013 325.754 445.419C325.533 445.822 325.197 446.136 324.749 446.361C324.303 446.585 323.741 446.697 323.065 446.697H320.709V445.564H322.946C323.372 445.564 323.719 445.503 323.986 445.381C324.256 445.259 324.453 445.081 324.578 444.848C324.703 444.615 324.766 444.335 324.766 444.009C324.766 443.679 324.702 443.393 324.574 443.152C324.449 442.911 324.251 442.726 323.982 442.598C323.714 442.467 323.364 442.402 322.929 442.402H321.276V450H319.959ZM324.267 446.062L326.423 450H324.923L322.81 446.062H324.267ZM335.274 445.636C335.274 446.568 335.104 447.369 334.763 448.04C334.422 448.707 333.955 449.222 333.361 449.582C332.77 449.94 332.098 450.119 331.345 450.119C330.589 450.119 329.915 449.94 329.321 449.582C328.73 449.222 328.264 448.706 327.923 448.036C327.582 447.365 327.412 446.565 327.412 445.636C327.412 444.705 327.582 443.905 327.923 443.237C328.264 442.567 328.73 442.053 329.321 441.695C329.915 441.334 330.589 441.153 331.345 441.153C332.098 441.153 332.77 441.334 333.361 441.695C333.955 442.053 334.422 442.567 334.763 443.237C335.104 443.905 335.274 444.705 335.274 445.636ZM333.97 445.636C333.97 444.926 333.855 444.328 333.625 443.842C333.398 443.354 333.085 442.984 332.688 442.734C332.293 442.482 331.845 442.355 331.345 442.355C330.842 442.355 330.393 442.482 329.999 442.734C329.604 442.984 329.291 443.354 329.061 443.842C328.834 444.328 328.72 444.926 328.72 445.636C328.72 446.347 328.834 446.946 329.061 447.435C329.291 447.92 329.604 448.29 329.999 448.543C330.393 448.793 330.842 448.918 331.345 448.918C331.845 448.918 332.293 448.793 332.688 448.543C333.085 448.29 333.398 447.92 333.625 447.435C333.855 446.946 333.97 446.347 333.97 445.636ZM342.528 441.273H343.849V447.013C343.849 447.624 343.706 448.165 343.419 448.636C343.132 449.105 342.728 449.474 342.208 449.744C341.689 450.011 341.079 450.145 340.38 450.145C339.684 450.145 339.076 450.011 338.556 449.744C338.037 449.474 337.633 449.105 337.346 448.636C337.059 448.165 336.916 447.624 336.916 447.013V441.273H338.233V446.906C338.233 447.301 338.319 447.652 338.493 447.959C338.669 448.266 338.917 448.507 339.238 448.683C339.559 448.857 339.94 448.943 340.38 448.943C340.824 448.943 341.206 448.857 341.527 448.683C341.85 448.507 342.098 448.266 342.268 447.959C342.441 447.652 342.528 447.301 342.528 446.906V441.273ZM345.333 442.406V441.273H352.087V442.406H349.364V450H348.052V442.406H345.333ZM353.58 450V441.273H359.051V442.406H354.897V445.065H358.766V446.195H354.897V448.866H359.103V450H353.58Z" fill="#191919"/>
<path d="M322.784 492H319.959V483.273H322.874C323.729 483.273 324.463 483.447 325.077 483.797C325.69 484.143 326.161 484.642 326.487 485.293C326.817 485.94 326.982 486.717 326.982 487.624C326.982 488.533 326.815 489.314 326.483 489.967C326.153 490.621 325.676 491.124 325.051 491.476C324.426 491.825 323.67 492 322.784 492ZM321.276 490.849H322.712C323.376 490.849 323.929 490.724 324.369 490.474C324.81 490.222 325.139 489.857 325.358 489.379C325.577 488.899 325.686 488.314 325.686 487.624C325.686 486.939 325.577 486.358 325.358 485.881C325.142 485.403 324.82 485.041 324.391 484.794C323.962 484.547 323.429 484.423 322.793 484.423H321.276V490.849ZM328.619 492V483.273H331.73C332.406 483.273 332.967 483.389 333.413 483.622C333.862 483.855 334.197 484.178 334.419 484.589C334.64 484.999 334.751 485.472 334.751 486.009C334.751 486.543 334.639 487.013 334.414 487.419C334.193 487.822 333.858 488.136 333.409 488.361C332.963 488.585 332.402 488.697 331.725 488.697H329.369V487.564H331.606C332.032 487.564 332.379 487.503 332.646 487.381C332.916 487.259 333.113 487.081 333.238 486.848C333.363 486.615 333.426 486.335 333.426 486.009C333.426 485.679 333.362 485.393 333.234 485.152C333.109 484.911 332.912 484.726 332.642 484.598C332.375 484.467 332.024 484.402 331.589 484.402H329.936V492H328.619ZM332.927 488.062L335.083 492H333.583L331.47 488.062H332.927ZM343.934 487.636C343.934 488.568 343.764 489.369 343.423 490.04C343.082 490.707 342.615 491.222 342.021 491.582C341.43 491.94 340.758 492.119 340.005 492.119C339.25 492.119 338.575 491.94 337.981 491.582C337.39 491.222 336.924 490.706 336.583 490.036C336.243 489.365 336.072 488.565 336.072 487.636C336.072 486.705 336.243 485.905 336.583 485.237C336.924 484.567 337.39 484.053 337.981 483.695C338.575 483.334 339.25 483.153 340.005 483.153C340.758 483.153 341.43 483.334 342.021 483.695C342.615 484.053 343.082 484.567 343.423 485.237C343.764 485.905 343.934 486.705 343.934 487.636ZM342.63 487.636C342.63 486.926 342.515 486.328 342.285 485.842C342.058 485.354 341.745 484.984 341.348 484.734C340.953 484.482 340.505 484.355 340.005 484.355C339.502 484.355 339.054 484.482 338.659 484.734C338.264 484.984 337.951 485.354 337.721 485.842C337.494 486.328 337.38 486.926 337.38 487.636C337.38 488.347 337.494 488.946 337.721 489.435C337.951 489.92 338.264 490.29 338.659 490.543C339.054 490.793 339.502 490.918 340.005 490.918C340.505 490.918 340.953 490.793 341.348 490.543C341.745 490.29 342.058 489.92 342.285 489.435C342.515 488.946 342.63 488.347 342.63 487.636ZM345.576 492V483.273H348.687C349.366 483.273 349.928 483.396 350.374 483.643C350.82 483.891 351.154 484.229 351.376 484.658C351.597 485.084 351.708 485.564 351.708 486.098C351.708 486.635 351.596 487.118 351.371 487.547C351.15 487.973 350.815 488.311 350.366 488.561C349.92 488.808 349.359 488.932 348.683 488.932H346.543V487.815H348.563C348.992 487.815 349.34 487.741 349.607 487.594C349.874 487.443 350.07 487.239 350.195 486.98C350.32 486.722 350.383 486.428 350.383 486.098C350.383 485.768 350.32 485.476 350.195 485.22C350.07 484.964 349.873 484.764 349.603 484.619C349.336 484.474 348.984 484.402 348.546 484.402H346.893V492H345.576Z" fill="#191919"/>
<circle cx="264" cy="204" r="11.5" fill="#728E9B" stroke="#205E5F"/>
<circle cx="264" cy="298" r="11.5" fill="#728E9B" stroke="#205E5F"/>
<circle cx="296" cy="443" r="11.5" fill="#728E9B" stroke="#205E5F"/>
<circle cx="296" cy="487" r="11.5" fill="#728E9B" stroke="#205E5F"/>
<circle cx="232" cy="394" r="11.5" fill="#728E9B" stroke="#205E5F"/>
<circle cx="264" cy="251" r="14.5" fill="white" stroke="#205E5F"/>
<circle cx="296" cy="396" r="14.5" fill="white" stroke="#205E5F"/>
<path d="M264 236L266.887 231H261.113L264 236ZM263.5 216V231.5H264.5V216H263.5Z" fill="black"/>
<path d="M264 286L266.887 281H261.113L264 286ZM263.5 266V281.5H264.5V266H263.5Z" fill="black"/>
<path d="M264 330L266.887 325H261.113L264 330ZM263.5 310V325.5H264.5V310H263.5Z" fill="black"/>
<path d="M296 431L298.887 426H293.113L296 431ZM295.5 411V426.5H296.5V411H295.5Z" fill="black"/>
<path d="M296 475L298.887 470H293.113L296 475ZM295.5 455V470.5H296.5V455H295.5Z" fill="black"/>
<path d="M232 382L237.664 380.88L233.862 376.535L232 382ZM263.671 353.624L235.057 378.66L235.716 379.413L264.329 354.376L263.671 353.624Z" fill="black"/>
<path d="M296 381L294.04 375.569L290.317 379.982L296 381ZM263.678 354.382L292.238 378.48L292.883 377.716L264.322 353.618L263.678 354.382Z" fill="black"/>
<circle cx="264" cy="342" r="11.5" fill="#728E9B" stroke="#205E5F"/>
<mask id="mask0_7_43" style="mask-type:alpha" maskUnits="userSpaceOnUse" x="254" y="241" width="20" height="20">
<rect x="254" y="241" width="20" height="20" fill="#D9D9D9"/>
</mask>
<g mask="url(#mask0_7_43)">
<path d="M258.167 256.833V251.833H259.834V255.167H263.167V256.833H258.167ZM268.167 250.167V246.833H264.834V245.167H269.834V250.167H268.167Z" fill="#D18686"/>
</g>
<mask id="mask1_7_43" style="mask-type:alpha" maskUnits="userSpaceOnUse" x="286" y="386" width="20" height="20">
<rect x="286" y="386" width="20" height="20" fill="#D9D9D9"/>
</mask>
<g mask="url(#mask1_7_43)">
<path d="M290.167 401.833V396.833H291.834V400.167H295.167V401.833H290.167ZM300.167 395.167V391.833H296.834V390.167H301.834V395.167H300.167Z" fill="#D18686"/>
</g>
</g>
<defs>
<filter id="filter0_d_7_43" x="197" y="79" width="290" height="244" filterUnits="userSpaceOnUse" color-interpolation-filters="sRGB">
<feFlood flood-opacity="0" result="BackgroundImageFix"/>
<feColorMatrix in="SourceAlpha" type="matrix" values="0 0 0 0 0 0 0 0 0 0 0 0 0 0 0 0 0 0 127 0" result="hardAlpha"/>
<feOffset dy="2"/>
<feGaussianBlur stdDeviation="1.5"/>
<feComposite in2="hardAlpha" operator="out"/>
<feColorMatrix type="matrix" values="0 0 0 0 0 0 0 0 0 0 0 0 0 0 0 0 0 0 0.15 0"/>
<feBlend mode="normal" in2="BackgroundImageFix" result="effect1_dropShadow_7_43"/>
<feBlend mode="normal" in="SourceGraphic" in2="effect1_dropShadow_7_43" result="shape"/>
</filter>
<filter id="filter1_d_7_43" x="113" y="134" width="316" height="391" filterUnits="userSpaceOnUse" color-interpolation-filters="sRGB">
<feFlood flood-opacity="0" result="BackgroundImageFix"/>
<feColorMatrix in="SourceAlpha" type="matrix" values="0 0 0 0 0 0 0 0 0 0 0 0 0 0 0 0 0 0 127 0" result="hardAlpha"/>
<feOffset dy="2"/>
<feGaussianBlur stdDeviation="1.5"/>
<feComposite in2="hardAlpha" operator="out"/>
<feColorMatrix type="matrix" values="0 0 0 0 0 0 0 0 0 0 0 0 0 0 0 0 0 0 0.15 0"/>
<feBlend mode="normal" in2="BackgroundImageFix" result="effect1_dropShadow_7_43"/>
<feBlend mode="normal" in="SourceGraphic" in2="effect1_dropShadow_7_43" result="shape"/>
</filter>
</defs>
</svg>
