<svg width="600" height="600" viewBox="0 0 600 600" fill="none" xmlns="http://www.w3.org/2000/svg">
<g filter="url(#filter0_d_9_31)">
<rect x="211" y="280" width="262" height="225" rx="16" fill="#F4F5F6"/>
</g>
<g filter="url(#filter1_d_9_31)">
<rect x="11" y="120" width="225" height="193" rx="16" fill="#F4F5F6"/>
</g>
<g filter="url(#filter2_d_9_31)">
<rect x="454" y="81" width="132" height="113" rx="16" fill="#F4F5F6"/>
</g>
<g filter="url(#filter3_dd_9_31)">
<g clip-path="url(#clip0_9_31)">
<rect x="91" y="145" width="451" height="270" rx="16" fill="white"/>
<mask id="mask0_9_31" style="mask-type:alpha" maskUnits="userSpaceOnUse" x="159" y="123" width="314" height="314">
<rect x="159" y="123" width="314" height="314" fill="#D9D9D9"/>
</mask>
<g mask="url(#mask0_9_31)">
<path d="M241.098 384.667C221.909 384.667 205.609 377.961 192.199 364.551C178.788 351.141 172.083 334.841 172.083 315.652C172.083 298.644 177.534 283.707 188.437 270.842C199.34 257.976 213.186 250.235 229.977 247.619C234.338 226.467 244.586 209.186 260.723 195.776C276.859 182.366 295.502 175.66 316.654 175.66C341.076 175.66 361.682 184.546 378.473 202.318C395.263 220.089 403.658 241.404 403.658 266.262V274.112C419.358 273.676 432.659 278.746 443.562 289.322C454.465 299.897 459.916 313.253 459.916 329.389C459.916 344.435 454.465 357.41 443.562 368.312C432.659 379.215 419.685 384.667 404.639 384.667H241.098ZM241.098 365.042H404.639C414.452 365.042 422.847 361.553 429.825 354.575C436.802 347.597 440.291 339.202 440.291 329.389C440.291 319.577 436.802 311.182 429.825 304.204C422.847 297.226 414.452 293.737 404.639 293.737H384.033V266.262C384.033 246.419 377.382 229.629 364.081 215.892C350.78 202.154 334.534 195.285 315.346 195.285C296.157 195.285 279.857 202.154 266.447 215.892C253.036 229.629 246.331 246.419 246.331 266.262H240.116C226.597 266.262 215.149 271.005 205.773 280.491C196.396 289.976 191.708 301.696 191.708 315.652C191.708 329.389 196.505 341.055 206.1 350.65C215.694 360.244 227.36 365.042 241.098 365.042Z" fill="#7A96A4"/>
</g>
<mask id="mask1_9_31" style="mask-type:alpha" maskUnits="userSpaceOnUse" x="236" y="200" width="160" height="160">
<rect x="236" y="200" width="160" height="160" fill="#D9D9D9"/>
</mask>
<g mask="url(#mask1_9_31)">
<path d="M272.666 346.667C269.916 346.667 267.562 345.688 265.604 343.729C263.645 341.771 262.666 339.417 262.666 336.667V264.333C262.666 261.583 263.645 259.229 265.604 257.271C267.562 255.313 269.916 254.333 272.666 254.333H284.333V238.333C284.333 229.572 287.422 222.104 293.6 215.929C299.779 209.754 307.251 206.667 316.017 206.667C324.783 206.667 332.249 209.754 338.416 215.929C344.583 222.104 347.666 229.572 347.666 238.333V254.333H359.333C362.083 254.333 364.437 255.313 366.395 257.271C368.354 259.229 369.333 261.583 369.333 264.333V336.667C369.333 339.417 368.354 341.771 366.395 343.729C364.437 345.688 362.083 346.667 359.333 346.667H272.666ZM316.027 313.333C319.564 313.333 322.583 312.109 325.083 309.662C327.583 307.214 328.833 304.271 328.833 300.833C328.833 297.5 327.573 294.472 325.055 291.75C322.536 289.028 319.508 287.667 315.971 287.667C312.434 287.667 309.416 289.028 306.916 291.75C304.416 294.472 303.166 297.528 303.166 300.917C303.166 304.306 304.425 307.222 306.944 309.667C309.463 312.111 312.49 313.333 316.027 313.333ZM294.333 254.333H337.666V238.333C337.666 232.315 335.561 227.199 331.352 222.986C327.143 218.773 322.032 216.667 316.019 216.667C310.006 216.667 304.888 218.773 300.666 222.986C296.444 227.199 294.333 232.315 294.333 238.333V254.333Z" fill="#0F3541"/>
</g>
</g>
</g>
<defs>
<filter id="filter0_d_9_31" x="208" y="279" width="268" height="231" filterUnits="userSpaceOnUse" color-interpolation-filters="sRGB">
<feFlood flood-opacity="0" result="BackgroundImageFix"/>
<feColorMatrix in="SourceAlpha" type="matrix" values="0 0 0 0 0 0 0 0 0 0 0 0 0 0 0 0 0 0 127 0" result="hardAlpha"/>
<feOffset dy="2"/>
<feGaussianBlur stdDeviation="1.5"/>
<feComposite in2="hardAlpha" operator="out"/>
<feColorMatrix type="matrix" values="0 0 0 0 0 0 0 0 0 0 0 0 0 0 0 0 0 0 0.15 0"/>
<feBlend mode="normal" in2="BackgroundImageFix" result="effect1_dropShadow_9_31"/>
<feBlend mode="normal" in="SourceGraphic" in2="effect1_dropShadow_9_31" result="shape"/>
</filter>
<filter id="filter1_d_9_31" x="8" y="119" width="231" height="199" filterUnits="userSpaceOnUse" color-interpolation-filters="sRGB">
<feFlood flood-opacity="0" result="BackgroundImageFix"/>
<feColorMatrix in="SourceAlpha" type="matrix" values="0 0 0 0 0 0 0 0 0 0 0 0 0 0 0 0 0 0 127 0" result="hardAlpha"/>
<feOffset dy="2"/>
<feGaussianBlur stdDeviation="1.5"/>
<feComposite in2="hardAlpha" operator="out"/>
<feColorMatrix type="matrix" values="0 0 0 0 0 0 0 0 0 0 0 0 0 0 0 0 0 0 0.15 0"/>
<feBlend mode="normal" in2="BackgroundImageFix" result="effect1_dropShadow_9_31"/>
<feBlend mode="normal" in="SourceGraphic" in2="effect1_dropShadow_9_31" result="shape"/>
</filter>
<filter id="filter2_d_9_31" x="451" y="80" width="138" height="119" filterUnits="userSpaceOnUse" color-interpolation-filters="sRGB">
<feFlood flood-opacity="0" result="BackgroundImageFix"/>
<feColorMatrix in="SourceAlpha" type="matrix" values="0 0 0 0 0 0 0 0 0 0 0 0 0 0 0 0 0 0 127 0" result="hardAlpha"/>
<feOffset dy="2"/>
<feGaussianBlur stdDeviation="1.5"/>
<feComposite in2="hardAlpha" operator="out"/>
<feColorMatrix type="matrix" values="0 0 0 0 0 0 0 0 0 0 0 0 0 0 0 0 0 0 0.15 0"/>
<feBlend mode="normal" in2="BackgroundImageFix" result="effect1_dropShadow_9_31"/>
<feBlend mode="normal" in="SourceGraphic" in2="effect1_dropShadow_9_31" result="shape"/>
</filter>
<filter id="filter3_dd_9_31" x="79" y="141" width="475" height="294" filterUnits="userSpaceOnUse" color-interpolation-filters="sRGB">
<feFlood flood-opacity="0" result="BackgroundImageFix"/>
<feColorMatrix in="SourceAlpha" type="matrix" values="0 0 0 0 0 0 0 0 0 0 0 0 0 0 0 0 0 0 127 0" result="hardAlpha"/>
<feOffset dy="8"/>
<feGaussianBlur stdDeviation="6"/>
<feComposite in2="hardAlpha" operator="out"/>
<feColorMatrix type="matrix" values="0 0 0 0 0 0 0 0 0 0 0 0 0 0 0 0 0 0 0.15 0"/>
<feBlend mode="normal" in2="BackgroundImageFix" result="effect1_dropShadow_9_31"/>
<feColorMatrix in="SourceAlpha" type="matrix" values="0 0 0 0 0 0 0 0 0 0 0 0 0 0 0 0 0 0 127 0" result="hardAlpha"/>
<feOffset dy="4"/>
<feGaussianBlur stdDeviation="2"/>
<feComposite in2="hardAlpha" operator="out"/>
<feColorMatrix type="matrix" values="0 0 0 0 0 0 0 0 0 0 0 0 0 0 0 0 0 0 0.25 0"/>
<feBlend mode="normal" in2="effect1_dropShadow_9_31" result="effect2_dropShadow_9_31"/>
<feBlend mode="normal" in="SourceGraphic" in2="effect2_dropShadow_9_31" result="shape"/>
</filter>
<clipPath id="clip0_9_31">
<rect x="91" y="145" width="451" height="270" rx="16" fill="white"/>
</clipPath>
</defs>
</svg>
