<svg id="minifi" xmlns="http://www.w3.org/2000/svg" viewBox="0 0 115 44"><defs><style>.cls-1{fill:#c7d2d7;}</style></defs><title>minifi-logo-s-for-dark-bg</title><g id="minifi-logo-s-for-dark-bg"><path class="cls-1" d="M75.67,29.64c-.28-4,1.39-7.73,3.41-11s4.69-6.4,6.9-9.69a52.11,52.11,0,0,0,2.74-4.55A53,53,0,0,0,92.2,10c1.6,2.26,3.36,4.4,4.91,6.69a38.9,38.9,0,0,1,2.5,4.17A4.51,4.51,0,0,0,100,20a67.74,67.74,0,0,0-5.69-8.18,53.07,53.07,0,0,1-4.78-7.29c-.26-.48-.51-1-.74-1.46a50.11,50.11,0,0,1-5,8c-2.62,3.47-5.4,6.87-7.25,10.84A17.26,17.26,0,0,0,74.7,29a3.4,3.4,0,0,0,1,.62C75.65,29.32,75.42,29.53,75.67,29.64Z"/><path class="cls-1" d="M88.71,41.95a13.11,13.11,0,0,1-12.34-8.86c-.38,0-.76-.08-1.14-.15a14,14,0,0,0,27,0l-1.36.75A13.1,13.1,0,0,1,88.71,41.95Z"/><polygon class="cls-1" points="28.38 19.49 30.25 19.49 30.4 16.71 28.53 16.71 28.38 19.49"/><polygon class="cls-1" points="50.2 19.49 52.07 19.49 52.22 16.71 50.34 16.71 50.2 19.49"/><path class="cls-1" d="M5,29.44c.1-1.82.62-3.88,2.17-5,1.33-1,3.75-1.31,4.95,0a4.27,4.27,0,0,1,.77,3.06l-.56,10.7h1.87l.47-8.92c.1-2,.62-4.32,2.55-5.3a4.8,4.8,0,0,1,2.86-.33,2.66,2.66,0,0,1,1.87,1,4.75,4.75,0,0,1,.59,2.91L22,38.24h1.87l.56-10.7c.09-1.63-.15-3.52-1.52-4.61a5.79,5.79,0,0,0-5.55-.47,5.35,5.35,0,0,0-2.75,2.63,3.72,3.72,0,0,0-1-1.91,4.34,4.34,0,0,0-2.1-1.07,5.7,5.7,0,0,0-4.58.95A6.68,6.68,0,0,0,5.2,25.12H5.11l.14-2.66H3.52L2.7,38.24H4.57Z"/><path class="cls-1" d="M35.44,29a5.84,5.84,0,0,1,2.95-5c1.62-.8,4.18-.73,5.21,1a5.85,5.85,0,0,1,.58,3.33l-.52,9.84h1.87l.53-10.15c.11-2-.16-4.37-2.15-5.44A6.37,6.37,0,0,0,41,22a5.93,5.93,0,0,0-3.13.77,5.1,5.1,0,0,0-2.18,2.41h-.06l.14-2.73H33.91l-.83,15.79H35Z"/><path class="cls-1" d="M59.22,24.08h3.16l.09-1.62H59.3l.07-1.38c0-.9,0-2.08.81-2.68s1.88-.37,2.76-.22L63,16.52c-1.36-.19-2.93-.29-4.08.6S57.58,19.64,57.51,21l-.08,1.44H54.82l-.09,1.62h2.61L56.6,38.24h1.87Z"/><polygon class="cls-1" points="30.1 22.46 28.23 22.46 27.4 38.24 29.27 38.24 30.1 22.46"/><polygon class="cls-1" points="51.92 22.46 50.04 22.46 49.22 38.24 51.09 38.24 51.92 22.46"/><polygon class="cls-1" points="67.51 22.46 65.64 22.46 64.81 38.24 66.68 38.24 67.51 22.46"/><polygon class="cls-1" points="65.79 19.49 67.67 19.49 67.81 16.71 65.94 16.71 65.79 19.49"/><path class="cls-1" d="M108.22,18.25a4.24,4.24,0,0,0-.21-.74l4.1-.94a5,5,0,0,1,.61,1Z"/><path class="cls-1" d="M104.79,25.46c2.31-2.22,3.46-4.28,3.51-6.27l4.74-.7c.55,2.39-.61,5.09-3.45,8Z"/><path class="cls-1" d="M96.51,31a43.66,43.66,0,0,0,4-2.25,29.93,29.93,0,0,0,3.46-2.57l4.84,1.06a32,32,0,0,1-3.87,3.06,50.29,50.29,0,0,1-5.71,3.32Z"/><path class="cls-1" d="M82.2,32.92c1-.17,2-.39,3-.66L85,34.42c-1.32.35-2.6.64-3.83.85Z"/><path class="cls-1" d="M86.14,32A44.86,44.86,0,0,0,97,27.37l2.3,1.09a53.18,53.18,0,0,1-10.38,4.76c-1,.34-2,.65-2.92.93Z"/><path class="cls-1" d="M102.75,22.44a9,9,0,0,0,.62-1l3.43-.19a9.34,9.34,0,0,1-.8,1.36Z"/><path class="cls-1" d="M97.9,26.78A20,20,0,0,0,102,23.33l3.29.19a22.44,22.44,0,0,1-5.12,4.34Z"/><path class="cls-1" d="M92.7,27.31A26.58,26.58,0,0,0,97,24.7l1.72.38a31.47,31.47,0,0,1-5.14,3.07Z"/><path class="cls-1" d="M89.54,28.69c.79-.3,1.54-.63,2.26-1l.86.84c-.88.4-1.8.79-2.74,1.16Z"/><path class="cls-1" d="M80.46,30.92A30.26,30.26,0,0,0,88.67,29l.38,1a36.13,36.13,0,0,1-9.65,2.29Z"/><path class="cls-1" d="M107.57,16.65a6.39,6.39,0,0,0-3.62-2.39,16.51,16.51,0,0,0-4.83-.6c-.77,0-1.57,0-2.45.11l0-.05c1.21-.17,2.33-.28,3.41-.35.7,0,1.4-.07,2.1-.07a23.55,23.55,0,0,1,4.14.34,10.26,10.26,0,0,1,5.08,2.15Z"/><path class="cls-1" d="M103.8,20.51a4.07,4.07,0,0,0,.16-2.4,3.63,3.63,0,0,0-1.52-2,9.38,9.38,0,0,0-5-1.29l-.1-.13c.62,0,1.24-.07,1.87-.07a17.56,17.56,0,0,1,3.46.31c2.14.43,3.58,1.26,4.27,2.48l0,0a3.78,3.78,0,0,1,.21,2.88Z"/><path class="cls-1" d="M97.91,24a9.4,9.4,0,0,0,2.61-3.28,3.4,3.4,0,0,0,.23-2.24,3,3,0,0,0-1.26-1.65,4.9,4.9,0,0,0-1.07-.52,4.29,4.29,0,0,0-.3-.49,9.73,9.73,0,0,1,2.71.54,3.74,3.74,0,0,1,1.95,1.42,2.79,2.79,0,0,1,.17,2.38,10,10,0,0,1-3.3,4.23Z"/><path class="cls-1" d="M77.78,32.41a13.82,13.82,0,0,1-2.41-.19c-1.44-.25-3.25-.86-3.73-2.36-.4-1.26.19-2.77,1.76-4.51a16.57,16.57,0,0,1,1.49-1.44l-.12.37c-.61.69-2.57,3.31-.65,5.22,1,1,2.62,1.48,5,1.48h.18l-1.07,1.44Z"/><g id="apache-nifi"><path class="cls-1" d="M7.15,7.44l1.33,6.27H7.17l-.22-1.33H5.28l-.36,1.33H3.6l2-6.27Zm-.37,3.91L6.32,8.53h0l-.75,2.82Z"/><path class="cls-1" d="M11.93,7.44a1.77,1.77,0,0,1,.8.16,1.38,1.38,0,0,1,.51.43,1.58,1.58,0,0,1,.26.6,2.74,2.74,0,0,1,.05.69,2.31,2.31,0,0,1-.19.84,1.65,1.65,0,0,1-.43.59,1.81,1.81,0,0,1-.65.34,2.8,2.8,0,0,1-.82.11h-.68l-.13,2.5H9.39l.33-6.27Zm-.54,2.84A.88.88,0,0,0,12,10a1,1,0,0,0,.27-.71,1.07,1.07,0,0,0-.16-.72.79.79,0,0,0-.66-.25h-.53l-.1,1.91Z"/><path class="cls-1" d="M17.2,7.44l1.33,6.27H17.21L17,12.38H15.33L15,13.71H13.65l2-6.27Zm-.37,3.91-.46-2.82h0l-.75,2.82Z"/><path class="cls-1" d="M22.22,8.56a.57.57,0,0,0-.58-.31.62.62,0,0,0-.4.13.9.9,0,0,0-.26.41,3.61,3.61,0,0,0-.16.75q-.06.46-.09,1.13a10.91,10.91,0,0,0,0,1.15,2.47,2.47,0,0,0,.11.68.58.58,0,0,0,.24.32.71.71,0,0,0,.35.08.86.86,0,0,0,.31-.06.57.57,0,0,0,.26-.23,1.57,1.57,0,0,0,.19-.48,4.44,4.44,0,0,0,.1-.82h1.27a5.77,5.77,0,0,1-.13,1,2.31,2.31,0,0,1-.34.8,1.59,1.59,0,0,1-.63.54,2.36,2.36,0,0,1-1,.19,2.31,2.31,0,0,1-1.12-.23,1.43,1.43,0,0,1-.61-.66,2.78,2.78,0,0,1-.24-1,11.93,11.93,0,0,1,0-1.32,12.13,12.13,0,0,1,.13-1.31,3,3,0,0,1,.34-1,1.75,1.75,0,0,1,.68-.67,2.35,2.35,0,0,1,1.15-.24,2.12,2.12,0,0,1,1.06.22,1.39,1.39,0,0,1,.55.56,1.84,1.84,0,0,1,.2.73,6,6,0,0,1,0,.73H22.33A2.23,2.23,0,0,0,22.22,8.56Z"/><path class="cls-1" d="M26.21,7.44l-.13,2.4h1.48l.13-2.4H29l-.33,6.27H27.36l.15-2.78H26l-.15,2.78H24.62l.33-6.27Z"/><path class="cls-1" d="M33.74,8.48H31.51L31.43,10h2.11l-.05,1H31.37l-.09,1.69h2.33l-.05,1H30l.33-6.27h3.5Z"/><path class="cls-1" d="M41.09,11.73h0l.23-4.29H42.5l-.33,6.27H40.73L39.41,9.32h0l-.23,4.39H38l.33-6.27h1.46Z"/><path class="cls-1" d="M44,7.44h1.27l-.33,6.27H43.67Z"/><path class="cls-1" d="M50.23,7.44l-.05,1H47.94L47.86,10H50l-.05,1H47.8l-.14,2.72H46.4l.33-6.27Z"/><path class="cls-1" d="M51.37,7.44h1.27l-.33,6.27H51Z"/></g></g></svg>