<svg id="minifi" xmlns="http://www.w3.org/2000/svg" viewBox="0 0 115 44"><defs><style>.cls-1{fill:#728e9b;}</style></defs><title>minifi-logo-s</title><g id="minifi-logo-s"><path class="cls-1" d="M75.24,28.53c-.28-4,1.39-7.73,3.41-11s4.69-6.4,6.9-9.69a52.11,52.11,0,0,0,2.74-4.55,53,53,0,0,0,3.5,5.65c1.6,2.26,3.36,4.4,4.91,6.69a38.9,38.9,0,0,1,2.5,4.17,4.51,4.51,0,0,0,.36-.82,67.74,67.74,0,0,0-5.69-8.18,53.07,53.07,0,0,1-4.78-7.29c-.26-.48-.51-1-.74-1.46a50.11,50.11,0,0,1-5,8c-2.62,3.47-5.4,6.87-7.25,10.84a17.26,17.26,0,0,0-1.79,7.12,3.4,3.4,0,0,0,1,.62C75.22,28.22,75,28.42,75.24,28.53Z"/><path class="cls-1" d="M88.28,40.84A13.11,13.11,0,0,1,75.94,32c-.38,0-.76-.08-1.14-.15a14,14,0,0,0,27,0l-1.36.75A13.1,13.1,0,0,1,88.28,40.84Z"/><polygon class="cls-1" points="27.95 18.38 29.82 18.38 29.97 15.61 28.1 15.61 27.95 18.38"/><polygon class="cls-1" points="49.77 18.38 51.64 18.38 51.79 15.61 49.92 15.61 49.77 18.38"/><path class="cls-1" d="M4.6,28.34c.1-1.82.62-3.88,2.17-5,1.33-1,3.75-1.31,4.95,0a4.27,4.27,0,0,1,.77,3.06l-.56,10.7H13.8l.47-8.92c.1-2,.62-4.32,2.55-5.3a4.8,4.8,0,0,1,2.86-.33,2.66,2.66,0,0,1,1.87,1,4.75,4.75,0,0,1,.59,2.91l-.56,10.61h1.87L24,26.44c.09-1.63-.15-3.52-1.52-4.61a5.79,5.79,0,0,0-5.55-.47A5.35,5.35,0,0,0,14.19,24a3.72,3.72,0,0,0-1-1.91A4.34,4.34,0,0,0,11.09,21,5.7,5.7,0,0,0,6.5,22,6.68,6.68,0,0,0,4.77,24H4.68l.14-2.66H3.09L2.27,37.14H4.14Z"/><path class="cls-1" d="M35,27.94A5.84,5.84,0,0,1,38,23c1.62-.8,4.18-.73,5.21,1a5.85,5.85,0,0,1,.58,3.33l-.52,9.84h1.87L45.64,27c.11-2-.16-4.37-2.15-5.44a6.37,6.37,0,0,0-2.9-.65,5.93,5.93,0,0,0-3.13.77,5.1,5.1,0,0,0-2.18,2.41h-.06l.14-2.73H33.48l-.83,15.79h1.87Z"/><path class="cls-1" d="M58.79,23H62L62,21.35H58.88L58.95,20c0-.9,0-2.08.81-2.68s1.88-.37,2.76-.22l.09-1.65c-1.36-.19-2.93-.29-4.08.6s-1.37,2.53-1.44,3.91L57,21.35H54.39L54.3,23h2.61l-.74,14.16H58Z"/><polygon class="cls-1" points="29.67 21.35 27.8 21.35 26.97 37.14 28.84 37.14 29.67 21.35"/><polygon class="cls-1" points="51.49 21.35 49.62 21.35 48.79 37.14 50.66 37.14 51.49 21.35"/><polygon class="cls-1" points="67.08 21.35 65.21 21.35 64.38 37.14 66.25 37.14 67.08 21.35"/><polygon class="cls-1" points="65.37 18.38 67.24 18.38 67.38 15.61 65.51 15.61 65.37 18.38"/><path class="cls-1" d="M107.79,17.14a4.24,4.24,0,0,0-.21-.74l4.1-.94a5,5,0,0,1,.61,1Z"/><path class="cls-1" d="M104.36,24.35c2.31-2.22,3.46-4.28,3.51-6.27l4.74-.7c.55,2.39-.61,5.09-3.45,8Z"/><path class="cls-1" d="M96.09,29.93a43.66,43.66,0,0,0,4-2.25,29.93,29.93,0,0,0,3.46-2.57l4.84,1.06a32,32,0,0,1-3.87,3.06,50.29,50.29,0,0,1-5.71,3.32Z"/><path class="cls-1" d="M81.78,31.82c1-.17,2-.39,3-.66l-.19,2.15c-1.32.35-2.6.64-3.83.85Z"/><path class="cls-1" d="M85.72,30.89a44.86,44.86,0,0,0,10.81-4.63l2.3,1.09a53.18,53.18,0,0,1-10.38,4.76c-1,.34-2,.65-2.92.93Z"/><path class="cls-1" d="M102.32,21.33a9,9,0,0,0,.62-1l3.43-.19a9.34,9.34,0,0,1-.8,1.36Z"/><path class="cls-1" d="M97.47,25.67a20,20,0,0,0,4.13-3.45l3.29.19a22.44,22.44,0,0,1-5.12,4.34Z"/><path class="cls-1" d="M92.27,26.2a26.58,26.58,0,0,0,4.28-2.6l1.72.38A31.47,31.47,0,0,1,93.14,27Z"/><path class="cls-1" d="M89.11,27.59c.79-.3,1.54-.63,2.26-1l.86.84c-.88.4-1.8.79-2.74,1.16Z"/><path class="cls-1" d="M80,29.82a30.26,30.26,0,0,0,8.21-1.9l.38,1A36.13,36.13,0,0,1,79,31.24Z"/><path class="cls-1" d="M107.14,15.55a6.39,6.39,0,0,0-3.62-2.39,16.51,16.51,0,0,0-4.83-.6c-.77,0-1.57,0-2.45.11l0-.05c1.21-.17,2.33-.28,3.41-.35.7,0,1.4-.07,2.1-.07a23.55,23.55,0,0,1,4.14.34,10.26,10.26,0,0,1,5.08,2.15Z"/><path class="cls-1" d="M103.37,19.4a4.07,4.07,0,0,0,.16-2.4A3.63,3.63,0,0,0,102,15a9.38,9.38,0,0,0-5-1.29l-.1-.13c.62,0,1.24-.07,1.87-.07a17.56,17.56,0,0,1,3.46.31c2.14.43,3.58,1.26,4.27,2.48l0,0a3.78,3.78,0,0,1,.21,2.88Z"/><path class="cls-1" d="M97.49,22.85a9.4,9.4,0,0,0,2.61-3.28,3.4,3.4,0,0,0,.23-2.24,3,3,0,0,0-1.26-1.65A4.9,4.9,0,0,0,98,15.15a4.29,4.29,0,0,0-.3-.49,9.73,9.73,0,0,1,2.71.54,3.74,3.74,0,0,1,1.95,1.42,2.79,2.79,0,0,1,.17,2.38,10,10,0,0,1-3.3,4.23Z"/><path class="cls-1" d="M77.36,31.3a13.82,13.82,0,0,1-2.41-.19c-1.44-.25-3.25-.86-3.73-2.36-.4-1.26.19-2.77,1.76-4.51a16.57,16.57,0,0,1,1.49-1.44l-.12.37c-.61.69-2.57,3.31-.65,5.22,1,1,2.62,1.48,5,1.48h.18L77.77,31.3Z"/><path class="cls-1" d="M6.72,6.34l1.33,6.27H6.74l-.22-1.33H4.85l-.36,1.33H3.17l2-6.27Zm-.37,3.91L5.9,7.43h0l-.75,2.82Z"/><path class="cls-1" d="M11.5,6.34a1.77,1.77,0,0,1,.8.16,1.38,1.38,0,0,1,.51.43,1.58,1.58,0,0,1,.26.6,2.74,2.74,0,0,1,.05.69,2.31,2.31,0,0,1-.19.84,1.65,1.65,0,0,1-.43.59,1.81,1.81,0,0,1-.65.34,2.8,2.8,0,0,1-.82.11h-.68l-.13,2.5H9l.33-6.27ZM11,9.18a.88.88,0,0,0,.62-.23,1,1,0,0,0,.27-.71,1.07,1.07,0,0,0-.16-.72A.79.79,0,0,0,11,7.27h-.53l-.1,1.91Z"/><path class="cls-1" d="M16.77,6.34l1.33,6.27H16.79l-.22-1.33H14.9l-.36,1.33H13.22l2-6.27Zm-.37,3.91-.46-2.82h0l-.75,2.82Z"/><path class="cls-1" d="M21.79,7.46a.57.57,0,0,0-.58-.31.62.62,0,0,0-.4.13.9.9,0,0,0-.26.41,3.61,3.61,0,0,0-.16.75q-.06.46-.09,1.13a10.91,10.91,0,0,0,0,1.15,2.47,2.47,0,0,0,.11.68.58.58,0,0,0,.24.32.71.71,0,0,0,.35.08.86.86,0,0,0,.31-.06.57.57,0,0,0,.26-.23,1.57,1.57,0,0,0,.19-.48,4.44,4.44,0,0,0,.1-.82h1.27a5.77,5.77,0,0,1-.13,1,2.31,2.31,0,0,1-.34.8,1.59,1.59,0,0,1-.63.54,2.36,2.36,0,0,1-1,.19,2.31,2.31,0,0,1-1.12-.23,1.43,1.43,0,0,1-.61-.66,2.78,2.78,0,0,1-.24-1,11.93,11.93,0,0,1,0-1.32,12.13,12.13,0,0,1,.13-1.31,3,3,0,0,1,.34-1,1.75,1.75,0,0,1,.68-.67,2.35,2.35,0,0,1,1.15-.24,2.12,2.12,0,0,1,1.06.22A1.39,1.39,0,0,1,23,7a1.84,1.84,0,0,1,.2.73,6,6,0,0,1,0,.73H21.9A2.23,2.23,0,0,0,21.79,7.46Z"/><path class="cls-1" d="M25.78,6.34l-.13,2.4h1.48l.13-2.4h1.26l-.33,6.27H26.93l.15-2.78H25.6l-.15,2.78H24.19l.33-6.27Z"/><path class="cls-1" d="M33.32,7.38H31.08L31,8.85h2.11l-.05,1H30.95l-.09,1.69h2.33l-.05,1H29.54l.33-6.27h3.5Z"/><path class="cls-1" d="M40.67,10.63h0l.23-4.29h1.16l-.33,6.27H40.3L39,8.22h0l-.23,4.39H37.58l.33-6.27h1.46Z"/><path class="cls-1" d="M43.58,6.34h1.27l-.33,6.27H43.25Z"/><path class="cls-1" d="M49.8,6.34l-.05,1H47.51l-.08,1.48h2.11l-.05,1H47.38l-.14,2.72H46l.33-6.27Z"/><path class="cls-1" d="M50.94,6.34h1.27l-.33,6.27H50.61Z"/></g></svg>