<svg id="nifi-drop" xmlns="http://www.w3.org/2000/svg" viewBox="0 0 115 44"><defs><style>.cls-1{fill:#c7d2d7;}</style></defs><g id="minifi-logo-s-for-dark-bg"><path class="cls-1" d="M75.24,28.53c-0.28-4,1.39-7.73,3.41-11s4.69-6.4,6.9-9.69a52.11,52.11,0,0,0,2.74-4.55,53,53,0,0,0,3.5,5.65c1.6,2.26,3.36,4.4,4.91,6.69a38.9,38.9,0,0,1,2.5,4.17,4.51,4.51,0,0,0,.36-0.82,67.74,67.74,0,0,0-5.69-8.18,53.07,53.07,0,0,1-4.78-7.29C88.83,3,88.57,2.49,88.35,2a50.11,50.11,0,0,1-5,8c-2.62,3.47-5.4,6.87-7.25,10.84a17.26,17.26,0,0,0-1.79,7.12,3.4,3.4,0,0,0,1,.62C75.22,28.22,75,28.42,75.24,28.53Z"/><path class="cls-1" d="M88.28,40.84A13.11,13.11,0,0,1,75.94,32c-0.38,0-.76-0.08-1.14-0.15a14,14,0,0,0,27,0l-1.36.75A13.1,13.1,0,0,1,88.28,40.84Z"/><g id="type-rings"><polygon class="cls-1" points="27.95 15.38 29.82 15.38 29.97 12.61 28.1 12.61 27.95 15.38"/><polygon class="cls-1" points="49.77 15.38 51.64 15.38 51.79 12.61 49.92 12.61 49.77 15.38"/><path class="cls-1" d="M4.6,25.34c0.1-1.82.62-3.88,2.17-5,1.33-1,3.75-1.31,4.95,0a4.27,4.27,0,0,1,.77,3.06l-0.56,10.7H13.8l0.47-8.92c0.1-2,.62-4.32,2.55-5.3a4.8,4.8,0,0,1,2.86-.33,2.66,2.66,0,0,1,1.87,1,4.75,4.75,0,0,1,.59,2.91L21.58,34.14h1.87L24,23.44c0.09-1.63-.15-3.52-1.52-4.61a5.79,5.79,0,0,0-5.55-.47A5.35,5.35,0,0,0,14.19,21a3.72,3.72,0,0,0-1-1.91A4.34,4.34,0,0,0,11.09,18,5.7,5.7,0,0,0,6.5,19,6.68,6.68,0,0,0,4.77,21H4.68l0.14-2.66H3.09L2.27,34.14H4.14Z"/><path class="cls-1" d="M35,24.94A5.84,5.84,0,0,1,38,20c1.62-.8,4.18-0.73,5.21,1a5.85,5.85,0,0,1,.58,3.33l-0.52,9.84h1.87L45.64,24c0.11-2-.16-4.37-2.15-5.44a6.37,6.37,0,0,0-2.9-.65,5.93,5.93,0,0,0-3.13.77,5.1,5.1,0,0,0-2.18,2.41H35.21l0.14-2.73H33.48L32.66,34.14h1.87Z"/><path class="cls-1" d="M58.79,20H62L62,18.35H58.88L58.95,17c0-.9,0-2.08.81-2.68s1.88-.37,2.76-0.22l0.09-1.65c-1.36-.19-2.93-0.29-4.08.6s-1.37,2.53-1.44,3.91L57,18.35H54.39L54.3,20h2.61L56.18,34.14H58Z"/><polygon class="cls-1" points="29.67 18.35 27.8 18.35 26.97 34.14 28.84 34.14 29.67 18.35"/><polygon class="cls-1" points="51.49 18.35 49.62 18.35 48.79 34.14 50.66 34.14 51.49 18.35"/><polygon class="cls-1" points="67.08 18.35 65.21 18.35 64.38 34.14 66.25 34.14 67.08 18.35"/><polygon class="cls-1" points="65.37 15.38 67.24 15.38 67.38 12.61 65.51 12.61 65.37 15.38"/><path class="cls-1" d="M107.79,17.14a4.24,4.24,0,0,0-.21-0.74l4.1-.94a5,5,0,0,1,.61,1Z"/><path class="cls-1" d="M104.36,24.35c2.31-2.22,3.46-4.28,3.51-6.27l4.74-.7c0.55,2.39-.61,5.09-3.45,8Z"/><path class="cls-1" d="M96.09,29.93a43.66,43.66,0,0,0,4-2.25,29.93,29.93,0,0,0,3.46-2.57l4.84,1.06a32,32,0,0,1-3.87,3.06,50.29,50.29,0,0,1-5.71,3.32Z"/><path class="cls-1" d="M81.78,31.82c1-.17,2-0.39,3-0.66l-0.19,2.15c-1.32.35-2.6,0.64-3.83,0.85Z"/><path class="cls-1" d="M85.72,30.89a44.86,44.86,0,0,0,10.81-4.63l2.3,1.09a53.18,53.18,0,0,1-10.38,4.76c-1,.34-2,0.65-2.92.93Z"/><path class="cls-1" d="M102.32,21.33a9,9,0,0,0,.62-1l3.43-.19a9.34,9.34,0,0,1-.8,1.36Z"/><path class="cls-1" d="M97.47,25.67a20,20,0,0,0,4.13-3.45l3.29,0.19a22.44,22.44,0,0,1-5.12,4.34Z"/><path class="cls-1" d="M92.27,26.2a26.58,26.58,0,0,0,4.28-2.6L98.27,24A31.47,31.47,0,0,1,93.14,27Z"/><path class="cls-1" d="M89.11,27.59c0.79-.3,1.54-0.63,2.26-1l0.86,0.84c-0.88.4-1.8,0.79-2.74,1.16Z"/><path class="cls-1" d="M80,29.82a30.26,30.26,0,0,0,8.21-1.9l0.38,1A36.13,36.13,0,0,1,79,31.24Z"/><path class="cls-1" d="M107.14,15.55a6.39,6.39,0,0,0-3.62-2.39,16.51,16.51,0,0,0-4.83-.6c-0.77,0-1.57,0-2.45.11l0-.05c1.21-.17,2.33-0.28,3.41-0.35,0.7,0,1.4-.07,2.1-0.07a23.55,23.55,0,0,1,4.14.34,10.26,10.26,0,0,1,5.08,2.15Z"/><path class="cls-1" d="M103.37,19.4a4.07,4.07,0,0,0,.16-2.4A3.63,3.63,0,0,0,102,15a9.38,9.38,0,0,0-5-1.29l-0.1-.13c0.62,0,1.24-.07,1.87-0.07a17.56,17.56,0,0,1,3.46.31c2.14,0.43,3.58,1.26,4.27,2.48l0,0a3.78,3.78,0,0,1,.21,2.88Z"/><path class="cls-1" d="M97.49,22.85a9.4,9.4,0,0,0,2.61-3.28,3.4,3.4,0,0,0,.23-2.24,3,3,0,0,0-1.26-1.65A4.9,4.9,0,0,0,98,15.15a4.29,4.29,0,0,0-.3-0.49,9.73,9.73,0,0,1,2.71.54,3.74,3.74,0,0,1,1.95,1.42,2.79,2.79,0,0,1,.17,2.38,10,10,0,0,1-3.3,4.23Z"/><path class="cls-1" d="M77.36,31.3a13.82,13.82,0,0,1-2.41-.19c-1.44-.25-3.25-0.86-3.73-2.36-0.4-1.26.19-2.77,1.76-4.51a16.57,16.57,0,0,1,1.49-1.44l-0.12.37c-0.61.69-2.57,3.31-.65,5.22,1,1,2.62,1.48,5,1.48h0.18L77.77,31.3H77.36Z"/></g></g></svg>