<svg id="nifi-drop" xmlns="http://www.w3.org/2000/svg" viewBox="0 0 35 44"><defs><style>.cls-1{fill:#e6e6e6;}</style></defs><g id="minifi-logo-xs-v-for-dark-bg"><g id="drop-rings"><path class="cls-1" d="M5,22.11c-0.21-3,1-5.8,2.56-8.28S11.07,9,12.72,6.56a39.08,39.08,0,0,0,2.05-3.41A39.72,39.72,0,0,0,17.4,7.38c1.2,1.7,2.52,3.3,3.68,5A29.17,29.17,0,0,1,23,15.53a3.38,3.38,0,0,0,.27-0.62A50.81,50.81,0,0,0,19,8.78a39.8,39.8,0,0,1-3.58-5.47C15.18,2.95,15,2.58,14.83,2.21a37.58,37.58,0,0,1-3.77,6,46.6,46.6,0,0,0-5.44,8.13,13,13,0,0,0-1.34,5.34,2.55,2.55,0,0,0,.73.46C5,21.88,4.81,22,5,22.11Z"/><path class="cls-1" d="M14.78,31.34A9.83,9.83,0,0,1,5.52,24.7c-0.29,0-.57-0.06-0.85-0.11a10.51,10.51,0,0,0,20.22,0l-1,.56A9.82,9.82,0,0,1,14.78,31.34Z"/><path class="cls-1" d="M29.41,13.57A3.18,3.18,0,0,0,29.25,13l3.08-.7a3.68,3.68,0,0,1,.46.75Z"/><path class="cls-1" d="M26.83,19c1.73-1.67,2.59-3.21,2.63-4.71L33,13.74c0.41,1.8-.46,3.82-2.59,6Z"/><path class="cls-1" d="M20.63,23.16a32.63,32.63,0,0,0,3-1.68,22.23,22.23,0,0,0,2.59-1.92l3.63,0.79a23.92,23.92,0,0,1-2.9,2.3,37.89,37.89,0,0,1-4.28,2.49Z"/><path class="cls-1" d="M20.63,23.16a26.34,26.34,0,0,0,5.57-3.61l3.63,0.79a29.56,29.56,0,0,1-7.18,4.79Z"/><path class="cls-1" d="M9.9,24.58c0.72-.13,1.47-0.29,2.23-0.5L12,25.7c-1,.26-2,0.48-2.87.64Z"/><path class="cls-1" d="M12.85,23.88A33.66,33.66,0,0,0,21,20.41l1.73,0.82A39.81,39.81,0,0,1,14.9,24.8c-0.73.25-1.47,0.49-2.19,0.7Z"/><path class="cls-1" d="M25.3,16.71A6.74,6.74,0,0,0,25.77,16l2.58-.15a7,7,0,0,1-.6,1Z"/><path class="cls-1" d="M21.66,20a15.16,15.16,0,0,0,3.1-2.59l2.47,0.15a16.82,16.82,0,0,1-3.84,3.26Z"/><path class="cls-1" d="M17.77,20.36a19.92,19.92,0,0,0,3.21-2l1.29,0.28A23.6,23.6,0,0,1,18.42,21Z"/><path class="cls-1" d="M15.4,21.4c0.59-.23,1.16-0.47,1.7-0.72l0.65,0.63c-0.66.3-1.35,0.59-2.06,0.87Z"/><path class="cls-1" d="M8.59,23.08a22.69,22.69,0,0,0,6.16-1.43L15,22.43a27.1,27.1,0,0,1-7.24,1.71Z"/><path class="cls-1" d="M28.92,12.37a4.79,4.79,0,0,0-2.72-1.79,12.39,12.39,0,0,0-3.62-.45c-0.58,0-1.18,0-1.84.08l0,0C21.62,10,22.46,10,23.27,9.91c0.52,0,1,0,1.58,0a17.66,17.66,0,0,1,3.11.25,7.69,7.69,0,0,1,3.81,1.61Z"/><path class="cls-1" d="M26.09,15.26a3,3,0,0,0,.12-1.8,2.75,2.75,0,0,0-1.14-1.52,7,7,0,0,0-3.76-1l-0.07-.1c0.47,0,.93,0,1.4,0a13.16,13.16,0,0,1,2.59.23,4.49,4.49,0,0,1,3.19,1.84l0,0.07a2.85,2.85,0,0,1,.15,2.14Z"/><path class="cls-1" d="M21.68,17.85a7,7,0,0,0,2-2.46,2.56,2.56,0,0,0,.17-1.68,2.22,2.22,0,0,0-.94-1.24,3.63,3.63,0,0,0-.8-0.4,3.2,3.2,0,0,0-.22-0.37,7.3,7.3,0,0,1,2,.4,2.82,2.82,0,0,1,1.46,1.07A2.1,2.1,0,0,1,25.45,15,7.51,7.51,0,0,1,23,18.13Z"/><path class="cls-1" d="M6.58,24.19A10.36,10.36,0,0,1,4.77,24C3.7,23.86,2.33,23.4,2,22.28c-0.3-.94.14-2.08,1.32-3.38a12.34,12.34,0,0,1,1.12-1.08l-0.09.27C3.87,18.6,2.4,20.57,3.84,22a5.09,5.09,0,0,0,3.71,1.11H7.69l-0.8,1.08H6.58Z"/></g><g id="type"><polygon class="cls-1" points="12.12 34.92 12.81 34.92 12.86 33.91 12.17 33.91 12.12 34.92"/><polygon class="cls-1" points="20.92 34.92 21.61 34.92 21.66 33.91 20.98 33.91 20.92 34.92"/><path class="cls-1" d="M3.16,38.56A2.36,2.36,0,0,1,4,36.73a1.45,1.45,0,0,1,1.81,0A1.56,1.56,0,0,1,6,37.87L5.84,41.79H6.53L6.7,38.52a2.18,2.18,0,0,1,.93-1.94,1.76,1.76,0,0,1,1-.12,1,1,0,0,1,.69.38,1.74,1.74,0,0,1,.22,1.06l-0.2,3.88h0.69l0.21-3.92a2,2,0,0,0-.56-1.69,2.12,2.12,0,0,0-2-.17,2,2,0,0,0-1,1,1.36,1.36,0,0,0-.37-0.7,1.59,1.59,0,0,0-.77-0.39,2.09,2.09,0,0,0-1.68.35,2.45,2.45,0,0,0-.64.75h0l0.05-1H2.61l-0.3,5.78H3Z"/><path class="cls-1" d="M15.11,38.42a2.14,2.14,0,0,1,1.08-1.81A1.51,1.51,0,0,1,18.1,37a2.14,2.14,0,0,1,.21,1.22l-0.19,3.6h0.69L19,38.07a2,2,0,0,0-.79-2,2.33,2.33,0,0,0-1.06-.24,2.17,2.17,0,0,0-1.15.28,1.87,1.87,0,0,0-.8.88h0l0.05-1H14.55l-0.3,5.78h0.69Z"/><path class="cls-1" d="M24.63,36.6h1.16l0-.59H24.66l0-.5a1.25,1.25,0,0,1,.3-1,1.32,1.32,0,0,1,1-.08l0-.61a2,2,0,0,0-1.49.22A1.86,1.86,0,0,0,24,35.48L24,36H23l0,0.59h1l-0.27,5.18h0.69Z"/><polygon class="cls-1" points="12.75 36.01 12.06 36.01 11.76 41.79 12.45 41.79 12.75 36.01"/><polygon class="cls-1" points="21.55 36.01 20.87 36.01 20.56 41.79 21.25 41.79 21.55 36.01"/><polygon class="cls-1" points="28.08 36.01 27.39 36.01 27.09 41.79 27.77 41.79 28.08 36.01"/><polygon class="cls-1" points="27.45 34.92 28.13 34.92 28.19 33.91 27.5 33.91 27.45 34.92"/></g></g></svg>