<svg width="624" height="600" viewBox="0 0 624 600" fill="none" xmlns="http://www.w3.org/2000/svg">
<g filter="url(#filter0_d_7_56)">
<rect x="279" y="151" width="262" height="225" rx="16" fill="#F4F5F6"/>
</g>
<g filter="url(#filter1_d_7_56)">
<g clip-path="url(#clip0_7_56)">
<rect x="12" y="70" width="451" height="130" rx="16" fill="white"/>
<rect x="1" y="70" width="474" height="50" fill="#EAEBEC"/>
<path d="M46.6712 88.1818V102H44.755L37.7312 91.8658H37.603V102H35.5181V88.1818H37.4478L44.4783 98.3295H44.6065V88.1818H46.6712ZM52.5665 102.229C51.9098 102.229 51.316 102.108 50.7852 101.865C50.2545 101.618 49.8339 101.26 49.5235 100.792C49.2177 100.324 49.0647 99.7509 49.0647 99.0717C49.0647 98.487 49.1772 98.0057 49.4021 97.6278C49.627 97.25 49.9306 96.9509 50.3129 96.7305C50.6953 96.5101 51.1226 96.3436 51.5949 96.2312C52.0672 96.1187 52.5485 96.0333 53.0388 95.9748C53.6595 95.9028 54.1633 95.8443 54.5502 95.7994C54.937 95.7499 55.2181 95.6712 55.3936 95.5632C55.569 95.4553 55.6567 95.2798 55.6567 95.0369V94.9897C55.6567 94.4004 55.4903 93.9439 55.1574 93.62C54.829 93.2962 54.3387 93.1342 53.6865 93.1342C53.0073 93.1342 52.472 93.2849 52.0807 93.5863C51.6939 93.8832 51.4262 94.2138 51.2778 94.5781L49.3818 94.1463C49.6067 93.5166 49.9351 93.0083 50.3669 92.6214C50.8032 92.2301 51.3048 91.9467 51.8715 91.7713C52.4383 91.5914 53.0343 91.5014 53.6595 91.5014C54.0734 91.5014 54.5119 91.5509 54.9752 91.6499C55.443 91.7443 55.8794 91.9197 56.2842 92.1761C56.6935 92.4325 57.0286 92.7991 57.2895 93.2759C57.5504 93.7482 57.6808 94.3622 57.6808 95.1179V102H55.7107V100.583H55.6297C55.4993 100.844 55.3036 101.1 55.0427 101.352C54.7818 101.604 54.4467 101.813 54.0374 101.98C53.628 102.146 53.1378 102.229 52.5665 102.229ZM53.0051 100.61C53.5628 100.61 54.0396 100.5 54.4355 100.279C54.8358 100.059 55.1394 99.7712 55.3463 99.4158C55.5577 99.056 55.6634 98.6714 55.6634 98.2621V96.9261C55.5915 96.9981 55.452 97.0656 55.2451 97.1286C55.0427 97.187 54.8111 97.2388 54.5502 97.2837C54.2893 97.3242 54.0351 97.3625 53.7877 97.3984C53.5403 97.4299 53.3334 97.4569 53.167 97.4794C52.7757 97.5289 52.4181 97.6121 52.0942 97.729C51.7748 97.846 51.5184 98.0147 51.325 98.2351C51.1361 98.451 51.0416 98.7389 51.0416 99.0987C51.0416 99.598 51.2261 99.9759 51.5949 100.232C51.9637 100.484 52.4338 100.61 53.0051 100.61ZM60.3679 102V91.6364H62.3043V93.3232H62.4325C62.6484 92.7519 63.0015 92.3066 63.4918 91.9872C63.9821 91.6634 64.5691 91.5014 65.2528 91.5014C65.9455 91.5014 66.5258 91.6634 66.9936 91.9872C67.4659 92.3111 67.8145 92.7564 68.0394 93.3232H68.1474C68.3948 92.7699 68.7884 92.3291 69.3281 92.0007C69.8679 91.6679 70.5111 91.5014 71.2578 91.5014C72.1979 91.5014 72.9648 91.796 73.5586 92.3853C74.1568 92.9745 74.456 93.8629 74.456 95.0504V102H72.4386V95.2393C72.4386 94.5376 72.2474 94.0294 71.8651 93.7145C71.4827 93.3996 71.0262 93.2422 70.4954 93.2422C69.8387 93.2422 69.3281 93.4446 68.9638 93.8494C68.5994 94.2498 68.4173 94.7648 68.4173 95.3945V102H66.4066V95.1112C66.4066 94.5489 66.2312 94.0968 65.8803 93.755C65.5295 93.4131 65.0729 93.2422 64.5107 93.2422C64.1283 93.2422 63.7752 93.3434 63.4513 93.5458C63.132 93.7437 62.8733 94.0204 62.6754 94.3757C62.482 94.7311 62.3853 95.1426 62.3853 95.6104V102H60.3679ZM81.6265 102.209C80.6054 102.209 79.7261 101.991 78.9884 101.555C78.2552 101.114 77.6884 100.495 77.2881 99.6992C76.8923 98.8986 76.6943 97.9607 76.6943 96.8857C76.6943 95.8241 76.8923 94.8885 77.2881 94.0788C77.6884 93.2692 78.2462 92.6372 78.9614 92.1829C79.6811 91.7286 80.5222 91.5014 81.4848 91.5014C82.0696 91.5014 82.6363 91.5981 83.1851 91.7915C83.7339 91.985 84.2264 92.2886 84.6627 92.7024C85.099 93.1162 85.4432 93.6538 85.695 94.315C85.9469 94.9717 86.0729 95.7701 86.0729 96.7102V97.4254H77.8346V95.9141H84.096C84.096 95.3833 83.988 94.9132 83.7721 94.5039C83.5562 94.0901 83.2526 93.764 82.8612 93.5256C82.4744 93.2872 82.0201 93.168 81.4983 93.168C80.9316 93.168 80.4368 93.3074 80.0139 93.5863C79.5956 93.8607 79.2718 94.2205 79.0423 94.6658C78.8174 95.1067 78.705 95.5857 78.705 96.103V97.2837C78.705 97.9764 78.8264 98.5657 79.0693 99.0515C79.3167 99.5373 79.6608 99.9084 80.1017 100.165C80.5425 100.417 81.0575 100.543 81.6468 100.543C82.0291 100.543 82.3777 100.489 82.6926 100.381C83.0074 100.268 83.2796 100.102 83.509 99.8814C83.7384 99.661 83.9138 99.3888 84.0352 99.065L85.9447 99.4091C85.7918 99.9714 85.5174 100.464 85.1215 100.887C84.7302 101.305 84.2377 101.631 83.6439 101.865C83.0547 102.094 82.3822 102.209 81.6265 102.209Z" fill="#205E5F"/>
<path d="M40.5987 146.52H42.6499L44.0938 148.402L44.7752 149.239L47.076 152.241H44.9439L43.4055 150.238L42.8793 149.509L40.5987 146.52ZM47.5213 144.091C47.5213 145.566 47.2514 146.835 46.7116 147.896C46.1719 148.953 45.4319 149.768 44.4918 150.339C43.5562 150.906 42.4924 151.189 41.3004 151.189C40.1039 151.189 39.0356 150.906 38.0955 150.339C37.1599 149.768 36.4222 148.951 35.8825 147.89C35.3427 146.828 35.0728 145.562 35.0728 144.091C35.0728 142.616 35.3427 141.349 35.8825 140.292C36.4222 139.231 37.1599 138.417 38.0955 137.85C39.0356 137.279 40.1039 136.993 41.3004 136.993C42.4924 136.993 43.5562 137.279 44.4918 137.85C45.4319 138.417 46.1719 139.231 46.7116 140.292C47.2514 141.349 47.5213 142.616 47.5213 144.091ZM45.4567 144.091C45.4567 142.966 45.2745 142.02 44.9102 141.25C44.5503 140.477 44.0555 139.892 43.4258 139.496C42.8005 139.096 42.0921 138.896 41.3004 138.896C40.5043 138.896 39.7936 139.096 39.1683 139.496C38.5431 139.892 38.0483 140.477 37.6839 141.25C37.3241 142.02 37.1442 142.966 37.1442 144.091C37.1442 145.215 37.3241 146.165 37.6839 146.938C38.0483 147.707 38.5431 148.292 39.1683 148.692C39.7936 149.088 40.5043 149.286 41.3004 149.286C42.0921 149.286 42.8005 149.088 43.4258 148.692C44.0555 148.292 44.5503 147.707 44.9102 146.938C45.2745 146.165 45.4567 145.215 45.4567 144.091ZM56.5237 146.702V140.636H58.5479V151H56.5642V149.205H56.4562C56.2178 149.759 55.8355 150.22 55.3092 150.588C54.7874 150.953 54.1375 151.135 53.3593 151.135C52.6936 151.135 52.1043 150.989 51.5915 150.696C51.0832 150.4 50.6829 149.961 50.3905 149.381C50.1027 148.8 49.9587 148.083 49.9587 147.228V140.636H51.9761V146.985C51.9761 147.692 52.1718 148.254 52.5631 148.672C52.9545 149.091 53.4627 149.3 54.088 149.3C54.4658 149.3 54.8414 149.205 55.2148 149.016C55.5926 148.827 55.9052 148.542 56.1526 148.159C56.4045 147.777 56.5282 147.291 56.5237 146.702ZM65.7251 151.209C64.7041 151.209 63.8247 150.991 63.087 150.555C62.3538 150.114 61.7871 149.495 61.3867 148.699C60.9909 147.899 60.793 146.961 60.793 145.886C60.793 144.824 60.9909 143.888 61.3867 143.079C61.7871 142.269 62.3448 141.637 63.06 141.183C63.7797 140.729 64.6209 140.501 65.5835 140.501C66.1682 140.501 66.735 140.598 67.2837 140.792C67.8325 140.985 68.325 141.289 68.7614 141.702C69.1977 142.116 69.5418 142.654 69.7937 143.315C70.0456 143.972 70.1715 144.77 70.1715 145.71V146.425H61.9332V144.914H68.1946C68.1946 144.383 68.0866 143.913 67.8707 143.504C67.6548 143.09 67.3512 142.764 66.9599 142.526C66.573 142.287 66.1187 142.168 65.5969 142.168C65.0302 142.168 64.5354 142.307 64.1126 142.586C63.6942 142.861 63.3704 143.221 63.141 143.666C62.9161 144.107 62.8036 144.586 62.8036 145.103V146.284C62.8036 146.976 62.9251 147.566 63.168 148.051C63.4154 148.537 63.7595 148.908 64.2003 149.165C64.6411 149.417 65.1561 149.543 65.7454 149.543C66.1277 149.543 66.4763 149.489 66.7912 149.381C67.1061 149.268 67.3782 149.102 67.6076 148.881C67.837 148.661 68.0124 148.389 68.1339 148.065L70.0433 148.409C69.8904 148.971 69.616 149.464 69.2202 149.887C68.8288 150.305 68.3363 150.631 67.7425 150.865C67.1533 151.094 66.4808 151.209 65.7251 151.209ZM78.9749 146.702V140.636H80.999V151H79.0154V149.205H78.9074C78.669 149.759 78.2867 150.22 77.7604 150.588C77.2386 150.953 76.5886 151.135 75.8105 151.135C75.1447 151.135 74.5555 150.989 74.0427 150.696C73.5344 150.4 73.1341 149.961 72.8417 149.381C72.5538 148.8 72.4099 148.083 72.4099 147.228V140.636H74.4273V146.985C74.4273 147.692 74.623 148.254 75.0143 148.672C75.4056 149.091 75.9139 149.3 76.5392 149.3C76.917 149.3 77.2926 149.205 77.6659 149.016C78.0438 148.827 78.3564 148.542 78.6038 148.159C78.8557 147.777 78.9794 147.291 78.9749 146.702ZM88.1763 151.209C87.1552 151.209 86.2759 150.991 85.5382 150.555C84.805 150.114 84.2382 149.495 83.8379 148.699C83.4421 147.899 83.2441 146.961 83.2441 145.886C83.2441 144.824 83.4421 143.888 83.8379 143.079C84.2382 142.269 84.796 141.637 85.5112 141.183C86.2309 140.729 87.072 140.501 88.0346 140.501C88.6194 140.501 89.1861 140.598 89.7349 140.792C90.2837 140.985 90.7762 141.289 91.2125 141.702C91.6489 142.116 91.993 142.654 92.2449 143.315C92.4967 143.972 92.6227 144.77 92.6227 145.71V146.425H84.3844V144.914H90.6458C90.6458 144.383 90.5378 143.913 90.3219 143.504C90.106 143.09 89.8024 142.764 89.411 142.526C89.0242 142.287 88.5699 142.168 88.0481 142.168C87.4814 142.168 86.9866 142.307 86.5637 142.586C86.1454 142.861 85.8216 143.221 85.5922 143.666C85.3672 144.107 85.2548 144.586 85.2548 145.103V146.284C85.2548 146.976 85.3762 147.566 85.6191 148.051C85.8665 148.537 86.2106 148.908 86.6515 149.165C87.0923 149.417 87.6073 149.543 88.1966 149.543C88.5789 149.543 88.9275 149.489 89.2424 149.381C89.5572 149.268 89.8294 149.102 90.0588 148.881C90.2882 148.661 90.4636 148.389 90.5851 148.065L92.4945 148.409C92.3416 148.971 92.0672 149.464 91.6713 149.887C91.28 150.305 90.7875 150.631 90.1937 150.865C89.6045 151.094 88.932 151.209 88.1763 151.209ZM98.7407 151.202C97.904 151.202 97.1573 150.989 96.5006 150.561C95.8484 150.13 95.3356 149.516 94.9623 148.719C94.5934 147.919 94.409 146.958 94.409 145.838C94.409 144.718 94.5957 143.76 94.969 142.964C95.3469 142.168 95.8641 141.558 96.5209 141.136C97.1776 140.713 97.922 140.501 98.7542 140.501C99.3974 140.501 99.9147 140.609 100.306 140.825C100.702 141.037 101.008 141.284 101.224 141.567C101.444 141.851 101.615 142.1 101.736 142.316H101.858V137.182H103.875V151H101.905V149.387H101.736C101.615 149.608 101.44 149.86 101.21 150.143C100.985 150.426 100.675 150.674 100.279 150.885C99.8832 151.097 99.3704 151.202 98.7407 151.202ZM99.186 149.482C99.7662 149.482 100.257 149.329 100.657 149.023C101.062 148.713 101.368 148.283 101.574 147.734C101.786 147.186 101.892 146.547 101.892 145.818C101.892 145.098 101.788 144.469 101.581 143.929C101.374 143.389 101.071 142.969 100.67 142.667C100.27 142.366 99.7752 142.215 99.186 142.215C98.5787 142.215 98.0727 142.373 97.6679 142.688C97.2631 143.002 96.9572 143.432 96.7503 143.976C96.5479 144.52 96.4466 145.134 96.4466 145.818C96.4466 146.511 96.5501 147.134 96.757 147.687C96.9639 148.24 97.2698 148.679 97.6746 149.003C98.084 149.322 98.5877 149.482 99.186 149.482Z" fill="#205E5F"/>
<path d="M135.122 94.1665L133.294 94.4904C133.217 94.2565 133.096 94.0339 132.929 93.8224C132.767 93.611 132.547 93.4379 132.268 93.3029C131.989 93.168 131.641 93.1005 131.222 93.1005C130.651 93.1005 130.174 93.2287 129.792 93.4851C129.41 93.737 129.218 94.0631 129.218 94.4634C129.218 94.8098 129.347 95.0887 129.603 95.3001C129.859 95.5115 130.273 95.6847 130.844 95.8196L132.491 96.1974C133.444 96.4179 134.155 96.7575 134.623 97.2163C135.091 97.6751 135.325 98.2711 135.325 99.0043C135.325 99.625 135.145 100.178 134.785 100.664C134.429 101.145 133.932 101.523 133.294 101.798C132.659 102.072 131.924 102.209 131.087 102.209C129.927 102.209 128.98 101.962 128.247 101.467C127.514 100.968 127.064 100.259 126.897 99.3416L128.847 99.0447C128.969 99.553 129.218 99.9376 129.596 100.199C129.974 100.455 130.467 100.583 131.074 100.583C131.735 100.583 132.264 100.446 132.659 100.172C133.055 99.8926 133.253 99.553 133.253 99.1527C133.253 98.8288 133.132 98.5567 132.889 98.3363C132.65 98.1159 132.284 97.9495 131.789 97.837L130.035 97.4524C129.068 97.232 128.353 96.8812 127.889 96.3999C127.43 95.9186 127.201 95.3091 127.201 94.5714C127.201 93.9596 127.372 93.4244 127.714 92.9656C128.056 92.5067 128.528 92.1491 129.131 91.8928C129.733 91.6319 130.424 91.5014 131.202 91.5014C132.322 91.5014 133.204 91.7443 133.847 92.2301C134.49 92.7114 134.915 93.3569 135.122 94.1665ZM144.108 97.7021V91.6364H146.132V102H144.148V100.205H144.04C143.802 100.759 143.419 101.22 142.893 101.588C142.371 101.953 141.721 102.135 140.943 102.135C140.278 102.135 139.688 101.989 139.176 101.696C138.667 101.4 138.267 100.961 137.975 100.381C137.687 99.8004 137.543 99.083 137.543 98.2283V91.6364H139.56V97.9854C139.56 98.6916 139.756 99.2539 140.147 99.6722C140.538 100.091 141.047 100.3 141.672 100.3C142.05 100.3 142.425 100.205 142.799 100.016C143.177 99.8274 143.489 99.5418 143.737 99.1594C143.988 98.7771 144.112 98.2913 144.108 97.7021ZM153.208 102.209C152.205 102.209 151.341 101.982 150.617 101.528C149.897 101.069 149.344 100.437 148.957 99.6317C148.57 98.8266 148.377 97.9045 148.377 96.8654C148.377 95.8129 148.575 94.884 148.971 94.0788C149.367 93.2692 149.924 92.6372 150.644 92.1829C151.364 91.7286 152.212 91.5014 153.188 91.5014C153.975 91.5014 154.677 91.6476 155.293 91.94C155.909 92.2279 156.406 92.6327 156.784 93.1545C157.166 93.6763 157.393 94.2857 157.465 94.983H155.502C155.394 94.4972 155.147 94.0788 154.76 93.728C154.377 93.3771 153.865 93.2017 153.221 93.2017C152.659 93.2017 152.167 93.3501 151.744 93.647C151.325 93.9394 150.999 94.3577 150.765 94.902C150.532 95.4418 150.415 96.0805 150.415 96.8182C150.415 97.5739 150.529 98.2261 150.759 98.7749C150.988 99.3236 151.312 99.7487 151.73 100.05C152.153 100.351 152.65 100.502 153.221 100.502C153.604 100.502 153.95 100.432 154.26 100.293C154.575 100.149 154.838 99.9444 155.05 99.679C155.266 99.4136 155.416 99.0942 155.502 98.7209H157.465C157.393 99.3911 157.175 99.9893 156.811 100.516C156.447 101.042 155.959 101.456 155.347 101.757C154.74 102.058 154.027 102.209 153.208 102.209ZM163.988 102.209C162.985 102.209 162.121 101.982 161.397 101.528C160.678 101.069 160.124 100.437 159.737 99.6317C159.351 98.8266 159.157 97.9045 159.157 96.8654C159.157 95.8129 159.355 94.884 159.751 94.0788C160.147 93.2692 160.705 92.6372 161.424 92.1829C162.144 91.7286 162.992 91.5014 163.968 91.5014C164.755 91.5014 165.457 91.6476 166.073 91.94C166.689 92.2279 167.186 92.6327 167.564 93.1545C167.947 93.6763 168.174 94.2857 168.246 94.983H166.282C166.174 94.4972 165.927 94.0788 165.54 93.728C165.158 93.3771 164.645 93.2017 164.002 93.2017C163.439 93.2017 162.947 93.3501 162.524 93.647C162.106 93.9394 161.78 94.3577 161.546 94.902C161.312 95.4418 161.195 96.0805 161.195 96.8182C161.195 97.5739 161.31 98.2261 161.539 98.7749C161.768 99.3236 162.092 99.7487 162.511 100.05C162.933 100.351 163.43 100.502 164.002 100.502C164.384 100.502 164.73 100.432 165.041 100.293C165.356 100.149 165.619 99.9444 165.83 99.679C166.046 99.4136 166.197 99.0942 166.282 98.7209H168.246C168.174 99.3911 167.956 99.9893 167.591 100.516C167.227 101.042 166.739 101.456 166.127 101.757C165.52 102.058 164.807 102.209 163.988 102.209ZM174.87 102.209C173.849 102.209 172.969 101.991 172.232 101.555C171.498 101.114 170.932 100.495 170.531 99.6992C170.135 98.8986 169.938 97.9607 169.938 96.8857C169.938 95.8241 170.135 94.8885 170.531 94.0788C170.932 93.2692 171.489 92.6372 172.205 92.1829C172.924 91.7286 173.765 91.5014 174.728 91.5014C175.313 91.5014 175.879 91.5981 176.428 91.7915C176.977 91.985 177.47 92.2886 177.906 92.7024C178.342 93.1162 178.686 93.6538 178.938 94.315C179.19 94.9717 179.316 95.7701 179.316 96.7102V97.4254H171.078V95.9141H177.339C177.339 95.3833 177.231 94.9132 177.015 94.5039C176.799 94.0901 176.496 93.764 176.104 93.5256C175.718 93.2872 175.263 93.168 174.741 93.168C174.175 93.168 173.68 93.3074 173.257 93.5863C172.839 93.8607 172.515 94.2205 172.286 94.6658C172.061 95.1067 171.948 95.5857 171.948 96.103V97.2837C171.948 97.9764 172.07 98.5657 172.312 99.0515C172.56 99.5373 172.904 99.9084 173.345 100.165C173.786 100.417 174.301 100.543 174.89 100.543C175.272 100.543 175.621 100.489 175.936 100.381C176.251 100.268 176.523 100.102 176.752 99.8814C176.982 99.661 177.157 99.3888 177.278 99.065L179.188 99.4091C179.035 99.9714 178.761 100.464 178.365 100.887C177.973 101.305 177.481 101.631 176.887 101.865C176.298 102.094 175.625 102.209 174.87 102.209ZM189.32 94.1665L187.492 94.4904C187.415 94.2565 187.294 94.0339 187.128 93.8224C186.966 93.611 186.745 93.4379 186.466 93.3029C186.187 93.168 185.839 93.1005 185.421 93.1005C184.849 93.1005 184.372 93.2287 183.99 93.4851C183.608 93.737 183.417 94.0631 183.417 94.4634C183.417 94.8098 183.545 95.0887 183.801 95.3001C184.058 95.5115 184.471 95.6847 185.043 95.8196L186.689 96.1974C187.643 96.4179 188.353 96.7575 188.821 97.2163C189.289 97.6751 189.523 98.2711 189.523 99.0043C189.523 99.625 189.343 100.178 188.983 100.664C188.628 101.145 188.131 101.523 187.492 101.798C186.858 102.072 186.122 102.209 185.286 102.209C184.125 102.209 183.178 101.962 182.445 101.467C181.712 100.968 181.262 100.259 181.096 99.3416L183.046 99.0447C183.167 99.553 183.417 99.9376 183.794 100.199C184.172 100.455 184.665 100.583 185.272 100.583C185.933 100.583 186.462 100.446 186.858 100.172C187.254 99.8926 187.451 99.553 187.451 99.1527C187.451 98.8288 187.33 98.5567 187.087 98.3363C186.849 98.1159 186.482 97.9495 185.987 97.837L184.233 97.4524C183.266 97.232 182.551 96.8812 182.087 96.3999C181.629 95.9186 181.399 95.3091 181.399 94.5714C181.399 93.9596 181.57 93.4244 181.912 92.9656C182.254 92.5067 182.726 92.1491 183.329 91.8928C183.932 91.6319 184.622 91.5014 185.4 91.5014C186.52 91.5014 187.402 91.7443 188.045 92.2301C188.688 92.7114 189.113 93.3569 189.32 94.1665ZM199.507 94.1665L197.678 94.4904C197.602 94.2565 197.481 94.0339 197.314 93.8224C197.152 93.611 196.932 93.4379 196.653 93.3029C196.374 93.168 196.025 93.1005 195.607 93.1005C195.036 93.1005 194.559 93.2287 194.177 93.4851C193.794 93.737 193.603 94.0631 193.603 94.4634C193.603 94.8098 193.731 95.0887 193.988 95.3001C194.244 95.5115 194.658 95.6847 195.229 95.8196L196.876 96.1974C197.829 96.4179 198.54 96.7575 199.008 97.2163C199.475 97.6751 199.709 98.2711 199.709 99.0043C199.709 99.625 199.529 100.178 199.17 100.664C198.814 101.145 198.317 101.523 197.678 101.798C197.044 102.072 196.309 102.209 195.472 102.209C194.312 102.209 193.365 101.962 192.632 101.467C191.898 100.968 191.449 100.259 191.282 99.3416L193.232 99.0447C193.354 99.553 193.603 99.9376 193.981 100.199C194.359 100.455 194.851 100.583 195.459 100.583C196.12 100.583 196.648 100.446 197.044 100.172C197.44 99.8926 197.638 99.553 197.638 99.1527C197.638 98.8288 197.517 98.5567 197.274 98.3363C197.035 98.1159 196.669 97.9495 196.174 97.837L194.42 97.4524C193.452 97.232 192.737 96.8812 192.274 96.3999C191.815 95.9186 191.586 95.3091 191.586 94.5714C191.586 93.9596 191.757 93.4244 192.099 92.9656C192.44 92.5067 192.913 92.1491 193.515 91.8928C194.118 91.6319 194.809 91.5014 195.587 91.5014C196.707 91.5014 197.588 91.7443 198.232 92.2301C198.875 92.7114 199.3 93.3569 199.507 94.1665Z" fill="#775351"/>
<path d="M127.039 148.301V146.614L133.01 137.182H134.339V139.665H133.496L129.225 146.425V146.533H137.409V148.301H127.039ZM133.591 151V147.788L133.604 147.019V137.182H135.581V151H133.591ZM139.471 148.301V146.614L145.442 137.182H146.771V139.665H145.928L141.657 146.425V146.533H149.841V148.301H139.471ZM146.022 151V147.788L146.036 147.019V137.182H148.013V151H146.022ZM157.835 144.091C157.835 142.4 158.057 140.843 158.503 139.422C158.948 138 159.598 136.689 160.453 135.488H162.301C161.969 135.934 161.658 136.48 161.37 137.128C161.082 137.776 160.831 138.486 160.615 139.26C160.399 140.029 160.23 140.828 160.109 141.655C159.987 142.478 159.926 143.29 159.926 144.091C159.926 145.161 160.032 146.246 160.244 147.343C160.455 148.441 160.741 149.459 161.1 150.4C161.46 151.34 161.861 152.107 162.301 152.7H160.453C159.598 151.499 158.948 150.188 158.503 148.767C158.057 147.345 157.835 145.787 157.835 144.091ZM164.401 151V149.489L169.077 144.644C169.577 144.118 169.988 143.657 170.312 143.261C170.64 142.861 170.885 142.481 171.047 142.121C171.209 141.761 171.29 141.379 171.29 140.974C171.29 140.515 171.182 140.119 170.966 139.786C170.751 139.449 170.456 139.19 170.083 139.01C169.709 138.826 169.289 138.734 168.821 138.734C168.326 138.734 167.894 138.835 167.525 139.037C167.157 139.24 166.873 139.525 166.675 139.894C166.477 140.263 166.378 140.695 166.378 141.19H164.388C164.388 140.348 164.581 139.613 164.968 138.983C165.355 138.354 165.886 137.866 166.561 137.519C167.235 137.168 168.002 136.993 168.861 136.993C169.729 136.993 170.494 137.166 171.155 137.512C171.821 137.854 172.341 138.322 172.714 138.916C173.087 139.505 173.274 140.171 173.274 140.913C173.274 141.426 173.177 141.927 172.984 142.418C172.795 142.908 172.464 143.454 171.992 144.057C171.52 144.655 170.863 145.382 170.022 146.237L167.276 149.111V149.212H173.497V151H164.401ZM180.865 151.229C179.798 151.225 178.888 150.944 178.132 150.386C177.376 149.828 176.798 149.016 176.398 147.95C175.998 146.884 175.797 145.6 175.797 144.098C175.797 142.6 175.998 141.32 176.398 140.259C176.803 139.197 177.383 138.387 178.139 137.83C178.899 137.272 179.807 136.993 180.865 136.993C181.922 136.993 182.828 137.274 183.584 137.836C184.339 138.394 184.917 139.204 185.318 140.265C185.722 141.322 185.925 142.6 185.925 144.098C185.925 145.605 185.725 146.891 185.324 147.957C184.924 149.019 184.346 149.83 183.59 150.393C182.835 150.951 181.926 151.229 180.865 151.229ZM180.865 149.428C181.8 149.428 182.531 148.971 183.057 148.058C183.588 147.145 183.854 145.825 183.854 144.098C183.854 142.951 183.732 141.981 183.489 141.19C183.251 140.393 182.907 139.791 182.457 139.381C182.012 138.968 181.481 138.761 180.865 138.761C179.933 138.761 179.202 139.219 178.672 140.137C178.141 141.055 177.873 142.375 177.869 144.098C177.869 145.249 177.988 146.223 178.226 147.019C178.469 147.811 178.813 148.411 179.259 148.821C179.704 149.225 180.239 149.428 180.865 149.428ZM193.143 151.189C192.526 151.18 191.919 151.067 191.321 150.852C190.727 150.636 190.187 150.276 189.702 149.772C189.216 149.268 188.827 148.591 188.534 147.741C188.246 146.891 188.103 145.829 188.103 144.556C188.103 143.351 188.222 142.28 188.46 141.345C188.703 140.409 189.052 139.62 189.506 138.977C189.96 138.329 190.509 137.836 191.152 137.499C191.795 137.162 192.517 136.993 193.318 136.993C194.141 136.993 194.872 137.155 195.511 137.479C196.15 137.803 196.667 138.25 197.063 138.821C197.463 139.393 197.717 140.043 197.825 140.771H195.767C195.628 140.196 195.351 139.725 194.937 139.361C194.524 138.997 193.984 138.815 193.318 138.815C192.306 138.815 191.517 139.255 190.95 140.137C190.388 141.019 190.104 142.244 190.1 143.814H190.201C190.439 143.423 190.732 143.09 191.078 142.816C191.429 142.537 191.82 142.323 192.252 142.175C192.688 142.022 193.147 141.945 193.628 141.945C194.429 141.945 195.153 142.141 195.801 142.532C196.453 142.919 196.973 143.454 197.36 144.138C197.746 144.822 197.94 145.605 197.94 146.486C197.94 147.368 197.74 148.166 197.339 148.881C196.944 149.597 196.386 150.163 195.666 150.582C194.946 150.996 194.105 151.198 193.143 151.189ZM193.136 149.435C193.667 149.435 194.141 149.304 194.56 149.043C194.978 148.782 195.309 148.432 195.551 147.991C195.794 147.55 195.916 147.057 195.916 146.513C195.916 145.982 195.797 145.499 195.558 145.062C195.324 144.626 195 144.28 194.587 144.023C194.177 143.767 193.709 143.639 193.183 143.639C192.783 143.639 192.412 143.715 192.07 143.868C191.733 144.021 191.436 144.233 191.179 144.502C190.923 144.772 190.72 145.083 190.572 145.434C190.428 145.78 190.356 146.147 190.356 146.533C190.356 147.051 190.475 147.53 190.714 147.971C190.957 148.411 191.287 148.767 191.706 149.037C192.128 149.302 192.605 149.435 193.136 149.435ZM205.615 151V137.182H207.632V142.316H207.754C207.871 142.1 208.039 141.851 208.26 141.567C208.48 141.284 208.786 141.037 209.177 140.825C209.569 140.609 210.086 140.501 210.729 140.501C211.566 140.501 212.312 140.713 212.969 141.136C213.626 141.558 214.141 142.168 214.514 142.964C214.892 143.76 215.081 144.718 215.081 145.838C215.081 146.958 214.894 147.919 214.521 148.719C214.148 149.516 213.635 150.13 212.983 150.561C212.33 150.989 211.586 151.202 210.749 151.202C210.12 151.202 209.605 151.097 209.204 150.885C208.808 150.674 208.498 150.426 208.273 150.143C208.048 149.86 207.875 149.608 207.754 149.387H207.585V151H205.615ZM207.592 145.818C207.592 146.547 207.697 147.186 207.909 147.734C208.12 148.283 208.426 148.713 208.826 149.023C209.227 149.329 209.717 149.482 210.297 149.482C210.9 149.482 211.404 149.322 211.809 149.003C212.214 148.679 212.519 148.24 212.726 147.687C212.938 147.134 213.043 146.511 213.043 145.818C213.043 145.134 212.94 144.52 212.733 143.976C212.531 143.432 212.225 143.002 211.815 142.688C211.411 142.373 210.905 142.215 210.297 142.215C209.713 142.215 209.218 142.366 208.813 142.667C208.413 142.969 208.109 143.389 207.902 143.929C207.695 144.469 207.592 145.098 207.592 145.818ZM218.269 154.886C217.968 154.886 217.693 154.862 217.446 154.812C217.199 154.767 217.014 154.718 216.893 154.664L217.378 153.011C217.747 153.11 218.076 153.152 218.364 153.139C218.651 153.125 218.906 153.017 219.126 152.815C219.351 152.613 219.549 152.282 219.72 151.823L219.969 151.135L216.177 140.636H218.337L220.961 148.679H221.069L223.694 140.636H225.86L221.589 152.383C221.391 152.923 221.139 153.379 220.833 153.753C220.527 154.131 220.163 154.414 219.74 154.603C219.317 154.792 218.827 154.886 218.269 154.886ZM232.593 140.636V142.256H226.932V140.636H232.593ZM228.451 138.153H230.468V147.957C230.468 148.348 230.526 148.643 230.643 148.841C230.76 149.034 230.911 149.167 231.095 149.239C231.284 149.306 231.489 149.34 231.709 149.34C231.871 149.34 232.013 149.329 232.134 149.306C232.256 149.284 232.35 149.266 232.418 149.252L232.782 150.919C232.665 150.964 232.499 151.009 232.283 151.054C232.067 151.103 231.797 151.13 231.473 151.135C230.943 151.144 230.448 151.049 229.989 150.852C229.53 150.654 229.159 150.348 228.876 149.934C228.592 149.52 228.451 149.001 228.451 148.375V138.153ZM239.18 151.209C238.159 151.209 237.28 150.991 236.542 150.555C235.809 150.114 235.242 149.495 234.842 148.699C234.446 147.899 234.248 146.961 234.248 145.886C234.248 144.824 234.446 143.888 234.842 143.079C235.242 142.269 235.8 141.637 236.515 141.183C237.235 140.729 238.076 140.501 239.039 140.501C239.623 140.501 240.19 140.598 240.739 140.792C241.288 140.985 241.78 141.289 242.216 141.702C242.653 142.116 242.997 142.654 243.249 143.315C243.501 143.972 243.627 144.77 243.627 145.71V146.425H235.388V144.914H241.65C241.65 144.383 241.542 143.913 241.326 143.504C241.11 143.09 240.806 142.764 240.415 142.526C240.028 142.287 239.574 142.168 239.052 142.168C238.485 142.168 237.99 142.307 237.568 142.586C237.149 142.861 236.825 143.221 236.596 143.666C236.371 144.107 236.259 144.586 236.259 145.103V146.284C236.259 146.976 236.38 147.566 236.623 148.051C236.87 148.537 237.215 148.908 237.655 149.165C238.096 149.417 238.611 149.543 239.2 149.543C239.583 149.543 239.931 149.489 240.246 149.381C240.561 149.268 240.833 149.102 241.063 148.881C241.292 148.661 241.468 148.389 241.589 148.065L243.498 148.409C243.345 148.971 243.071 149.464 242.675 149.887C242.284 150.305 241.791 150.631 241.198 150.865C240.608 151.094 239.936 151.209 239.18 151.209ZM253.631 143.167L251.802 143.49C251.726 143.257 251.605 143.034 251.438 142.822C251.276 142.611 251.056 142.438 250.777 142.303C250.498 142.168 250.149 142.1 249.731 142.1C249.16 142.1 248.683 142.229 248.301 142.485C247.918 142.737 247.727 143.063 247.727 143.463C247.727 143.81 247.855 144.089 248.112 144.3C248.368 144.511 248.782 144.685 249.353 144.82L251 145.197C251.953 145.418 252.664 145.757 253.132 146.216C253.599 146.675 253.833 147.271 253.833 148.004C253.833 148.625 253.653 149.178 253.294 149.664C252.938 150.145 252.441 150.523 251.802 150.798C251.168 151.072 250.433 151.209 249.596 151.209C248.436 151.209 247.489 150.962 246.756 150.467C246.022 149.968 245.573 149.259 245.406 148.342L247.356 148.045C247.478 148.553 247.727 148.938 248.105 149.199C248.483 149.455 248.975 149.583 249.583 149.583C250.244 149.583 250.772 149.446 251.168 149.172C251.564 148.893 251.762 148.553 251.762 148.153C251.762 147.829 251.641 147.557 251.398 147.336C251.159 147.116 250.793 146.949 250.298 146.837L248.544 146.452C247.576 146.232 246.861 145.881 246.398 145.4C245.939 144.919 245.71 144.309 245.71 143.571C245.71 142.96 245.881 142.424 246.223 141.966C246.564 141.507 247.037 141.149 247.639 140.893C248.242 140.632 248.933 140.501 249.711 140.501C250.831 140.501 251.713 140.744 252.356 141.23C252.999 141.711 253.424 142.357 253.631 143.167ZM259.931 145.265C259.931 146.961 259.708 148.519 259.263 149.941C258.818 151.362 258.168 152.673 257.313 153.874H255.464C255.797 153.429 256.108 152.882 256.396 152.235C256.683 151.587 256.935 150.879 257.151 150.109C257.367 149.336 257.536 148.535 257.657 147.707C257.779 146.88 257.839 146.066 257.839 145.265C257.839 144.199 257.734 143.117 257.522 142.02C257.311 140.922 257.025 139.903 256.665 138.963C256.306 138.023 255.905 137.256 255.464 136.662H257.313C258.168 137.863 258.818 139.174 259.263 140.596C259.708 142.017 259.931 143.574 259.931 145.265Z" fill="#775351"/>
<rect width="197" height="11" transform="translate(32 172)" fill="#D9D9D9"/>
<rect x="32" y="172" width="2" height="11" fill="#262626"/>
<rect x="34" y="172" width="138" height="11" fill="#CF9F5D"/>
<rect x="227" y="172" width="2" height="11" fill="#262626"/>
<rect width="181" height="11" transform="translate(253 172)" fill="#D9D9D9"/>
<rect x="253" y="172" width="2" height="11" fill="#262626"/>
<rect x="254.838" y="172" width="158.949" height="11" fill="#D18686"/>
<rect x="432" y="172" width="2" height="11" fill="#262626"/>
</g>
</g>
<g filter="url(#filter2_dd_7_56)">
<rect x="161" y="259" width="451" height="270" rx="16" fill="white"/>
<rect x="185" y="319" width="402" height="180" fill="#E5E5E5"/>
<rect x="198" y="386" width="377" height="47" rx="4" fill="white"/>
<path d="M222.631 402.182V416H221.011L213.482 405.151H213.347V416H211.673V402.182H213.293L220.849 413.058H220.984V402.182H222.631ZM230.108 416.216C229.11 416.216 228.248 415.996 227.524 415.555C226.804 415.109 226.249 414.489 225.858 413.692C225.471 412.892 225.277 411.961 225.277 410.899C225.277 409.838 225.471 408.902 225.858 408.092C226.249 407.278 226.793 406.644 227.49 406.19C228.192 405.731 229.011 405.501 229.946 405.501C230.486 405.501 231.019 405.591 231.545 405.771C232.072 405.951 232.551 406.244 232.983 406.648C233.414 407.049 233.758 407.58 234.015 408.241C234.271 408.902 234.399 409.716 234.399 410.683V411.358H226.411V409.982H232.78C232.78 409.397 232.663 408.875 232.429 408.416C232.2 407.957 231.871 407.595 231.444 407.33C231.021 407.065 230.522 406.932 229.946 406.932C229.312 406.932 228.763 407.089 228.3 407.404C227.841 407.714 227.488 408.119 227.241 408.619C226.993 409.118 226.87 409.653 226.87 410.224V411.142C226.87 411.925 227.005 412.588 227.274 413.132C227.549 413.672 227.929 414.084 228.415 414.367C228.9 414.646 229.465 414.786 230.108 414.786C230.527 414.786 230.904 414.727 231.242 414.61C231.584 414.489 231.878 414.309 232.126 414.07C232.373 413.827 232.564 413.526 232.699 413.166L234.237 413.598C234.076 414.12 233.803 414.579 233.421 414.974C233.039 415.366 232.566 415.672 232.004 415.892C231.442 416.108 230.81 416.216 230.108 416.216ZM239.17 416L236.012 405.636H237.685L239.925 413.571H240.033L242.246 405.636H243.947L246.133 413.544H246.241L248.481 405.636H250.154L246.996 416H245.431L243.164 408.038H243.002L240.735 416H239.17ZM256.252 416.216C255.253 416.216 254.392 415.996 253.668 415.555C252.948 415.109 252.392 414.489 252.001 413.692C251.614 412.892 251.421 411.961 251.421 410.899C251.421 409.838 251.614 408.902 252.001 408.092C252.392 407.278 252.937 406.644 253.634 406.19C254.336 405.731 255.154 405.501 256.09 405.501C256.63 405.501 257.163 405.591 257.689 405.771C258.215 405.951 258.694 406.244 259.126 406.648C259.558 407.049 259.902 407.58 260.158 408.241C260.415 408.902 260.543 409.716 260.543 410.683V411.358H252.554V409.982H258.924C258.924 409.397 258.807 408.875 258.573 408.416C258.343 407.957 258.015 407.595 257.588 407.33C257.165 407.065 256.666 406.932 256.09 406.932C255.456 406.932 254.907 407.089 254.444 407.404C253.985 407.714 253.632 408.119 253.384 408.619C253.137 409.118 253.013 409.653 253.013 410.224V411.142C253.013 411.925 253.148 412.588 253.418 413.132C253.692 413.672 254.072 414.084 254.558 414.367C255.044 414.646 255.609 414.786 256.252 414.786C256.67 414.786 257.048 414.727 257.385 414.61C257.727 414.489 258.022 414.309 258.269 414.07C258.517 413.827 258.708 413.526 258.843 413.166L260.381 413.598C260.219 414.12 259.947 414.579 259.565 414.974C259.182 415.366 258.71 415.672 258.148 415.892C257.585 416.108 256.953 416.216 256.252 416.216ZM270.306 407.957L268.876 408.362C268.786 408.124 268.653 407.892 268.478 407.667C268.307 407.438 268.073 407.249 267.776 407.1C267.479 406.952 267.099 406.878 266.636 406.878C266.001 406.878 265.473 407.024 265.05 407.316C264.632 407.604 264.423 407.971 264.423 408.416C264.423 408.812 264.567 409.125 264.854 409.354C265.142 409.583 265.592 409.775 266.204 409.928L267.742 410.305C268.669 410.53 269.359 410.874 269.814 411.338C270.268 411.797 270.495 412.388 270.495 413.112C270.495 413.706 270.324 414.237 269.982 414.705C269.645 415.172 269.173 415.541 268.565 415.811C267.958 416.081 267.252 416.216 266.447 416.216C265.39 416.216 264.515 415.987 263.822 415.528C263.129 415.069 262.691 414.399 262.506 413.517L264.018 413.139C264.162 413.697 264.434 414.115 264.834 414.394C265.239 414.673 265.768 414.812 266.42 414.812C267.162 414.812 267.751 414.655 268.188 414.34C268.628 414.021 268.849 413.638 268.849 413.193C268.849 412.833 268.723 412.532 268.471 412.289C268.219 412.042 267.832 411.857 267.31 411.736L265.583 411.331C264.634 411.106 263.937 410.757 263.491 410.285C263.051 409.808 262.83 409.212 262.83 408.497C262.83 407.912 262.994 407.395 263.323 406.945C263.656 406.496 264.108 406.142 264.679 405.886C265.255 405.63 265.907 405.501 266.636 405.501C267.661 405.501 268.466 405.726 269.051 406.176C269.64 406.626 270.059 407.22 270.306 407.957ZM277.399 405.636V406.986H272.028V405.636H277.399ZM273.594 403.153H275.186V413.031C275.186 413.481 275.251 413.818 275.382 414.043C275.517 414.264 275.688 414.412 275.894 414.489C276.106 414.561 276.329 414.597 276.562 414.597C276.738 414.597 276.882 414.588 276.994 414.57C277.107 414.547 277.197 414.529 277.264 414.516L277.588 415.946C277.48 415.987 277.329 416.027 277.136 416.067C276.943 416.112 276.697 416.135 276.4 416.135C275.951 416.135 275.51 416.038 275.078 415.845C274.651 415.651 274.295 415.357 274.012 414.961C273.733 414.565 273.594 414.066 273.594 413.463V403.153ZM280.233 416V402.182H288.518V403.666H281.906V408.335H287.898V409.82H281.906V416H280.233ZM292.761 402.182V416H291.168V402.182H292.761ZM299.887 416.216C298.952 416.216 298.131 415.993 297.425 415.548C296.723 415.103 296.174 414.48 295.778 413.679C295.387 412.878 295.191 411.943 295.191 410.872C295.191 409.793 295.387 408.85 295.778 408.045C296.174 407.24 296.723 406.615 297.425 406.169C298.131 405.724 298.952 405.501 299.887 405.501C300.823 405.501 301.642 405.724 302.343 406.169C303.05 406.615 303.598 407.24 303.99 408.045C304.385 408.85 304.583 409.793 304.583 410.872C304.583 411.943 304.385 412.878 303.99 413.679C303.598 414.48 303.05 415.103 302.343 415.548C301.642 415.993 300.823 416.216 299.887 416.216ZM299.887 414.786C300.598 414.786 301.183 414.603 301.642 414.239C302.1 413.875 302.44 413.396 302.66 412.802C302.881 412.208 302.991 411.565 302.991 410.872C302.991 410.179 302.881 409.534 302.66 408.936C302.44 408.337 302.1 407.854 301.642 407.485C301.183 407.116 300.598 406.932 299.887 406.932C299.177 406.932 298.592 407.116 298.133 407.485C297.674 407.854 297.335 408.337 297.114 408.936C296.894 409.534 296.784 410.179 296.784 410.872C296.784 411.565 296.894 412.208 297.114 412.802C297.335 413.396 297.674 413.875 298.133 414.239C298.592 414.603 299.177 414.786 299.887 414.786ZM309.009 416L305.852 405.636H307.525L309.765 413.571H309.873L312.086 405.636H313.786L315.973 413.544H316.081L318.321 405.636H319.994L316.836 416H315.271L313.004 408.038H312.842L310.575 416H309.009ZM322.315 416V402.182H330.6V403.666H323.988V408.335H329.98V409.82H323.988V416H322.315ZM333.25 416V405.636H334.843V416H333.25ZM334.06 403.909C333.75 403.909 333.482 403.803 333.257 403.592C333.037 403.381 332.926 403.126 332.926 402.83C332.926 402.533 333.037 402.279 333.257 402.067C333.482 401.856 333.75 401.75 334.06 401.75C334.37 401.75 334.636 401.856 334.856 402.067C335.081 402.279 335.194 402.533 335.194 402.83C335.194 403.126 335.081 403.381 334.856 403.592C334.636 403.803 334.37 403.909 334.06 403.909ZM339.351 402.182V416H337.759V402.182H339.351ZM346.613 416.216C345.615 416.216 344.753 415.996 344.029 415.555C343.309 415.109 342.754 414.489 342.362 413.692C341.976 412.892 341.782 411.961 341.782 410.899C341.782 409.838 341.976 408.902 342.362 408.092C342.754 407.278 343.298 406.644 343.995 406.19C344.697 405.731 345.516 405.501 346.451 405.501C346.991 405.501 347.524 405.591 348.05 405.771C348.577 405.951 349.056 406.244 349.487 406.648C349.919 407.049 350.263 407.58 350.52 408.241C350.776 408.902 350.904 409.716 350.904 410.683V411.358H342.916V409.982H349.285C349.285 409.397 349.168 408.875 348.934 408.416C348.705 407.957 348.376 407.595 347.949 407.33C347.526 407.065 347.027 406.932 346.451 406.932C345.817 406.932 345.268 407.089 344.805 407.404C344.346 407.714 343.993 408.119 343.746 408.619C343.498 409.118 343.374 409.653 343.374 410.224V411.142C343.374 411.925 343.509 412.588 343.779 413.132C344.054 413.672 344.434 414.084 344.92 414.367C345.405 414.646 345.97 414.786 346.613 414.786C347.031 414.786 347.409 414.727 347.747 414.61C348.088 414.489 348.383 414.309 348.631 414.07C348.878 413.827 349.069 413.526 349.204 413.166L350.742 413.598C350.58 414.12 350.308 414.579 349.926 414.974C349.544 415.366 349.071 415.672 348.509 415.892C347.947 416.108 347.315 416.216 346.613 416.216ZM353.542 416V402.182H361.828V403.666H355.216V408.335H361.207V409.82H355.216V416H353.542ZM364.478 416V405.636H366.07V416H364.478ZM365.288 403.909C364.977 403.909 364.71 403.803 364.485 403.592C364.264 403.381 364.154 403.126 364.154 402.83C364.154 402.533 364.264 402.279 364.485 402.067C364.71 401.856 364.977 401.75 365.288 401.75C365.598 401.75 365.863 401.856 366.084 402.067C366.309 402.279 366.421 402.533 366.421 402.83C366.421 403.126 366.309 403.381 366.084 403.592C365.863 403.803 365.598 403.909 365.288 403.909ZM368.987 416V405.636H370.525V407.202H370.633C370.822 406.689 371.164 406.273 371.659 405.953C372.153 405.634 372.711 405.474 373.332 405.474C373.449 405.474 373.595 405.477 373.77 405.481C373.946 405.486 374.079 405.492 374.169 405.501V407.121C374.115 407.107 373.991 407.087 373.797 407.06C373.608 407.029 373.408 407.013 373.197 407.013C372.693 407.013 372.243 407.118 371.847 407.33C371.456 407.537 371.146 407.825 370.916 408.194C370.691 408.558 370.579 408.974 370.579 409.442V416H368.987ZM383.397 407.957L381.967 408.362C381.877 408.124 381.744 407.892 381.568 407.667C381.398 407.438 381.164 407.249 380.867 407.1C380.57 406.952 380.19 406.878 379.726 406.878C379.092 406.878 378.564 407.024 378.141 407.316C377.723 407.604 377.513 407.971 377.513 408.416C377.513 408.812 377.657 409.125 377.945 409.354C378.233 409.583 378.683 409.775 379.295 409.928L380.833 410.305C381.76 410.53 382.45 410.874 382.904 411.338C383.359 411.797 383.586 412.388 383.586 413.112C383.586 413.706 383.415 414.237 383.073 414.705C382.736 415.172 382.263 415.541 381.656 415.811C381.049 416.081 380.343 416.216 379.538 416.216C378.48 416.216 377.606 415.987 376.913 415.528C376.22 415.069 375.782 414.399 375.597 413.517L377.109 413.139C377.253 413.697 377.525 414.115 377.925 414.394C378.33 414.673 378.858 414.812 379.511 414.812C380.253 414.812 380.842 414.655 381.278 414.34C381.719 414.021 381.94 413.638 381.94 413.193C381.94 412.833 381.814 412.532 381.562 412.289C381.31 412.042 380.923 411.857 380.401 411.736L378.674 411.331C377.725 411.106 377.028 410.757 376.582 410.285C376.141 409.808 375.921 409.212 375.921 408.497C375.921 407.912 376.085 407.395 376.414 406.945C376.746 406.496 377.199 406.142 377.77 405.886C378.346 405.63 378.998 405.501 379.726 405.501C380.752 405.501 381.557 405.726 382.142 406.176C382.731 406.626 383.15 407.22 383.397 407.957ZM390.49 405.636V406.986H385.119V405.636H390.49ZM386.684 403.153H388.277V413.031C388.277 413.481 388.342 413.818 388.472 414.043C388.607 414.264 388.778 414.412 388.985 414.489C389.197 414.561 389.419 414.597 389.653 414.597C389.829 414.597 389.973 414.588 390.085 414.57C390.198 414.547 390.287 414.529 390.355 414.516L390.679 415.946C390.571 415.987 390.42 416.027 390.227 416.067C390.033 416.112 389.788 416.135 389.491 416.135C389.041 416.135 388.601 416.038 388.169 415.845C387.742 415.651 387.386 415.357 387.103 414.961C386.824 414.565 386.684 414.066 386.684 413.463V403.153ZM393.324 416V402.182H397.993C399.077 402.182 399.963 402.377 400.651 402.769C401.344 403.156 401.857 403.68 402.189 404.341C402.522 405.002 402.689 405.74 402.689 406.554C402.689 407.368 402.522 408.108 402.189 408.774C401.861 409.44 401.353 409.97 400.665 410.366C399.976 410.757 399.095 410.953 398.02 410.953H394.673V409.469H397.966C398.708 409.469 399.304 409.341 399.754 409.084C400.204 408.828 400.53 408.481 400.732 408.045C400.939 407.604 401.042 407.107 401.042 406.554C401.042 406.001 400.939 405.506 400.732 405.07C400.53 404.633 400.201 404.291 399.747 404.044C399.293 403.792 398.69 403.666 397.939 403.666H394.997V416H393.324ZM405.168 416V405.636H406.707V407.202H406.815C407.004 406.689 407.345 406.273 407.84 405.953C408.335 405.634 408.893 405.474 409.513 405.474C409.63 405.474 409.777 405.477 409.952 405.481C410.127 405.486 410.26 405.492 410.35 405.501V407.121C410.296 407.107 410.172 407.087 409.979 407.06C409.79 407.029 409.59 407.013 409.379 407.013C408.875 407.013 408.425 407.118 408.029 407.33C407.638 407.537 407.327 407.825 407.098 408.194C406.873 408.558 406.761 408.974 406.761 409.442V416H405.168ZM412.238 416V405.636H413.83V416H412.238ZM413.047 403.909C412.737 403.909 412.469 403.803 412.244 403.592C412.024 403.381 411.914 403.126 411.914 402.83C411.914 402.533 412.024 402.279 412.244 402.067C412.469 401.856 412.737 401.75 413.047 401.75C413.358 401.75 413.623 401.856 413.843 402.067C414.068 402.279 414.181 402.533 414.181 402.83C414.181 403.126 414.068 403.381 413.843 403.592C413.623 403.803 413.358 403.909 413.047 403.909ZM420.957 416.216C420.021 416.216 419.2 415.993 418.494 415.548C417.792 415.103 417.243 414.48 416.848 413.679C416.456 412.878 416.261 411.943 416.261 410.872C416.261 409.793 416.456 408.85 416.848 408.045C417.243 407.24 417.792 406.615 418.494 406.169C419.2 405.724 420.021 405.501 420.957 405.501C421.892 405.501 422.711 405.724 423.413 406.169C424.119 406.615 424.668 407.24 425.059 408.045C425.455 408.85 425.653 409.793 425.653 410.872C425.653 411.943 425.455 412.878 425.059 413.679C424.668 414.48 424.119 415.103 423.413 415.548C422.711 415.993 421.892 416.216 420.957 416.216ZM420.957 414.786C421.667 414.786 422.252 414.603 422.711 414.239C423.17 413.875 423.509 413.396 423.73 412.802C423.95 412.208 424.06 411.565 424.06 410.872C424.06 410.179 423.95 409.534 423.73 408.936C423.509 408.337 423.17 407.854 422.711 407.485C422.252 407.116 421.667 406.932 420.957 406.932C420.246 406.932 419.661 407.116 419.202 407.485C418.744 407.854 418.404 408.337 418.184 408.936C417.963 409.534 417.853 410.179 417.853 410.872C417.853 411.565 417.963 412.208 418.184 412.802C418.404 413.396 418.744 413.875 419.202 414.239C419.661 414.603 420.246 414.786 420.957 414.786ZM428.083 416V405.636H429.622V407.202H429.73C429.919 406.689 430.26 406.273 430.755 405.953C431.25 405.634 431.808 405.474 432.429 405.474C432.545 405.474 432.692 405.477 432.867 405.481C433.043 405.486 433.175 405.492 433.265 405.501V407.121C433.211 407.107 433.088 407.087 432.894 407.06C432.705 407.029 432.505 407.013 432.294 407.013C431.79 407.013 431.34 407.118 430.944 407.33C430.553 407.537 430.242 407.825 430.013 408.194C429.788 408.558 429.676 408.974 429.676 409.442V416H428.083ZM435.153 416V405.636H436.745V416H435.153ZM435.962 403.909C435.652 403.909 435.384 403.803 435.159 403.592C434.939 403.381 434.829 403.126 434.829 402.83C434.829 402.533 434.939 402.279 435.159 402.067C435.384 401.856 435.652 401.75 435.962 401.75C436.273 401.75 436.538 401.856 436.759 402.067C436.983 402.279 437.096 402.533 437.096 402.83C437.096 403.126 436.983 403.381 436.759 403.592C436.538 403.803 436.273 403.909 435.962 403.909ZM444.169 405.636V406.986H438.798V405.636H444.169ZM440.363 403.153H441.956V413.031C441.956 413.481 442.021 413.818 442.151 414.043C442.286 414.264 442.457 414.412 442.664 414.489C442.875 414.561 443.098 414.597 443.332 414.597C443.507 414.597 443.651 414.588 443.764 414.57C443.876 414.547 443.966 414.529 444.034 414.516L444.358 415.946C444.25 415.987 444.099 416.027 443.905 416.067C443.712 416.112 443.467 416.135 443.17 416.135C442.72 416.135 442.279 416.038 441.848 415.845C441.42 415.651 441.065 415.357 440.782 414.961C440.503 414.565 440.363 414.066 440.363 413.463V403.153ZM446.564 416V405.636H448.156V416H446.564ZM447.373 403.909C447.063 403.909 446.795 403.803 446.571 403.592C446.35 403.381 446.24 403.126 446.24 402.83C446.24 402.533 446.35 402.279 446.571 402.067C446.795 401.856 447.063 401.75 447.373 401.75C447.684 401.75 447.949 401.856 448.17 402.067C448.395 402.279 448.507 402.533 448.507 402.83C448.507 403.126 448.395 403.381 448.17 403.592C447.949 403.803 447.684 403.909 447.373 403.909ZM450.776 416V414.786L456.659 407.229V407.121H450.965V405.636H458.71V406.905L452.989 414.408V414.516H458.899V416H450.776ZM465.4 416.216C464.402 416.216 463.54 415.996 462.816 415.555C462.096 415.109 461.541 414.489 461.15 413.692C460.763 412.892 460.569 411.961 460.569 410.899C460.569 409.838 460.763 408.902 461.15 408.092C461.541 407.278 462.085 406.644 462.782 406.19C463.484 405.731 464.303 405.501 465.238 405.501C465.778 405.501 466.311 405.591 466.837 405.771C467.364 405.951 467.843 406.244 468.275 406.648C468.706 407.049 469.05 407.58 469.307 408.241C469.563 408.902 469.691 409.716 469.691 410.683V411.358H461.703V409.982H468.072C468.072 409.397 467.955 408.875 467.721 408.416C467.492 407.957 467.163 407.595 466.736 407.33C466.313 407.065 465.814 406.932 465.238 406.932C464.604 406.932 464.055 407.089 463.592 407.404C463.133 407.714 462.78 408.119 462.533 408.619C462.285 409.118 462.162 409.653 462.162 410.224V411.142C462.162 411.925 462.297 412.588 462.566 413.132C462.841 413.672 463.221 414.084 463.707 414.367C464.192 414.646 464.757 414.786 465.4 414.786C465.819 414.786 466.196 414.727 466.534 414.61C466.876 414.489 467.17 414.309 467.418 414.07C467.665 413.827 467.856 413.526 467.991 413.166L469.529 413.598C469.368 414.12 469.095 414.579 468.713 414.974C468.331 415.366 467.858 415.672 467.296 415.892C466.734 416.108 466.102 416.216 465.4 416.216ZM472.114 416V405.636H473.652V407.202H473.76C473.949 406.689 474.291 406.273 474.786 405.953C475.28 405.634 475.838 405.474 476.459 405.474C476.576 405.474 476.722 405.477 476.897 405.481C477.073 405.486 477.205 405.492 477.295 405.501V407.121C477.241 407.107 477.118 407.087 476.924 407.06C476.735 407.029 476.535 407.013 476.324 407.013C475.82 407.013 475.37 407.118 474.974 407.33C474.583 407.537 474.273 407.825 474.043 408.194C473.818 408.558 473.706 408.974 473.706 409.442V416H472.114Z" fill="#205E5F"/>
<rect x="198" y="442" width="377" height="47" rx="4" fill="white"/>
<path d="M223.332 465.091C223.332 466.548 223.069 467.808 222.543 468.869C222.017 469.931 221.295 470.75 220.377 471.325C219.46 471.901 218.411 472.189 217.233 472.189C216.054 472.189 215.006 471.901 214.089 471.325C213.171 470.75 212.449 469.931 211.923 468.869C211.397 467.808 211.134 466.548 211.134 465.091C211.134 463.634 211.397 462.374 211.923 461.312C212.449 460.251 213.171 459.432 214.089 458.857C215.006 458.281 216.054 457.993 217.233 457.993C218.411 457.993 219.46 458.281 220.377 458.857C221.295 459.432 222.017 460.251 222.543 461.312C223.069 462.374 223.332 463.634 223.332 465.091ZM221.713 465.091C221.713 463.894 221.513 462.885 221.113 462.061C220.717 461.238 220.179 460.615 219.5 460.192C218.825 459.77 218.07 459.558 217.233 459.558C216.396 459.558 215.638 459.77 214.959 460.192C214.284 460.615 213.747 461.238 213.347 462.061C212.951 462.885 212.753 463.894 212.753 465.091C212.753 466.287 212.951 467.297 213.347 468.12C213.747 468.944 214.284 469.567 214.959 469.989C215.638 470.412 216.396 470.624 217.233 470.624C218.07 470.624 218.825 470.412 219.5 469.989C220.179 469.567 220.717 468.944 221.113 468.12C221.513 467.297 221.713 466.287 221.713 465.091ZM227.522 458.182V472H225.93V458.182H227.522ZM234.352 472.216C233.489 472.216 232.726 471.998 232.065 471.561C231.404 471.121 230.886 470.5 230.513 469.699C230.14 468.894 229.953 467.943 229.953 466.845C229.953 465.757 230.14 464.812 230.513 464.011C230.886 463.211 231.406 462.592 232.072 462.156C232.737 461.72 233.507 461.501 234.379 461.501C235.054 461.501 235.587 461.614 235.978 461.839C236.374 462.059 236.675 462.311 236.882 462.594C237.094 462.873 237.258 463.103 237.375 463.283H237.51V458.182H239.102V472H237.564V470.408H237.375C237.258 470.597 237.092 470.835 236.876 471.123C236.66 471.406 236.352 471.66 235.951 471.885C235.551 472.106 235.018 472.216 234.352 472.216ZM234.568 470.786C235.207 470.786 235.747 470.619 236.187 470.286C236.628 469.949 236.963 469.483 237.193 468.89C237.422 468.291 237.537 467.601 237.537 466.818C237.537 466.045 237.424 465.368 237.199 464.787C236.975 464.203 236.642 463.748 236.201 463.424C235.76 463.096 235.216 462.932 234.568 462.932C233.893 462.932 233.331 463.105 232.881 463.451C232.436 463.793 232.101 464.259 231.876 464.848C231.656 465.433 231.545 466.089 231.545 466.818C231.545 467.556 231.658 468.226 231.883 468.829C232.112 469.427 232.449 469.904 232.895 470.259C233.345 470.61 233.902 470.786 234.568 470.786ZM246.585 472.216C245.586 472.216 244.725 471.996 244.001 471.555C243.281 471.109 242.725 470.489 242.334 469.692C241.947 468.892 241.754 467.961 241.754 466.899C241.754 465.838 241.947 464.902 242.334 464.092C242.725 463.278 243.27 462.644 243.967 462.19C244.669 461.731 245.487 461.501 246.423 461.501C246.963 461.501 247.496 461.591 248.022 461.771C248.548 461.951 249.027 462.244 249.459 462.648C249.891 463.049 250.235 463.58 250.491 464.241C250.748 464.902 250.876 465.716 250.876 466.683V467.358H242.887V465.982H249.257C249.257 465.397 249.14 464.875 248.906 464.416C248.676 463.957 248.348 463.595 247.921 463.33C247.498 463.065 246.999 462.932 246.423 462.932C245.789 462.932 245.24 463.089 244.777 463.404C244.318 463.714 243.965 464.119 243.717 464.619C243.47 465.118 243.346 465.653 243.346 466.224V467.142C243.346 467.925 243.481 468.588 243.751 469.132C244.025 469.672 244.405 470.084 244.891 470.367C245.377 470.646 245.942 470.786 246.585 470.786C247.003 470.786 247.381 470.727 247.718 470.61C248.06 470.489 248.355 470.309 248.602 470.07C248.85 469.827 249.041 469.526 249.176 469.166L250.714 469.598C250.552 470.12 250.28 470.579 249.898 470.974C249.515 471.366 249.043 471.672 248.481 471.892C247.918 472.108 247.286 472.216 246.585 472.216ZM260.639 463.957L259.209 464.362C259.119 464.124 258.986 463.892 258.811 463.667C258.64 463.438 258.406 463.249 258.109 463.1C257.812 462.952 257.432 462.878 256.969 462.878C256.334 462.878 255.806 463.024 255.383 463.316C254.965 463.604 254.756 463.971 254.756 464.416C254.756 464.812 254.9 465.125 255.187 465.354C255.475 465.583 255.925 465.775 256.537 465.928L258.075 466.305C259.002 466.53 259.692 466.874 260.147 467.338C260.601 467.797 260.828 468.388 260.828 469.112C260.828 469.706 260.657 470.237 260.315 470.705C259.978 471.172 259.506 471.541 258.898 471.811C258.291 472.081 257.585 472.216 256.78 472.216C255.723 472.216 254.848 471.987 254.155 471.528C253.462 471.069 253.024 470.399 252.839 469.517L254.351 469.139C254.495 469.697 254.767 470.115 255.167 470.394C255.572 470.673 256.101 470.812 256.753 470.812C257.495 470.812 258.084 470.655 258.521 470.34C258.961 470.021 259.182 469.638 259.182 469.193C259.182 468.833 259.056 468.532 258.804 468.289C258.552 468.042 258.165 467.857 257.643 467.736L255.916 467.331C254.967 467.106 254.27 466.757 253.824 466.285C253.384 465.808 253.163 465.212 253.163 464.497C253.163 463.912 253.327 463.395 253.656 462.945C253.989 462.496 254.441 462.142 255.012 461.886C255.588 461.63 256.24 461.501 256.969 461.501C257.994 461.501 258.799 461.726 259.384 462.176C259.973 462.626 260.392 463.22 260.639 463.957ZM267.732 461.636V462.986H262.361V461.636H267.732ZM263.927 459.153H265.519V469.031C265.519 469.481 265.584 469.818 265.715 470.043C265.85 470.264 266.021 470.412 266.227 470.489C266.439 470.561 266.662 470.597 266.895 470.597C267.071 470.597 267.215 470.588 267.327 470.57C267.44 470.547 267.53 470.529 267.597 470.516L267.921 471.946C267.813 471.987 267.662 472.027 267.469 472.067C267.276 472.112 267.03 472.135 266.733 472.135C266.284 472.135 265.843 472.038 265.411 471.845C264.984 471.651 264.628 471.357 264.345 470.961C264.066 470.565 263.927 470.066 263.927 469.463V459.153ZM270.566 472V458.182H278.851V459.666H272.239V464.335H278.231V465.82H272.239V472H270.566ZM283.094 458.182V472H281.501V458.182H283.094ZM290.22 472.216C289.285 472.216 288.464 471.993 287.758 471.548C287.056 471.103 286.507 470.48 286.111 469.679C285.72 468.878 285.524 467.943 285.524 466.872C285.524 465.793 285.72 464.85 286.111 464.045C286.507 463.24 287.056 462.615 287.758 462.169C288.464 461.724 289.285 461.501 290.22 461.501C291.156 461.501 291.975 461.724 292.676 462.169C293.383 462.615 293.931 463.24 294.323 464.045C294.718 464.85 294.916 465.793 294.916 466.872C294.916 467.943 294.718 468.878 294.323 469.679C293.931 470.48 293.383 471.103 292.676 471.548C291.975 471.993 291.156 472.216 290.22 472.216ZM290.22 470.786C290.931 470.786 291.516 470.603 291.975 470.239C292.433 469.875 292.773 469.396 292.993 468.802C293.214 468.208 293.324 467.565 293.324 466.872C293.324 466.179 293.214 465.534 292.993 464.936C292.773 464.337 292.433 463.854 291.975 463.485C291.516 463.116 290.931 462.932 290.22 462.932C289.51 462.932 288.925 463.116 288.466 463.485C288.007 463.854 287.668 464.337 287.447 464.936C287.227 465.534 287.117 466.179 287.117 466.872C287.117 467.565 287.227 468.208 287.447 468.802C287.668 469.396 288.007 469.875 288.466 470.239C288.925 470.603 289.51 470.786 290.22 470.786ZM299.343 472L296.185 461.636H297.858L300.098 469.571H300.206L302.419 461.636H304.119L306.306 469.544H306.414L308.654 461.636H310.327L307.169 472H305.604L303.337 464.038H303.175L300.908 472H299.343ZM312.648 472V458.182H320.933V459.666H314.321V464.335H320.313V465.82H314.321V472H312.648ZM323.583 472V461.636H325.176V472H323.583ZM324.393 459.909C324.083 459.909 323.815 459.803 323.59 459.592C323.37 459.381 323.259 459.126 323.259 458.83C323.259 458.533 323.37 458.279 323.59 458.067C323.815 457.856 324.083 457.75 324.393 457.75C324.703 457.75 324.969 457.856 325.189 458.067C325.414 458.279 325.527 458.533 325.527 458.83C325.527 459.126 325.414 459.381 325.189 459.592C324.969 459.803 324.703 459.909 324.393 459.909ZM329.684 458.182V472H328.092V458.182H329.684ZM336.946 472.216C335.948 472.216 335.086 471.996 334.362 471.555C333.642 471.109 333.087 470.489 332.695 469.692C332.309 468.892 332.115 467.961 332.115 466.899C332.115 465.838 332.309 464.902 332.695 464.092C333.087 463.278 333.631 462.644 334.328 462.19C335.03 461.731 335.849 461.501 336.784 461.501C337.324 461.501 337.857 461.591 338.383 461.771C338.91 461.951 339.389 462.244 339.82 462.648C340.252 463.049 340.596 463.58 340.853 464.241C341.109 464.902 341.237 465.716 341.237 466.683V467.358H333.249V465.982H339.618C339.618 465.397 339.501 464.875 339.267 464.416C339.038 463.957 338.709 463.595 338.282 463.33C337.859 463.065 337.36 462.932 336.784 462.932C336.15 462.932 335.601 463.089 335.138 463.404C334.679 463.714 334.326 464.119 334.079 464.619C333.831 465.118 333.707 465.653 333.707 466.224V467.142C333.707 467.925 333.842 468.588 334.112 469.132C334.387 469.672 334.767 470.084 335.253 470.367C335.738 470.646 336.303 470.786 336.946 470.786C337.364 470.786 337.742 470.727 338.08 470.61C338.421 470.489 338.716 470.309 338.964 470.07C339.211 469.827 339.402 469.526 339.537 469.166L341.075 469.598C340.913 470.12 340.641 470.579 340.259 470.974C339.877 471.366 339.404 471.672 338.842 471.892C338.28 472.108 337.648 472.216 336.946 472.216ZM343.875 472V458.182H352.161V459.666H345.549V464.335H351.54V465.82H345.549V472H343.875ZM354.811 472V461.636H356.403V472H354.811ZM355.621 459.909C355.31 459.909 355.043 459.803 354.818 459.592C354.597 459.381 354.487 459.126 354.487 458.83C354.487 458.533 354.597 458.279 354.818 458.067C355.043 457.856 355.31 457.75 355.621 457.75C355.931 457.75 356.196 457.856 356.417 458.067C356.642 458.279 356.754 458.533 356.754 458.83C356.754 459.126 356.642 459.381 356.417 459.592C356.196 459.803 355.931 459.909 355.621 459.909ZM359.32 472V461.636H360.858V463.202H360.966C361.155 462.689 361.497 462.273 361.992 461.953C362.486 461.634 363.044 461.474 363.665 461.474C363.782 461.474 363.928 461.477 364.103 461.481C364.279 461.486 364.412 461.492 364.502 461.501V463.121C364.448 463.107 364.324 463.087 364.13 463.06C363.941 463.029 363.741 463.013 363.53 463.013C363.026 463.013 362.576 463.118 362.18 463.33C361.789 463.537 361.479 463.825 361.249 464.194C361.024 464.558 360.912 464.974 360.912 465.442V472H359.32ZM373.73 463.957L372.3 464.362C372.21 464.124 372.077 463.892 371.901 463.667C371.731 463.438 371.497 463.249 371.2 463.1C370.903 462.952 370.523 462.878 370.059 462.878C369.425 462.878 368.897 463.024 368.474 463.316C368.056 463.604 367.846 463.971 367.846 464.416C367.846 464.812 367.99 465.125 368.278 465.354C368.566 465.583 369.016 465.775 369.628 465.928L371.166 466.305C372.093 466.53 372.783 466.874 373.237 467.338C373.692 467.797 373.919 468.388 373.919 469.112C373.919 469.706 373.748 470.237 373.406 470.705C373.069 471.172 372.596 471.541 371.989 471.811C371.382 472.081 370.676 472.216 369.871 472.216C368.814 472.216 367.939 471.987 367.246 471.528C366.553 471.069 366.115 470.399 365.93 469.517L367.442 469.139C367.586 469.697 367.858 470.115 368.258 470.394C368.663 470.673 369.191 470.812 369.844 470.812C370.586 470.812 371.175 470.655 371.611 470.34C372.052 470.021 372.273 469.638 372.273 469.193C372.273 468.833 372.147 468.532 371.895 468.289C371.643 468.042 371.256 467.857 370.734 467.736L369.007 467.331C368.058 467.106 367.361 466.757 366.915 466.285C366.474 465.808 366.254 465.212 366.254 464.497C366.254 463.912 366.418 463.395 366.747 462.945C367.079 462.496 367.532 462.142 368.103 461.886C368.679 461.63 369.331 461.501 370.059 461.501C371.085 461.501 371.89 461.726 372.475 462.176C373.064 462.626 373.483 463.22 373.73 463.957ZM380.823 461.636V462.986H375.452V461.636H380.823ZM377.017 459.153H378.61V469.031C378.61 469.481 378.675 469.818 378.805 470.043C378.94 470.264 379.111 470.412 379.318 470.489C379.53 470.561 379.752 470.597 379.986 470.597C380.162 470.597 380.306 470.588 380.418 470.57C380.531 470.547 380.62 470.529 380.688 470.516L381.012 471.946C380.904 471.987 380.753 472.027 380.56 472.067C380.366 472.112 380.121 472.135 379.824 472.135C379.374 472.135 378.934 472.038 378.502 471.845C378.075 471.651 377.719 471.357 377.436 470.961C377.157 470.565 377.017 470.066 377.017 469.463V459.153ZM383.657 472V458.182H388.326C389.41 458.182 390.296 458.377 390.984 458.769C391.677 459.156 392.19 459.68 392.522 460.341C392.855 461.002 393.022 461.74 393.022 462.554C393.022 463.368 392.855 464.108 392.522 464.774C392.194 465.44 391.686 465.97 390.998 466.366C390.309 466.757 389.428 466.953 388.353 466.953H385.006V465.469H388.299C389.041 465.469 389.637 465.341 390.087 465.084C390.537 464.828 390.863 464.481 391.065 464.045C391.272 463.604 391.375 463.107 391.375 462.554C391.375 462.001 391.272 461.506 391.065 461.07C390.863 460.633 390.534 460.291 390.08 460.044C389.626 459.792 389.023 459.666 388.272 459.666H385.33V472H383.657ZM395.501 472V461.636H397.04V463.202H397.148C397.337 462.689 397.678 462.273 398.173 461.953C398.668 461.634 399.226 461.474 399.847 461.474C399.963 461.474 400.11 461.477 400.285 461.481C400.46 461.486 400.593 461.492 400.683 461.501V463.121C400.629 463.107 400.505 463.087 400.312 463.06C400.123 463.029 399.923 463.013 399.712 463.013C399.208 463.013 398.758 463.118 398.362 463.33C397.971 463.537 397.66 463.825 397.431 464.194C397.206 464.558 397.094 464.974 397.094 465.442V472H395.501ZM402.571 472V461.636H404.163V472H402.571ZM403.38 459.909C403.07 459.909 402.802 459.803 402.577 459.592C402.357 459.381 402.247 459.126 402.247 458.83C402.247 458.533 402.357 458.279 402.577 458.067C402.802 457.856 403.07 457.75 403.38 457.75C403.691 457.75 403.956 457.856 404.176 458.067C404.401 458.279 404.514 458.533 404.514 458.83C404.514 459.126 404.401 459.381 404.176 459.592C403.956 459.803 403.691 459.909 403.38 459.909ZM411.29 472.216C410.354 472.216 409.533 471.993 408.827 471.548C408.125 471.103 407.576 470.48 407.181 469.679C406.789 468.878 406.594 467.943 406.594 466.872C406.594 465.793 406.789 464.85 407.181 464.045C407.576 463.24 408.125 462.615 408.827 462.169C409.533 461.724 410.354 461.501 411.29 461.501C412.225 461.501 413.044 461.724 413.746 462.169C414.452 462.615 415.001 463.24 415.392 464.045C415.788 464.85 415.986 465.793 415.986 466.872C415.986 467.943 415.788 468.878 415.392 469.679C415.001 470.48 414.452 471.103 413.746 471.548C413.044 471.993 412.225 472.216 411.29 472.216ZM411.29 470.786C412 470.786 412.585 470.603 413.044 470.239C413.503 469.875 413.842 469.396 414.063 468.802C414.283 468.208 414.393 467.565 414.393 466.872C414.393 466.179 414.283 465.534 414.063 464.936C413.842 464.337 413.503 463.854 413.044 463.485C412.585 463.116 412 462.932 411.29 462.932C410.579 462.932 409.994 463.116 409.535 463.485C409.077 463.854 408.737 464.337 408.517 464.936C408.296 465.534 408.186 466.179 408.186 466.872C408.186 467.565 408.296 468.208 408.517 468.802C408.737 469.396 409.077 469.875 409.535 470.239C409.994 470.603 410.579 470.786 411.29 470.786ZM418.416 472V461.636H419.955V463.202H420.063C420.252 462.689 420.593 462.273 421.088 461.953C421.583 461.634 422.141 461.474 422.762 461.474C422.878 461.474 423.025 461.477 423.2 461.481C423.376 461.486 423.508 461.492 423.598 461.501V463.121C423.544 463.107 423.421 463.087 423.227 463.06C423.038 463.029 422.838 463.013 422.627 463.013C422.123 463.013 421.673 463.118 421.277 463.33C420.886 463.537 420.575 463.825 420.346 464.194C420.121 464.558 420.009 464.974 420.009 465.442V472H418.416ZM425.486 472V461.636H427.078V472H425.486ZM426.295 459.909C425.985 459.909 425.717 459.803 425.492 459.592C425.272 459.381 425.162 459.126 425.162 458.83C425.162 458.533 425.272 458.279 425.492 458.067C425.717 457.856 425.985 457.75 426.295 457.75C426.606 457.75 426.871 457.856 427.092 458.067C427.316 458.279 427.429 458.533 427.429 458.83C427.429 459.126 427.316 459.381 427.092 459.592C426.871 459.803 426.606 459.909 426.295 459.909ZM434.502 461.636V462.986H429.131V461.636H434.502ZM430.696 459.153H432.289V469.031C432.289 469.481 432.354 469.818 432.484 470.043C432.619 470.264 432.79 470.412 432.997 470.489C433.208 470.561 433.431 470.597 433.665 470.597C433.84 470.597 433.984 470.588 434.097 470.57C434.209 470.547 434.299 470.529 434.367 470.516L434.691 471.946C434.583 471.987 434.432 472.027 434.238 472.067C434.045 472.112 433.8 472.135 433.503 472.135C433.053 472.135 432.612 472.038 432.181 471.845C431.753 471.651 431.398 471.357 431.115 470.961C430.836 470.565 430.696 470.066 430.696 469.463V459.153ZM436.897 472V461.636H438.489V472H436.897ZM437.706 459.909C437.396 459.909 437.128 459.803 436.904 459.592C436.683 459.381 436.573 459.126 436.573 458.83C436.573 458.533 436.683 458.279 436.904 458.067C437.128 457.856 437.396 457.75 437.706 457.75C438.017 457.75 438.282 457.856 438.503 458.067C438.728 458.279 438.84 458.533 438.84 458.83C438.84 459.126 438.728 459.381 438.503 459.592C438.282 459.803 438.017 459.909 437.706 459.909ZM441.109 472V470.786L446.992 463.229V463.121H441.298V461.636H449.043V462.905L443.322 470.408V470.516H449.232V472H441.109ZM455.733 472.216C454.735 472.216 453.873 471.996 453.149 471.555C452.429 471.109 451.874 470.489 451.483 469.692C451.096 468.892 450.902 467.961 450.902 466.899C450.902 465.838 451.096 464.902 451.483 464.092C451.874 463.278 452.418 462.644 453.115 462.19C453.817 461.731 454.636 461.501 455.571 461.501C456.111 461.501 456.644 461.591 457.17 461.771C457.697 461.951 458.176 462.244 458.608 462.648C459.039 463.049 459.383 463.58 459.64 464.241C459.896 464.902 460.024 465.716 460.024 466.683V467.358H452.036V465.982H458.405C458.405 465.397 458.288 464.875 458.054 464.416C457.825 463.957 457.496 463.595 457.069 463.33C456.646 463.065 456.147 462.932 455.571 462.932C454.937 462.932 454.388 463.089 453.925 463.404C453.466 463.714 453.113 464.119 452.866 464.619C452.618 465.118 452.495 465.653 452.495 466.224V467.142C452.495 467.925 452.63 468.588 452.899 469.132C453.174 469.672 453.554 470.084 454.04 470.367C454.525 470.646 455.09 470.786 455.733 470.786C456.152 470.786 456.529 470.727 456.867 470.61C457.209 470.489 457.503 470.309 457.751 470.07C457.998 469.827 458.189 469.526 458.324 469.166L459.862 469.598C459.701 470.12 459.428 470.579 459.046 470.974C458.664 471.366 458.191 471.672 457.629 471.892C457.067 472.108 456.435 472.216 455.733 472.216ZM462.447 472V461.636H463.985V463.202H464.093C464.282 462.689 464.624 462.273 465.119 461.953C465.613 461.634 466.171 461.474 466.792 461.474C466.909 461.474 467.055 461.477 467.23 461.481C467.406 461.486 467.539 461.492 467.628 461.501V463.121C467.574 463.107 467.451 463.087 467.257 463.06C467.068 463.029 466.868 463.013 466.657 463.013C466.153 463.013 465.703 463.118 465.307 463.33C464.916 463.537 464.606 463.825 464.376 464.194C464.151 464.558 464.039 464.974 464.039 465.442V472H462.447Z" fill="#205E5F"/>
<rect x="198" y="328" width="377" height="47" rx="4" fill="white"/>
<path d="M211.673 358V344.182H219.959V345.666H213.347V350.335H219.338V351.82H213.347V358H211.673ZM222.609 358V347.636H224.201V358H222.609ZM223.418 345.909C223.108 345.909 222.84 345.803 222.616 345.592C222.395 345.381 222.285 345.126 222.285 344.83C222.285 344.533 222.395 344.279 222.616 344.067C222.84 343.856 223.108 343.75 223.418 343.75C223.729 343.75 223.994 343.856 224.215 344.067C224.439 344.279 224.552 344.533 224.552 344.83C224.552 345.126 224.439 345.381 224.215 345.592C223.994 345.803 223.729 345.909 223.418 345.909ZM227.118 358V347.636H228.656V349.202H228.764C228.953 348.689 229.295 348.273 229.789 347.953C230.284 347.634 230.842 347.474 231.463 347.474C231.58 347.474 231.726 347.477 231.901 347.481C232.077 347.486 232.209 347.492 232.299 347.501V349.121C232.245 349.107 232.122 349.087 231.928 349.06C231.739 349.029 231.539 349.013 231.328 349.013C230.824 349.013 230.374 349.118 229.978 349.33C229.587 349.537 229.277 349.825 229.047 350.194C228.822 350.558 228.71 350.974 228.71 351.442V358H227.118ZM241.528 349.957L240.097 350.362C240.007 350.124 239.875 349.892 239.699 349.667C239.528 349.438 239.294 349.249 238.998 349.1C238.701 348.952 238.321 348.878 237.857 348.878C237.223 348.878 236.695 349.024 236.272 349.316C235.853 349.604 235.644 349.971 235.644 350.416C235.644 350.812 235.788 351.125 236.076 351.354C236.364 351.583 236.814 351.775 237.426 351.928L238.964 352.305C239.89 352.53 240.581 352.874 241.035 353.338C241.49 353.797 241.717 354.388 241.717 355.112C241.717 355.706 241.546 356.237 241.204 356.705C240.867 357.172 240.394 357.541 239.787 357.811C239.18 358.081 238.474 358.216 237.668 358.216C236.611 358.216 235.736 357.987 235.044 357.528C234.351 357.069 233.912 356.399 233.728 355.517L235.239 355.139C235.383 355.697 235.656 356.115 236.056 356.394C236.461 356.673 236.989 356.812 237.641 356.812C238.384 356.812 238.973 356.655 239.409 356.34C239.85 356.021 240.07 355.638 240.07 355.193C240.07 354.833 239.944 354.532 239.693 354.289C239.441 354.042 239.054 353.857 238.532 353.736L236.805 353.331C235.856 353.106 235.158 352.757 234.713 352.285C234.272 351.808 234.052 351.212 234.052 350.497C234.052 349.912 234.216 349.395 234.544 348.945C234.877 348.496 235.329 348.142 235.901 347.886C236.476 347.63 237.129 347.501 237.857 347.501C238.883 347.501 239.688 347.726 240.273 348.176C240.862 348.626 241.28 349.22 241.528 349.957ZM248.621 347.636V348.986H243.25V347.636H248.621ZM244.815 345.153H246.408V355.031C246.408 355.481 246.473 355.818 246.603 356.043C246.738 356.264 246.909 356.412 247.116 356.489C247.328 356.561 247.55 356.597 247.784 356.597C247.96 356.597 248.103 356.588 248.216 356.57C248.328 356.547 248.418 356.529 248.486 356.516L248.81 357.946C248.702 357.987 248.551 358.027 248.358 358.067C248.164 358.112 247.919 358.135 247.622 358.135C247.172 358.135 246.732 358.038 246.3 357.845C245.872 357.651 245.517 357.357 245.234 356.961C244.955 356.565 244.815 356.066 244.815 355.463V345.153ZM253.128 344.182V358H251.455V344.182H253.128ZM257.859 351.766V358H256.267V347.636H257.805V349.256H257.94C258.183 348.729 258.552 348.307 259.047 347.987C259.542 347.663 260.18 347.501 260.963 347.501C261.665 347.501 262.279 347.645 262.805 347.933C263.331 348.217 263.741 348.648 264.033 349.229C264.325 349.804 264.472 350.533 264.472 351.415V358H262.879V351.523C262.879 350.709 262.668 350.074 262.245 349.62C261.822 349.161 261.242 348.932 260.504 348.932C259.996 348.932 259.542 349.042 259.141 349.262C258.745 349.483 258.433 349.804 258.203 350.227C257.974 350.65 257.859 351.163 257.859 351.766ZM267.597 358V344.182H275.883V345.666H269.27V350.335H275.262V351.82H269.27V358H267.597ZM278.533 358V347.636H280.125V358H278.533ZM279.342 345.909C279.032 345.909 278.764 345.803 278.539 345.592C278.319 345.381 278.209 345.126 278.209 344.83C278.209 344.533 278.319 344.279 278.539 344.067C278.764 343.856 279.032 343.75 279.342 343.75C279.653 343.75 279.918 343.856 280.138 344.067C280.363 344.279 280.476 344.533 280.476 344.83C280.476 345.126 280.363 345.381 280.138 345.592C279.918 345.803 279.653 345.909 279.342 345.909ZM283.041 358V347.636H284.58V349.202H284.688C284.877 348.689 285.218 348.273 285.713 347.953C286.208 347.634 286.766 347.474 287.387 347.474C287.503 347.474 287.65 347.477 287.825 347.481C288.001 347.486 288.133 347.492 288.223 347.501V349.121C288.169 349.107 288.046 349.087 287.852 349.06C287.663 349.029 287.463 349.013 287.252 349.013C286.748 349.013 286.298 349.118 285.902 349.33C285.511 349.537 285.2 349.825 284.971 350.194C284.746 350.558 284.634 350.974 284.634 351.442V358H283.041ZM297.452 349.957L296.021 350.362C295.931 350.124 295.799 349.892 295.623 349.667C295.452 349.438 295.218 349.249 294.921 349.1C294.625 348.952 294.244 348.878 293.781 348.878C293.147 348.878 292.618 349.024 292.196 349.316C291.777 349.604 291.568 349.971 291.568 350.416C291.568 350.812 291.712 351.125 292 351.354C292.288 351.583 292.738 351.775 293.349 351.928L294.888 352.305C295.814 352.53 296.505 352.874 296.959 353.338C297.413 353.797 297.641 354.388 297.641 355.112C297.641 355.706 297.47 356.237 297.128 356.705C296.79 357.172 296.318 357.541 295.711 357.811C295.104 358.081 294.397 358.216 293.592 358.216C292.535 358.216 291.66 357.987 290.968 357.528C290.275 357.069 289.836 356.399 289.652 355.517L291.163 355.139C291.307 355.697 291.579 356.115 291.98 356.394C292.384 356.673 292.913 356.812 293.565 356.812C294.307 356.812 294.897 356.655 295.333 356.34C295.774 356.021 295.994 355.638 295.994 355.193C295.994 354.833 295.868 354.532 295.616 354.289C295.364 354.042 294.978 353.857 294.456 353.736L292.729 353.331C291.78 353.106 291.082 352.757 290.637 352.285C290.196 351.808 289.976 351.212 289.976 350.497C289.976 349.912 290.14 349.395 290.468 348.945C290.801 348.496 291.253 348.142 291.824 347.886C292.4 347.63 293.052 347.501 293.781 347.501C294.807 347.501 295.612 347.726 296.197 348.176C296.786 348.626 297.204 349.22 297.452 349.957ZM304.545 347.636V348.986H299.174V347.636H304.545ZM300.739 345.153H302.331V355.031C302.331 355.481 302.397 355.818 302.527 356.043C302.662 356.264 302.833 356.412 303.04 356.489C303.251 356.561 303.474 356.597 303.708 356.597C303.883 356.597 304.027 356.588 304.14 356.57C304.252 356.547 304.342 356.529 304.41 356.516L304.733 357.946C304.626 357.987 304.475 358.027 304.281 358.067C304.088 358.112 303.843 358.135 303.546 358.135C303.096 358.135 302.655 358.038 302.224 357.845C301.796 357.651 301.441 357.357 301.157 356.961C300.879 356.565 300.739 356.066 300.739 355.463V345.153ZM318.815 351.091C318.815 352.548 318.552 353.808 318.025 354.869C317.499 355.931 316.777 356.75 315.86 357.325C314.942 357.901 313.894 358.189 312.715 358.189C311.537 358.189 310.489 357.901 309.571 357.325C308.654 356.75 307.932 355.931 307.405 354.869C306.879 353.808 306.616 352.548 306.616 351.091C306.616 349.634 306.879 348.374 307.405 347.312C307.932 346.251 308.654 345.432 309.571 344.857C310.489 344.281 311.537 343.993 312.715 343.993C313.894 343.993 314.942 344.281 315.86 344.857C316.777 345.432 317.499 346.251 318.025 347.312C318.552 348.374 318.815 349.634 318.815 351.091ZM317.195 351.091C317.195 349.894 316.995 348.885 316.595 348.061C316.199 347.238 315.662 346.615 314.982 346.192C314.308 345.77 313.552 345.558 312.715 345.558C311.879 345.558 311.121 345.77 310.442 346.192C309.767 346.615 309.229 347.238 308.829 348.061C308.433 348.885 308.235 349.894 308.235 351.091C308.235 352.287 308.433 353.297 308.829 354.12C309.229 354.944 309.767 355.567 310.442 355.989C311.121 356.412 311.879 356.624 312.715 356.624C313.552 356.624 314.308 356.412 314.982 355.989C315.662 355.567 316.199 354.944 316.595 354.12C316.995 353.297 317.195 352.287 317.195 351.091ZM327.944 353.763V347.636H329.536V358H327.944V356.246H327.836C327.593 356.772 327.215 357.22 326.702 357.588C326.189 357.953 325.542 358.135 324.759 358.135C324.111 358.135 323.536 357.993 323.032 357.71C322.528 357.422 322.132 356.99 321.844 356.414C321.556 355.834 321.412 355.103 321.412 354.222V347.636H323.005V354.114C323.005 354.869 323.216 355.472 323.639 355.922C324.066 356.372 324.611 356.597 325.272 356.597C325.668 356.597 326.07 356.495 326.48 356.293C326.893 356.091 327.24 355.78 327.519 355.362C327.802 354.944 327.944 354.411 327.944 353.763ZM336.96 347.636V348.986H331.589V347.636H336.96ZM333.154 345.153H334.747V355.031C334.747 355.481 334.812 355.818 334.942 356.043C335.077 356.264 335.248 356.412 335.455 356.489C335.666 356.561 335.889 356.597 336.123 356.597C336.298 356.597 336.442 356.588 336.555 356.57C336.667 356.547 336.757 356.529 336.825 356.516L337.149 357.946C337.041 357.987 336.89 358.027 336.696 358.067C336.503 358.112 336.258 358.135 335.961 358.135C335.511 358.135 335.07 358.038 334.639 357.845C334.211 357.651 333.856 357.357 333.573 356.961C333.294 356.565 333.154 356.066 333.154 355.463V345.153ZM339.793 358V344.182H344.462C345.546 344.182 346.433 344.377 347.121 344.769C347.814 345.156 348.326 345.68 348.659 346.341C348.992 347.002 349.158 347.74 349.158 348.554C349.158 349.368 348.992 350.108 348.659 350.774C348.331 351.44 347.823 351.97 347.134 352.366C346.446 352.757 345.564 352.953 344.489 352.953H341.143V351.469H344.435C345.178 351.469 345.774 351.341 346.223 351.084C346.673 350.828 346.999 350.481 347.202 350.045C347.409 349.604 347.512 349.107 347.512 348.554C347.512 348.001 347.409 347.506 347.202 347.07C346.999 346.633 346.671 346.291 346.217 346.044C345.762 345.792 345.16 345.666 344.408 345.666H341.467V358H339.793ZM351.638 358V347.636H353.176V349.202H353.284C353.473 348.689 353.815 348.273 354.31 347.953C354.805 347.634 355.362 347.474 355.983 347.474C356.1 347.474 356.246 347.477 356.422 347.481C356.597 347.486 356.73 347.492 356.82 347.501V349.121C356.766 349.107 356.642 349.087 356.449 349.06C356.26 349.029 356.06 349.013 355.848 349.013C355.344 349.013 354.895 349.118 354.499 349.33C354.108 349.537 353.797 349.825 353.568 350.194C353.343 350.558 353.23 350.974 353.23 351.442V358H351.638ZM358.707 358V347.636H360.3V358H358.707ZM359.517 345.909C359.207 345.909 358.939 345.803 358.714 345.592C358.494 345.381 358.384 345.126 358.384 344.83C358.384 344.533 358.494 344.279 358.714 344.067C358.939 343.856 359.207 343.75 359.517 343.75C359.827 343.75 360.093 343.856 360.313 344.067C360.538 344.279 360.651 344.533 360.651 344.83C360.651 345.126 360.538 345.381 360.313 345.592C360.093 345.803 359.827 345.909 359.517 345.909ZM367.426 358.216C366.491 358.216 365.67 357.993 364.964 357.548C364.262 357.103 363.713 356.48 363.317 355.679C362.926 354.878 362.73 353.943 362.73 352.872C362.73 351.793 362.926 350.85 363.317 350.045C363.713 349.24 364.262 348.615 364.964 348.169C365.67 347.724 366.491 347.501 367.426 347.501C368.362 347.501 369.181 347.724 369.882 348.169C370.589 348.615 371.137 349.24 371.529 350.045C371.925 350.85 372.122 351.793 372.122 352.872C372.122 353.943 371.925 354.878 371.529 355.679C371.137 356.48 370.589 357.103 369.882 357.548C369.181 357.993 368.362 358.216 367.426 358.216ZM367.426 356.786C368.137 356.786 368.722 356.603 369.181 356.239C369.639 355.875 369.979 355.396 370.199 354.802C370.42 354.208 370.53 353.565 370.53 352.872C370.53 352.179 370.42 351.534 370.199 350.936C369.979 350.337 369.639 349.854 369.181 349.485C368.722 349.116 368.137 348.932 367.426 348.932C366.716 348.932 366.131 349.116 365.672 349.485C365.213 349.854 364.874 350.337 364.653 350.936C364.433 351.534 364.323 352.179 364.323 352.872C364.323 353.565 364.433 354.208 364.653 354.802C364.874 355.396 365.213 355.875 365.672 356.239C366.131 356.603 366.716 356.786 367.426 356.786ZM374.553 358V347.636H376.091V349.202H376.199C376.388 348.689 376.73 348.273 377.225 347.953C377.72 347.634 378.278 347.474 378.898 347.474C379.015 347.474 379.161 347.477 379.337 347.481C379.512 347.486 379.645 347.492 379.735 347.501V349.121C379.681 349.107 379.557 349.087 379.364 349.06C379.175 349.029 378.975 349.013 378.763 349.013C378.26 349.013 377.81 349.118 377.414 349.33C377.023 349.537 376.712 349.825 376.483 350.194C376.258 350.558 376.145 350.974 376.145 351.442V358H374.553ZM381.622 358V347.636H383.215V358H381.622ZM382.432 345.909C382.122 345.909 381.854 345.803 381.629 345.592C381.409 345.381 381.299 345.126 381.299 344.83C381.299 344.533 381.409 344.279 381.629 344.067C381.854 343.856 382.122 343.75 382.432 343.75C382.742 343.75 383.008 343.856 383.228 344.067C383.453 344.279 383.566 344.533 383.566 344.83C383.566 345.126 383.453 345.381 383.228 345.592C383.008 345.803 382.742 345.909 382.432 345.909ZM390.638 347.636V348.986H385.268V347.636H390.638ZM386.833 345.153H388.425V355.031C388.425 355.481 388.49 355.818 388.621 356.043C388.756 356.264 388.927 356.412 389.134 356.489C389.345 356.561 389.568 356.597 389.802 356.597C389.977 356.597 390.121 356.588 390.233 356.57C390.346 356.547 390.436 356.529 390.503 356.516L390.827 357.946C390.719 357.987 390.569 358.027 390.375 358.067C390.182 358.112 389.937 358.135 389.64 358.135C389.19 358.135 388.749 358.038 388.317 357.845C387.89 357.651 387.535 357.357 387.251 356.961C386.972 356.565 386.833 356.066 386.833 355.463V345.153ZM393.034 358V347.636H394.626V358H393.034ZM393.843 345.909C393.533 345.909 393.265 345.803 393.04 345.592C392.82 345.381 392.71 345.126 392.71 344.83C392.71 344.533 392.82 344.279 393.04 344.067C393.265 343.856 393.533 343.75 393.843 343.75C394.154 343.75 394.419 343.856 394.639 344.067C394.864 344.279 394.977 344.533 394.977 344.83C394.977 345.126 394.864 345.381 394.639 345.592C394.419 345.803 394.154 345.909 393.843 345.909ZM397.245 358V356.786L403.129 349.229V349.121H397.434V347.636H405.18V348.905L399.459 356.408V356.516H405.369V358H397.245ZM411.87 358.216C410.871 358.216 410.01 357.996 409.286 357.555C408.566 357.109 408.011 356.489 407.619 355.692C407.232 354.892 407.039 353.961 407.039 352.899C407.039 351.838 407.232 350.902 407.619 350.092C408.011 349.278 408.555 348.644 409.252 348.19C409.954 347.731 410.772 347.501 411.708 347.501C412.248 347.501 412.781 347.591 413.307 347.771C413.833 347.951 414.312 348.244 414.744 348.648C415.176 349.049 415.52 349.58 415.777 350.241C416.033 350.902 416.161 351.716 416.161 352.683V353.358H408.172V351.982H414.542C414.542 351.397 414.425 350.875 414.191 350.416C413.962 349.957 413.633 349.595 413.206 349.33C412.783 349.065 412.284 348.932 411.708 348.932C411.074 348.932 410.525 349.089 410.062 349.404C409.603 349.714 409.25 350.119 409.002 350.619C408.755 351.118 408.631 351.653 408.631 352.224V353.142C408.631 353.925 408.766 354.588 409.036 355.132C409.311 355.672 409.691 356.084 410.176 356.367C410.662 356.646 411.227 356.786 411.87 356.786C412.288 356.786 412.666 356.727 413.003 356.61C413.345 356.489 413.64 356.309 413.887 356.07C414.135 355.827 414.326 355.526 414.461 355.166L415.999 355.598C415.837 356.12 415.565 356.579 415.183 356.974C414.8 357.366 414.328 357.672 413.766 357.892C413.204 358.108 412.572 358.216 411.87 358.216ZM418.583 358V347.636H420.122V349.202H420.23C420.419 348.689 420.76 348.273 421.255 347.953C421.75 347.634 422.308 347.474 422.929 347.474C423.045 347.474 423.192 347.477 423.367 347.481C423.543 347.486 423.675 347.492 423.765 347.501V349.121C423.711 349.107 423.588 349.087 423.394 349.06C423.205 349.029 423.005 349.013 422.794 349.013C422.29 349.013 421.84 349.118 421.444 349.33C421.053 349.537 420.742 349.825 420.513 350.194C420.288 350.558 420.176 350.974 420.176 351.442V358H418.583Z" fill="#205E5F"/>
<path d="M186.685 300H184.472L189.445 286.182H191.854L196.826 300H194.613L190.707 288.692H190.599L186.685 300ZM187.056 294.589H194.235V296.343H187.056V294.589ZM206.227 289.636L202.469 300H200.31L196.545 289.636H198.71L201.335 297.612H201.443L204.061 289.636H206.227ZM210.842 300.229C210.185 300.229 209.591 300.108 209.061 299.865C208.53 299.618 208.109 299.26 207.799 298.792C207.493 298.324 207.34 297.751 207.34 297.072C207.34 296.487 207.453 296.006 207.677 295.628C207.902 295.25 208.206 294.951 208.588 294.73C208.971 294.51 209.398 294.344 209.87 294.231C210.343 294.119 210.824 294.033 211.314 293.975C211.935 293.903 212.439 293.844 212.826 293.799C213.212 293.75 213.494 293.671 213.669 293.563C213.844 293.455 213.932 293.28 213.932 293.037V292.99C213.932 292.4 213.766 291.944 213.433 291.62C213.104 291.296 212.614 291.134 211.962 291.134C211.283 291.134 210.747 291.285 210.356 291.586C209.969 291.883 209.702 292.214 209.553 292.578L207.657 292.146C207.882 291.517 208.21 291.008 208.642 290.621C209.079 290.23 209.58 289.947 210.147 289.771C210.714 289.591 211.31 289.501 211.935 289.501C212.349 289.501 212.787 289.551 213.251 289.65C213.718 289.744 214.155 289.92 214.56 290.176C214.969 290.433 215.304 290.799 215.565 291.276C215.826 291.748 215.956 292.362 215.956 293.118V300H213.986V298.583H213.905C213.775 298.844 213.579 299.1 213.318 299.352C213.057 299.604 212.722 299.813 212.313 299.98C211.903 300.146 211.413 300.229 210.842 300.229ZM211.28 298.61C211.838 298.61 212.315 298.5 212.711 298.279C213.111 298.059 213.415 297.771 213.622 297.416C213.833 297.056 213.939 296.671 213.939 296.262V294.926C213.867 294.998 213.727 295.066 213.521 295.129C213.318 295.187 213.086 295.239 212.826 295.284C212.565 295.324 212.311 295.362 212.063 295.398C211.816 295.43 211.609 295.457 211.442 295.479C211.051 295.529 210.693 295.612 210.37 295.729C210.05 295.846 209.794 296.015 209.6 296.235C209.411 296.451 209.317 296.739 209.317 297.099C209.317 297.598 209.501 297.976 209.87 298.232C210.239 298.484 210.709 298.61 211.28 298.61ZM218.643 300V289.636H220.661V300H218.643ZM219.662 288.037C219.311 288.037 219.01 287.92 218.758 287.686C218.511 287.448 218.387 287.165 218.387 286.836C218.387 286.503 218.511 286.22 218.758 285.986C219.01 285.748 219.311 285.629 219.662 285.629C220.013 285.629 220.312 285.748 220.559 285.986C220.811 286.22 220.937 286.503 220.937 286.836C220.937 287.165 220.811 287.448 220.559 287.686C220.312 287.92 220.013 288.037 219.662 288.037ZM225.392 286.182V300H223.375V286.182H225.392ZM231.122 300.229C230.465 300.229 229.872 300.108 229.341 299.865C228.81 299.618 228.39 299.26 228.079 298.792C227.773 298.324 227.62 297.751 227.62 297.072C227.62 296.487 227.733 296.006 227.958 295.628C228.183 295.25 228.486 294.951 228.869 294.73C229.251 294.51 229.678 294.344 230.151 294.231C230.623 294.119 231.104 294.033 231.594 293.975C232.215 293.903 232.719 293.844 233.106 293.799C233.493 293.75 233.774 293.671 233.949 293.563C234.125 293.455 234.212 293.28 234.212 293.037V292.99C234.212 292.4 234.046 291.944 233.713 291.62C233.385 291.296 232.894 291.134 232.242 291.134C231.563 291.134 231.028 291.285 230.636 291.586C230.25 291.883 229.982 292.214 229.833 292.578L227.938 292.146C228.162 291.517 228.491 291.008 228.923 290.621C229.359 290.23 229.86 289.947 230.427 289.771C230.994 289.591 231.59 289.501 232.215 289.501C232.629 289.501 233.068 289.551 233.531 289.65C233.999 289.744 234.435 289.92 234.84 290.176C235.249 290.433 235.584 290.799 235.845 291.276C236.106 291.748 236.237 292.362 236.237 293.118V300H234.266V298.583H234.185C234.055 298.844 233.859 299.1 233.598 299.352C233.337 299.604 233.002 299.813 232.593 299.98C232.184 300.146 231.693 300.229 231.122 300.229ZM231.561 298.61C232.118 298.61 232.595 298.5 232.991 298.279C233.391 298.059 233.695 297.771 233.902 297.416C234.113 297.056 234.219 296.671 234.219 296.262V294.926C234.147 294.998 234.008 295.066 233.801 295.129C233.598 295.187 233.367 295.239 233.106 295.284C232.845 295.324 232.591 295.362 232.343 295.398C232.096 295.43 231.889 295.457 231.723 295.479C231.331 295.529 230.974 295.612 230.65 295.729C230.33 295.846 230.074 296.015 229.881 296.235C229.692 296.451 229.597 296.739 229.597 297.099C229.597 297.598 229.782 297.976 230.151 298.232C230.519 298.484 230.989 298.61 231.561 298.61ZM239.085 300V286.182H241.103V291.316H241.224C241.341 291.1 241.51 290.851 241.73 290.567C241.951 290.284 242.257 290.037 242.648 289.825C243.039 289.609 243.557 289.501 244.2 289.501C245.036 289.501 245.783 289.713 246.44 290.136C247.097 290.558 247.612 291.168 247.985 291.964C248.363 292.76 248.552 293.718 248.552 294.838C248.552 295.958 248.365 296.919 247.992 297.719C247.618 298.516 247.106 299.13 246.453 299.561C245.801 299.989 245.057 300.202 244.22 300.202C243.59 300.202 243.075 300.097 242.675 299.885C242.279 299.674 241.969 299.426 241.744 299.143C241.519 298.86 241.346 298.608 241.224 298.387H241.056V300H239.085ZM241.062 294.818C241.062 295.547 241.168 296.186 241.38 296.734C241.591 297.283 241.897 297.713 242.297 298.023C242.697 298.329 243.188 298.482 243.768 298.482C244.371 298.482 244.875 298.322 245.279 298.003C245.684 297.679 245.99 297.24 246.197 296.687C246.408 296.134 246.514 295.511 246.514 294.818C246.514 294.134 246.411 293.52 246.204 292.976C246.001 292.432 245.695 292.002 245.286 291.688C244.881 291.373 244.375 291.215 243.768 291.215C243.183 291.215 242.688 291.366 242.284 291.667C241.883 291.969 241.58 292.389 241.373 292.929C241.166 293.469 241.062 294.098 241.062 294.818ZM252.835 286.182V300H250.817V286.182H252.835ZM260.015 300.209C258.994 300.209 258.115 299.991 257.377 299.555C256.644 299.114 256.077 298.495 255.677 297.699C255.281 296.899 255.083 295.961 255.083 294.886C255.083 293.824 255.281 292.888 255.677 292.079C256.077 291.269 256.635 290.637 257.35 290.183C258.07 289.729 258.911 289.501 259.873 289.501C260.458 289.501 261.025 289.598 261.574 289.792C262.123 289.985 262.615 290.289 263.051 290.702C263.488 291.116 263.832 291.654 264.084 292.315C264.336 292.972 264.462 293.77 264.462 294.71V295.425H256.223V293.914H262.485C262.485 293.383 262.377 292.913 262.161 292.504C261.945 292.09 261.641 291.764 261.25 291.526C260.863 291.287 260.409 291.168 259.887 291.168C259.32 291.168 258.825 291.307 258.403 291.586C257.984 291.861 257.66 292.221 257.431 292.666C257.206 293.107 257.094 293.586 257.094 294.103V295.284C257.094 295.976 257.215 296.566 257.458 297.051C257.705 297.537 258.05 297.908 258.49 298.165C258.931 298.417 259.446 298.543 260.035 298.543C260.418 298.543 260.766 298.489 261.081 298.381C261.396 298.268 261.668 298.102 261.898 297.881C262.127 297.661 262.302 297.389 262.424 297.065L264.333 297.409C264.18 297.971 263.906 298.464 263.51 298.887C263.119 299.305 262.626 299.631 262.033 299.865C261.443 300.094 260.771 300.209 260.015 300.209ZM271.89 300V286.182H276.816C277.891 286.182 278.781 286.377 279.487 286.769C280.194 287.16 280.722 287.695 281.073 288.375C281.424 289.049 281.599 289.81 281.599 290.655C281.599 291.505 281.422 292.27 281.066 292.949C280.715 293.624 280.185 294.159 279.474 294.555C278.768 294.946 277.879 295.142 276.809 295.142H273.422V293.374H276.62C277.299 293.374 277.85 293.257 278.273 293.023C278.696 292.785 279.006 292.461 279.204 292.052C279.402 291.643 279.501 291.177 279.501 290.655C279.501 290.133 279.402 289.67 279.204 289.265C279.006 288.86 278.694 288.543 278.266 288.314C277.843 288.085 277.286 287.97 276.593 287.97H273.975V300H271.89ZM283.882 300V289.636H285.831V291.283H285.939C286.128 290.725 286.461 290.286 286.938 289.967C287.419 289.643 287.964 289.481 288.571 289.481C288.697 289.481 288.845 289.486 289.016 289.495C289.192 289.504 289.329 289.515 289.428 289.528V291.458C289.347 291.436 289.203 291.411 288.996 291.384C288.789 291.352 288.582 291.337 288.375 291.337C287.898 291.337 287.473 291.438 287.1 291.64C286.731 291.838 286.439 292.115 286.223 292.47C286.007 292.821 285.899 293.221 285.899 293.671V300H283.882ZM291.174 300V289.636H293.191V300H291.174ZM292.192 288.037C291.842 288.037 291.54 287.92 291.288 287.686C291.041 287.448 290.917 287.165 290.917 286.836C290.917 286.503 291.041 286.22 291.288 285.986C291.54 285.748 291.842 285.629 292.192 285.629C292.543 285.629 292.842 285.748 293.09 285.986C293.342 286.22 293.468 286.503 293.468 286.836C293.468 287.165 293.342 287.448 293.09 287.686C292.842 287.92 292.543 288.037 292.192 288.037ZM300.27 300.209C299.299 300.209 298.451 299.987 297.727 299.541C297.003 299.096 296.44 298.473 296.04 297.672C295.64 296.872 295.439 295.936 295.439 294.865C295.439 293.79 295.64 292.85 296.04 292.045C296.44 291.24 297.003 290.615 297.727 290.169C298.451 289.724 299.299 289.501 300.27 289.501C301.242 289.501 302.09 289.724 302.814 290.169C303.538 290.615 304.101 291.24 304.501 292.045C304.901 292.85 305.101 293.79 305.101 294.865C305.101 295.936 304.901 296.872 304.501 297.672C304.101 298.473 303.538 299.096 302.814 299.541C302.09 299.987 301.242 300.209 300.27 300.209ZM300.277 298.516C300.907 298.516 301.429 298.349 301.843 298.016C302.256 297.683 302.562 297.24 302.76 296.687C302.963 296.134 303.064 295.524 303.064 294.859C303.064 294.197 302.963 293.59 302.76 293.037C302.562 292.479 302.256 292.032 301.843 291.694C301.429 291.357 300.907 291.188 300.277 291.188C299.643 291.188 299.117 291.357 298.698 291.694C298.285 292.032 297.976 292.479 297.774 293.037C297.576 293.59 297.477 294.197 297.477 294.859C297.477 295.524 297.576 296.134 297.774 296.687C297.976 297.24 298.285 297.683 298.698 298.016C299.117 298.349 299.643 298.516 300.277 298.516ZM307.353 300V289.636H309.303V291.283H309.411C309.6 290.725 309.933 290.286 310.41 289.967C310.891 289.643 311.435 289.481 312.043 289.481C312.168 289.481 312.317 289.486 312.488 289.495C312.663 289.504 312.8 289.515 312.899 289.528V291.458C312.818 291.436 312.675 291.411 312.468 291.384C312.261 291.352 312.054 291.337 311.847 291.337C311.37 291.337 310.945 291.438 310.572 291.64C310.203 291.838 309.91 292.115 309.695 292.47C309.479 292.821 309.371 293.221 309.371 293.671V300H307.353ZM314.645 300V289.636H316.663V300H314.645ZM315.664 288.037C315.313 288.037 315.012 287.92 314.76 287.686C314.513 287.448 314.389 287.165 314.389 286.836C314.389 286.503 314.513 286.22 314.76 285.986C315.012 285.748 315.313 285.629 315.664 285.629C316.015 285.629 316.314 285.748 316.561 285.986C316.813 286.22 316.939 286.503 316.939 286.836C316.939 287.165 316.813 287.448 316.561 287.686C316.314 287.92 316.015 288.037 315.664 288.037ZM324.214 289.636V291.256H318.554V289.636H324.214ZM320.072 287.153H322.089V296.957C322.089 297.348 322.148 297.643 322.264 297.841C322.381 298.034 322.532 298.167 322.717 298.239C322.905 298.306 323.11 298.34 323.331 298.34C323.492 298.34 323.634 298.329 323.756 298.306C323.877 298.284 323.972 298.266 324.039 298.252L324.403 299.919C324.286 299.964 324.12 300.009 323.904 300.054C323.688 300.103 323.418 300.13 323.094 300.135C322.564 300.144 322.069 300.049 321.61 299.852C321.151 299.654 320.78 299.348 320.497 298.934C320.213 298.52 320.072 298.001 320.072 297.375V287.153ZM326.446 300V289.636H328.463V300H326.446ZM327.465 288.037C327.114 288.037 326.813 287.92 326.561 287.686C326.313 287.448 326.19 287.165 326.19 286.836C326.19 286.503 326.313 286.22 326.561 285.986C326.813 285.748 327.114 285.629 327.465 285.629C327.816 285.629 328.115 285.748 328.362 285.986C328.614 286.22 328.74 286.503 328.74 286.836C328.74 287.165 328.614 287.448 328.362 287.686C328.115 287.92 327.816 288.037 327.465 288.037ZM330.962 300V298.617L336.575 291.485V291.391H331.144V289.636H339.092V291.107L333.694 298.151V298.246H339.281V300H330.962ZM345.831 300.209C344.81 300.209 343.93 299.991 343.192 299.555C342.459 299.114 341.893 298.495 341.492 297.699C341.096 296.899 340.898 295.961 340.898 294.886C340.898 293.824 341.096 292.888 341.492 292.079C341.893 291.269 342.45 290.637 343.165 290.183C343.885 289.729 344.726 289.501 345.689 289.501C346.274 289.501 346.84 289.598 347.389 289.792C347.938 289.985 348.431 290.289 348.867 290.702C349.303 291.116 349.647 291.654 349.899 292.315C350.151 292.972 350.277 293.77 350.277 294.71V295.425H342.039V293.914H348.3C348.3 293.383 348.192 292.913 347.976 292.504C347.76 292.09 347.457 291.764 347.065 291.526C346.679 291.287 346.224 291.168 345.702 291.168C345.136 291.168 344.641 291.307 344.218 291.586C343.8 291.861 343.476 292.221 343.246 292.666C343.022 293.107 342.909 293.586 342.909 294.103V295.284C342.909 295.976 343.031 296.566 343.273 297.051C343.521 297.537 343.865 297.908 344.306 298.165C344.747 298.417 345.262 298.543 345.851 298.543C346.233 298.543 346.582 298.489 346.897 298.381C347.212 298.268 347.484 298.102 347.713 297.881C347.942 297.661 348.118 297.389 348.239 297.065L350.149 297.409C349.996 297.971 349.721 298.464 349.326 298.887C348.934 299.305 348.442 299.631 347.848 299.865C347.259 300.094 346.586 300.209 345.831 300.209ZM352.515 300V289.636H354.465V291.283H354.573C354.762 290.725 355.095 290.286 355.572 289.967C356.053 289.643 356.597 289.481 357.205 289.481C357.331 289.481 357.479 289.486 357.65 289.495C357.825 289.504 357.963 289.515 358.062 289.528V291.458C357.981 291.436 357.837 291.411 357.63 291.384C357.423 291.352 357.216 291.337 357.009 291.337C356.532 291.337 356.107 291.438 355.734 291.64C355.365 291.838 355.073 292.115 354.857 292.47C354.641 292.821 354.533 293.221 354.533 293.671V300H352.515ZM367.573 292.167L365.745 292.49C365.668 292.257 365.547 292.034 365.381 291.822C365.219 291.611 364.998 291.438 364.719 291.303C364.44 291.168 364.092 291.1 363.673 291.1C363.102 291.1 362.625 291.229 362.243 291.485C361.861 291.737 361.67 292.063 361.67 292.463C361.67 292.81 361.798 293.089 362.054 293.3C362.311 293.511 362.724 293.685 363.296 293.82L364.942 294.197C365.896 294.418 366.606 294.757 367.074 295.216C367.542 295.675 367.776 296.271 367.776 297.004C367.776 297.625 367.596 298.178 367.236 298.664C366.881 299.145 366.384 299.523 365.745 299.798C365.111 300.072 364.375 300.209 363.539 300.209C362.378 300.209 361.431 299.962 360.698 299.467C359.965 298.968 359.515 298.259 359.349 297.342L361.298 297.045C361.42 297.553 361.67 297.938 362.047 298.199C362.425 298.455 362.918 298.583 363.525 298.583C364.186 298.583 364.715 298.446 365.111 298.172C365.506 297.893 365.704 297.553 365.704 297.153C365.704 296.829 365.583 296.557 365.34 296.336C365.102 296.116 364.735 295.949 364.24 295.837L362.486 295.452C361.519 295.232 360.804 294.881 360.34 294.4C359.882 293.919 359.652 293.309 359.652 292.571C359.652 291.96 359.823 291.424 360.165 290.966C360.507 290.507 360.979 290.149 361.582 289.893C362.185 289.632 362.875 289.501 363.653 289.501C364.773 289.501 365.655 289.744 366.298 290.23C366.941 290.711 367.366 291.357 367.573 292.167Z" fill="#775351"/>
</g>
<defs>
<filter id="filter0_d_7_56" x="276" y="150" width="268" height="231" filterUnits="userSpaceOnUse" color-interpolation-filters="sRGB">
<feFlood flood-opacity="0" result="BackgroundImageFix"/>
<feColorMatrix in="SourceAlpha" type="matrix" values="0 0 0 0 0 0 0 0 0 0 0 0 0 0 0 0 0 0 127 0" result="hardAlpha"/>
<feOffset dy="2"/>
<feGaussianBlur stdDeviation="1.5"/>
<feComposite in2="hardAlpha" operator="out"/>
<feColorMatrix type="matrix" values="0 0 0 0 0 0 0 0 0 0 0 0 0 0 0 0 0 0 0.15 0"/>
<feBlend mode="normal" in2="BackgroundImageFix" result="effect1_dropShadow_7_56"/>
<feBlend mode="normal" in="SourceGraphic" in2="effect1_dropShadow_7_56" result="shape"/>
</filter>
<filter id="filter1_d_7_56" x="0" y="66" width="475" height="154" filterUnits="userSpaceOnUse" color-interpolation-filters="sRGB">
<feFlood flood-opacity="0" result="BackgroundImageFix"/>
<feColorMatrix in="SourceAlpha" type="matrix" values="0 0 0 0 0 0 0 0 0 0 0 0 0 0 0 0 0 0 127 0" result="hardAlpha"/>
<feOffset dy="8"/>
<feGaussianBlur stdDeviation="6"/>
<feComposite in2="hardAlpha" operator="out"/>
<feColorMatrix type="matrix" values="0 0 0 0 0 0 0 0 0 0 0 0 0 0 0 0 0 0 0.15 0"/>
<feBlend mode="normal" in2="BackgroundImageFix" result="effect1_dropShadow_7_56"/>
<feBlend mode="normal" in="SourceGraphic" in2="effect1_dropShadow_7_56" result="shape"/>
</filter>
<filter id="filter2_dd_7_56" x="149" y="255" width="475" height="294" filterUnits="userSpaceOnUse" color-interpolation-filters="sRGB">
<feFlood flood-opacity="0" result="BackgroundImageFix"/>
<feColorMatrix in="SourceAlpha" type="matrix" values="0 0 0 0 0 0 0 0 0 0 0 0 0 0 0 0 0 0 127 0" result="hardAlpha"/>
<feOffset dy="8"/>
<feGaussianBlur stdDeviation="6"/>
<feComposite in2="hardAlpha" operator="out"/>
<feColorMatrix type="matrix" values="0 0 0 0 0 0 0 0 0 0 0 0 0 0 0 0 0 0 0.15 0"/>
<feBlend mode="normal" in2="BackgroundImageFix" result="effect1_dropShadow_7_56"/>
<feColorMatrix in="SourceAlpha" type="matrix" values="0 0 0 0 0 0 0 0 0 0 0 0 0 0 0 0 0 0 127 0" result="hardAlpha"/>
<feOffset dy="4"/>
<feGaussianBlur stdDeviation="2"/>
<feComposite in2="hardAlpha" operator="out"/>
<feColorMatrix type="matrix" values="0 0 0 0 0 0 0 0 0 0 0 0 0 0 0 0 0 0 0.25 0"/>
<feBlend mode="normal" in2="effect1_dropShadow_7_56" result="effect2_dropShadow_7_56"/>
<feBlend mode="normal" in="SourceGraphic" in2="effect2_dropShadow_7_56" result="shape"/>
</filter>
<clipPath id="clip0_7_56">
<rect x="12" y="70" width="451" height="130" rx="16" fill="white"/>
</clipPath>
</defs>
</svg>
