<!--
    Licensed to the Apache Software Foundation (ASF) under one or more
    contributor license agreements.  See the NOTICE file distributed with
    this work for additional information regarding copyright ownership.
    The ASF licenses this file to You under the Apache License, Version 2.0
    (the "License"); you may not use this file except in compliance with
    the License.  You may obtain a copy of the License at

    http://www.apache.org/licenses/LICENSE-2.0

    Unless required by applicable law or agreed to in writing, software
    distributed under the License is distributed on an "AS IS" BASIS,
    WITHOUT WARRANTIES OR CONDITIONS OF ANY KIND, either express or implied.
    See the License for the specific language governing permissions and
    limitations under the License.
-->
<svg id="minifi" xmlns="http://www.w3.org/2000/svg" viewBox="0 0 346 129">
    <defs>
        <style>.cls-1{fill:#c7d2d7;}.cls-2{fill:#728e9b;}</style>
    </defs>
    <title>minifi-logo</title>
    <g id="minifi-logo">
        <path class="cls-1"
              d="M226.17,84.9c-.86-12.4,4.34-24.16,10.66-34.52,6.47-10.61,14.64-20,21.55-30.29a162.85,162.85,0,0,0,8.55-14.21,165.51,165.51,0,0,0,10.92,17.67c5,7.07,10.49,13.76,15.35,20.92a121.55,121.55,0,0,1,7.81,13,14.09,14.09,0,0,0,1.12-2.56c-5.07-9.09-11.44-17.34-17.77-25.57A165.83,165.83,0,0,1,269.43,6.56c-.8-1.5-1.59-3-2.3-4.56a156.6,156.6,0,0,1-15.73,24.85c-8.19,10.85-16.87,21.47-22.66,33.88-3.25,7-5.55,14.51-5.6,22.25a10.62,10.62,0,0,0,3,1.93C226.11,83.93,225.39,84.56,226.17,84.9Z"/>
        <path class="cls-1"
              d="M266.93,123.38a41,41,0,0,1-38.56-27.7c-1.2-.1-2.38-.26-3.56-.46a43.79,43.79,0,0,0,84.26-.09q-2.08,1.19-4.26,2.35A40.93,40.93,0,0,1,266.93,123.38Z"/>
        <path class="cls-2" d="M327.38,50a12.44,12.44,0,0,0-1-3.46l13.91-3.18a15.84,15.84,0,0,1,2.56,4.34Z"/>
        <path class="cls-2" d="M315.88,72.2c5.59-5.21,11.68-12.4,11.62-20.5l15.9-2.36c2.63,9.92-4.51,19.78-11,26.47Z"/>
        <path class="cls-2"
              d="M290.26,89.12a136.24,136.24,0,0,0,13.14-7.38,91.74,91.74,0,0,0,11-8.17l16.58,3.63a98.21,98.21,0,0,1-13,10.45,158.35,158.35,0,0,1-18.32,10.63Z"/>
        <path class="cls-2" d="M246.17,94.62c3.35-.58,6.86-1.37,10.45-2.34l-.7,8.06a137.32,137.32,0,0,1-13.6,3Z"/>
        <path class="cls-2"
              d="M258.33,91.8a140,140,0,0,0,34.34-14.69l8.55,4A166.24,166.24,0,0,1,267.66,96.7q-5,1.72-10,3.16Z"/>
        <path class="cls-2" d="M309.6,63a28.2,28.2,0,0,0,2.75-4.19l12.11-.68a28.78,28.78,0,0,1-3.17,5.57Z"/>
        <path class="cls-2" d="M294.35,76.07a63.8,63.8,0,0,0,13.93-11.51l11.8.7c-4.72,6-10.86,10.73-17.2,14.83Z"/>
        <path class="cls-2" d="M278.33,77.45a83.64,83.64,0,0,0,14.3-8.63l7,1.52A98.35,98.35,0,0,1,282,81Z"/>
        <path class="cls-2" d="M268.73,81.6c2.77-1.06,5.46-2.2,8-3.39l3.64,3.56c-3.18,1.48-6.54,2.9-10,4.23Z"/>
        <path class="cls-2" d="M240.82,88.32c9-.6,17.9-3,26.35-6.14l1.63,4.41c-10.33,3.83-21.22,6.84-32.26,7.49Z"/>
        <path class="cls-2"
              d="M299.46,35.61a51.89,51.89,0,0,1,14.91,1.86c4.35,1.31,8.73,3.62,11.21,7.57L339,42c-4.54-4.44-10.92-6.58-17-7.67a84,84,0,0,0-19.66-.86c-3.94.23-7.85.67-11.76,1.24l1,1.29C294.16,35.75,296.81,35.61,299.46,35.61Z"/>
        <path class="cls-2"
              d="M324.45,46.4c-2.74-4.89-8.61-7.09-13.81-8.13a66.33,66.33,0,0,0-17.95-.71l1.15,1.58c5.3.15,11.15.85,15.63,3.93A10.83,10.83,0,0,1,314,49a12.57,12.57,0,0,1-.81,8l11.93-.67a12.55,12.55,0,0,0-.63-10Z"/>
        <path class="cls-2"
              d="M300.27,45.26A8.73,8.73,0,0,1,304,50.07a10.08,10.08,0,0,1-.68,6.59c-1.83,4.34-5.37,7.87-8.95,10.82l7,1.52c4.38-3.64,8.94-8.15,10.75-13.7a9.35,9.35,0,0,0-.6-8,12.49,12.49,0,0,0-6.4-4.7,33.38,33.38,0,0,0-9.93-1.8q1,1.4,2,2.84a14.62,14.62,0,0,1,3.2,1.57Z"/>
        <path class="cls-2"
              d="M218.65,71.08c-3.4,3.77-7.36,9.34-5.64,14.71,1.6,5,7.48,7,12.15,7.8a46.72,46.72,0,0,0,9.24.59l4.28-5.75c-5.55.16-12.67-.25-16.86-4.42C217,79.26,220.34,72.59,224,68.33c.35-1.11.75-2.2,1.17-3.3a56.63,56.63,0,0,0-6.49,6Z"/>
        <polygon class="cls-2" points="81.53 51.81 87.38 51.81 87.83 43.15 81.98 43.15 81.53 51.81"/>
        <polygon class="cls-2" points="148.15 51.81 154 51.81 154.46 43.15 148.6 43.15 148.15 51.81"/>
        <path class="cls-2"
              d="M9.33,82.92c.3-5.69,1.93-12.11,6.78-15.63,4.15-3,11.72-4.08,15.46.15C33.81,70,34.14,73.76,34,77l-1.75,33.44h5.85l1.46-27.89c.32-6.17,1.95-13.49,8-16.55a15,15,0,0,1,8.94-1,8.31,8.31,0,0,1,5.85,3.24c1.77,2.62,2,6,1.85,9.09L62.4,110.43h5.85L70,77c.27-5.11-.47-11-4.75-14.39-4.66-3.7-12.11-3.7-17.36-1.47a16.73,16.73,0,0,0-8.6,8.21,11.64,11.64,0,0,0-3.12-6A13.56,13.56,0,0,0,29.6,60a17.82,17.82,0,0,0-14.32,3,20.88,20.88,0,0,0-5.43,6.44H9.58L10,61.1H4.63L2,110.43H7.89Z"/>
        <path class="cls-2"
              d="M102.81,81.68c.48-6.25,3.37-12.59,9.22-15.47,5.08-2.5,13-2.27,16.28,3,1.86,3.06,2,6.94,1.82,10.41l-1.61,30.76h5.85L136,78.71c.34-6.39-.49-13.65-6.71-17a19.89,19.89,0,0,0-9.07-2,18.54,18.54,0,0,0-9.79,2.42,15.94,15.94,0,0,0-6.83,7.53h-.19l.45-8.52H98l-2.59,49.33h5.85Z"/>
        <path class="cls-2"
              d="M175.55,66.17h9.89l.27-5.07h-9.89l.23-4.31c.15-2.82,0-6.49,2.53-8.39s5.87-1.14,8.63-.7l.27-5.17c-4.24-.58-9.17-.91-12.76,1.86s-4.28,7.91-4.51,12.21L170,61.1H161.8l-.27,5.07h8.17l-2.32,44.25h5.85Z"/>
        <polygon class="cls-2" points="86.89 61.1 81.04 61.1 78.46 110.43 84.31 110.43 86.89 61.1"/>
        <polygon class="cls-2" points="153.51 61.1 147.66 61.1 145.08 110.43 150.93 110.43 153.51 61.1"/>
        <polygon class="cls-2" points="200.68 61.1 194.83 61.1 192.25 110.43 198.1 110.43 200.68 61.1"/>
        <polygon class="cls-2" points="195.32 51.81 201.17 51.81 201.62 43.15 195.77 43.15 195.32 51.81"/>
        <g id="apache_nifi" data-name="apache nifi">
            <path class="cls-2"
                  d="M12,22.44l2.43,11.42H12l-.4-2.42h-3l-.65,2.42H5.55L9.17,22.44Zm-.68,7.12-.84-5.14h0L9.1,29.56Z"/>
            <path class="cls-2"
                  d="M20.31,22.44a3.22,3.22,0,0,1,1.46.3,2.51,2.51,0,0,1,.93.78,2.86,2.86,0,0,1,.47,1.1,4.91,4.91,0,0,1,.09,1.26,4.23,4.23,0,0,1-.34,1.54,3,3,0,0,1-.79,1.07A3.28,3.28,0,0,1,21,29.1a5.13,5.13,0,0,1-1.5.21H18.22L18,33.86h-2.3l.6-11.42Zm-1,5.17a1.6,1.6,0,0,0,1.13-.42A1.84,1.84,0,0,0,21,25.9a2,2,0,0,0-.3-1.31,1.44,1.44,0,0,0-1.21-.45h-1l-.18,3.47Z"/>
            <path class="cls-2"
                  d="M29.24,22.44l2.43,11.42h-2.4l-.4-2.42h-3l-.65,2.42h-2.4l3.62-11.42Zm-.68,7.12-.84-5.14h0l-1.37,5.14Z"/>
            <path class="cls-2"
                  d="M37.72,24.48a1,1,0,0,0-1.05-.57,1.13,1.13,0,0,0-.72.23,1.65,1.65,0,0,0-.48.75,6.57,6.57,0,0,0-.3,1.36q-.11.84-.17,2.06a19.94,19.94,0,0,0,0,2.1,4.54,4.54,0,0,0,.21,1.24,1.05,1.05,0,0,0,.43.59,1.28,1.28,0,0,0,.64.15,1.58,1.58,0,0,0,.57-.1,1,1,0,0,0,.48-.42,2.86,2.86,0,0,0,.35-.88,8.19,8.19,0,0,0,.19-1.5h2.3a10.42,10.42,0,0,1-.24,1.76,4.21,4.21,0,0,1-.61,1.46,2.88,2.88,0,0,1-1.16,1,4.31,4.31,0,0,1-1.87.35,4.22,4.22,0,0,1-2-.42,2.6,2.6,0,0,1-1.11-1.2,5.08,5.08,0,0,1-.43-1.87,21.9,21.9,0,0,1,0-2.4A22.31,22.31,0,0,1,33,25.76a5.53,5.53,0,0,1,.63-1.88,3.2,3.2,0,0,1,1.24-1.22,4.29,4.29,0,0,1,2.09-.44,3.86,3.86,0,0,1,1.92.4,2.52,2.52,0,0,1,1,1A3.39,3.39,0,0,1,40.21,25a11.07,11.07,0,0,1,0,1.34h-2.3A4.05,4.05,0,0,0,37.72,24.48Z"/>
            <path class="cls-2"
                  d="M44.58,22.44l-.23,4.37H47l.23-4.37h2.3L49,33.86h-2.3l.27-5.07H44.24L44,33.86h-2.3l.6-11.42Z"/>
            <path class="cls-2"
                  d="M57.89,24.33H53.8L53.66,27H57.5l-.1,1.89H53.57L53.4,32h4.24l-.1,1.89H51l.6-11.42H58Z"/>
            <path class="cls-2" d="M69.53,30.26h0L70,22.44h2.11l-.6,11.42H68.86l-2.4-8h0l-.42,8H63.9l.6-11.42h2.66Z"/>
            <path class="cls-2" d="M74.23,22.44h2.3l-.6,11.42h-2.3Z"/>
            <path class="cls-2" d="M85.06,22.44,85,24.33H80.88L80.74,27h3.84l-.1,1.89H80.64l-.26,5h-2.3l.6-11.42Z"/>
            <path class="cls-2" d="M86.63,22.44h2.3l-.6,11.42H86Z"/>
        </g>
    </g>
</svg>